<mxfile host="app.diagrams.net" modified="2024-07-15T06:44:52.361Z" agent="Mozilla/5.0 (Windows NT 10.0; Win64; x64) AppleWebKit/537.36 (KHTML, like Gecko) Chrome/126.0.0.0 Safari/537.36" etag="hVcUxnDu1kAm-gs97F70" version="24.6.5" type="device">
  <diagram name="ページ1" id="IY0aCIZ0Syp0eXYPd5co">
    <mxGraphModel dx="1709" dy="974" grid="1" gridSize="10" guides="1" tooltips="1" connect="1" arrows="1" fold="1" page="1" pageScale="1" pageWidth="827" pageHeight="1169" math="0" shadow="0">
      <root>
        <mxCell id="0" />
        <mxCell id="1" parent="0" />
        <mxCell id="muEPeiRp9h54YGBEiAfr-9" value="" style="shape=image;verticalLabelPosition=bottom;labelBackgroundColor=default;verticalAlign=top;aspect=fixed;imageAspect=0;image=data:image/png,iVBORw0KGgoAAAANSUhEUgAABDoAAASCCAYAAABTtIyhAAAAAXNSR0IArs4c6QAAAARnQU1BAACxjwv8YQUAAAAJcEhZcwAADsMAAA7DAcdvqGQAAP+lSURBVHhe7N0LfM31/wfw19nMLphLw5a5jWQumaGZapiQa2Xyq0klKiL6IX+JJNdk/SKLihQ/q2gkl8KvxcKsGAqTmNwyl8KwmdnO//v+nu93zraz7exyZjt7PXt8O+d8z3ffcz++n9f5fN4fEBERERERERHZC4P6/wkHjOopEREREREREVFZNbuFITPoqP9lb/UsEREREREREVFZc+LJ9WrQ4aBdJiIiIiIiIiIq8xh0EBEREREREZHdYNBBRERERERERHaDQQcRERERERER2Q0GHURERERERERkN8rlrCsODg5wdnaGo3Iq56FNPkNEZInRaER6ejpu3bqFmzdvamuJiIiIiKg00WddKbagQ4IDN1dXOFWsiAqOjnBUFmupDQhlSVMaEMkpKUhNTdWuKV6VK1dW76PcVyKiwpDvqxTle+ra9etIS0vT1tqQ0Qij8lVtUE4llFX+r64zyHltnfpFrm8n54mIiIiIyqFimV5WDrQlPPDy8kKtmjXV884VKxYo5BCyvfyd/L3sR/ZXRTkv+y8OlSpVwt3KPqtXq8aQg4iKRL6v5LvKs3Zt3FWjhqlXmA2ogYbQwwvt+1D+r383ymnmt6T5eUXm3xMRERERlTOFPkKXg/3atWqp4YH04ChOsr9qyn5rKw0JGV5SFFXd3VGjevUChy9ERPlxc3NTvweL8/tFDyjMQ4vC0P+egQcRERERlTeFShGcnJxQSzm4l1NbcqpQQQ075LQwqlatCnd3d+0SEVHxqyDfU8UUdkgoUdSAIzt1fzLEhYiIiIionChw0OFgMKCmh0ex9+LIjTQePJTbK+gwFhcXF7hXqaJdIiKyHfV76q67tEtFYKNAgjEHEREREZUnBQ467vLwKPFhIPKLqYyFt5bcv4JsT0RUVBUrVkS1qlW1SwWjBxHFVZcoO32/DDyIiIiIqDwoUNDh6uoKlztUzFNuWxZrSF0OWxUIJCLKTZUqVdRgtkCkF0cJDS2RuINhBxERERHZO6vTABmyUthfK4uLNbcvAYfMskJEdCfIjCxWk4BD+W61VU8OS9SwgzU7iIiIiMiOWR10OLu4FPyXymImty+1N/IisyAUhbOLKxrf2xQPdAxGcLee6vJgxy5o0rSZctvW9SghovLLzcqeZ6oSDDjMlWSwQkRERERU0kxHuxMOGOt/2Vs9mxuZorU09JS4du0aLl2+rF3KqVbNmnAuwPAa+WVTDvodHRzR3M8fvi3uQ02PWuo6/VfPm2mpMGYYcfXqVcQf2I/f9sUhIyM982+JiMydO38eN2/e1C5ZJt8ud+rbg99dRERERGSPTjy5HpjdwmB1jw5bTyVrLSn4l5eC3E/9YN/Z2QXBj/RWe25UqVwFCcf+QMz2bdi04Rt8ryznE8+pjRbZd+BDndG1Rx84V3TJEoYQEems+R4qaszQrFkzdSkMhhxEREREZM9MR7tW9Oi428urxGdbsSQ9PR1/nT2rXcqprre3di5vesghjym4Wy91aMqFC+ew95dd+OPIYdlA3a5yFXf0erQ/XN3ckJaWZlpX2R3Hjx3BD5vWq/eHv44SkbkrV64g6epV7VJOxfGd8eUXX6inTz71lHpaGPzuIiIiIrKtgPvvx8CBA1GrVi1tTe7+OHoUkydP1i6VHd9/9x3eeecd/Lh1q7YmdzL6YumnnyJUeU5sQe/RYXXQ4V2nTqk4IJYD89NnzmiXcrI26NDd17otHur8MC6eP4cfNm9UTyXjcHKqgBat/NHApzGqVquOjIwM7S9MYYt71WrYGR2FX/fu1tZaZ/78+ahZs6Z2KavffvsNM2fO1C5Zb+LEifD09MSoUaO0NbZ33333oXfv3vDx8ckc0vTXX39h3bp12Kq8weVxJiYmFurxWOsppYEXGBiY7+OW+zp27Fj1/r3++uva2rxZc/+/UBqa3377rXpKZUeLFi3U9+7777+PGzduaGtNpAbQq6++ivXr1+PAgQPa2oJLSkrCFWXJTXEMWymWoENZGHMQERER2UaTJk3U9sSMGTOsKq8goYi0FSeVsbCjY8eOWPjhhxgxciR+/PFHbW1O8hx8umQJbint6WeffVZbW7wKPHSlMCGHr6+vds6y/K63pDjDFik82qxlK6TdvIk9sTFqyOHg4KjcBtSAo8NDneFerZoabMjt6ovM7JJ8/Zr6twUtUCqNcmmgy3LhwgU13NAv2zIUKE4SHLz88stquBITE4OPPvpIbez//fff8PLy0rYqmr59+2Lx4sXapaIJCgpSf2Fv0KCBet+pfOvWrRtatWqF//u//8tS3FjOyzq5TraxpdISLjDkICIiIrKd6tWr49atW9i7dy927dqV/xIbi8b33KP9ddmxbds2DFfahws++EANPSzRe3JIe/rFF1/U1tqO1UFHQQUHB+PNN9/EoEGDtDVZyXq5/qGHHtLWlLy69RrgLo+aOHP6pFqXQ550o9HUc8PzbunBAjg6VlDH20tPEnMZ6emoUsUddes30NaUH0OHDsX169fV0GbJkiVqDw7p2SBBTXH1bpBeIsVV/LZhw4Y4cuSIGnZI6EHl2wfKF/D+/fvRtGnTzLBDDzlknVwn2xARERERkXUk7Hh5xAh8GB6eI+zQQw4x+PnnkZqaqp63JZsFHTLUQ8KBnj175gg75LKsl+vNh4SUtNped8PB4ICzZ85kzqKiBxqnTvyJ3bEx2L/nZ5z96zQcHB3Unh0ScAgHtV6JAbU971YvF5chQ4Zg0aJFamDw+eefY9asWTl6Ibz11lvqdbKNXG+pQKsMZ5EeEbKNnMrl3ISFhalDNXSdOnVS/05Os5OeFtKdSoao5Eful9w//bHI8BFzcp3+OOQ+yr6F3Ff9vFwnS2HJY7j77rsRHR2NP/74Q+0+lp08v/Ic6PfT0nMl90d/XeS+yutEZZPU2pHXWw87JkyYoC56yCHX6fV4iIiIiIjIOpbCjjsRcgibBR3yK//HH3+snpdQ48knn1TPy6lcFnL9jh071PN3gjzp0oPj6tUrqFChgtp7w1E5lRDjxPFjiN0ZjbhfdmH/nl/UWVbcKlVSi5K6uroi+fp1td93RefbXd+LShrP0uPgl19+UYeyLF26VO3uJD0odBJyyJARuU62uXjxotpjwZxsU69ePbWXhWzzww8/4N5778017JDQomrVquq2ol+/fuqQGnkNs5P6BtIzwtJ12cn9Onr0qLpfeUxt27bNDDCETNerP47Tp09nXic9Q+S+C7lOv1+F0aZNG/X+/vrrr9izZ48a0mQPcGQYjsyqI8GLNHKrVKmiPh862T4kJEQNSuS+/Pe//1WHN1DZpYcdv//+u/rZkKW0hhwys4rU48i+6CxdV9jZWIiIiIiIikIPO6RmR/du3dSaHNJhoCRDDmGzoENIY/hTLb159NFH1aEqcipkvTWNZVsyGBxwU2nUtGv/AJ4IfQ4Dnh6Mfw0cjMcHDES3Xo+iXsNG6nbSo2PbD5twIuEYTp88gZ9jtuPgb/vgVKF4p9xt166d2vCS4SBCnp8vv/xSbZxLCCA9D6RBJm8e/bmThpmEHTrzbfSwQHohSNAg6y2RfUkQIIU9pSHv5uaWZ70QCQWsIcU/9ceyYMECdbjLPWZjzuQ29Mchp8U1VMWc3J4EFEJuQ+6DhB86CZckuJLnSJ4DWbIXLJWgQ8ISea6F7Od///ufep6IiIiIiArvz+PHC7xQ6aaGHVKzQ2kDVq5cGUNfeKFEQw5h06BDbNmyBcuWLVPP68VH5bKsv9NSb6TAmGE01eFwdlZ7eFRUlsqVq6BefR8Ed+2BOnXrqdv+Hn8Amzeuxffr1mB/3C9K49gNjhUclRcs66wNRSG9CI5n++DqQYCEAM2bN1fPZx/KIUVAdXltY2mIi04a8XJ9ly5d1B4gxUF6bJhLTk5Wn2PdyJEj1duVYTMvvfSStrb4SDgkz6n05NBJzxHzIri1a9fO7PFhTtbpatSooc7AYk4Pkahskro7MpRKwj8JF2WRXjqyTq4rTU6cOIG3p03LseheGTVKnXnFfDl06JB2LREREVHp1qBhwwIvVLpJm09+UD556pT6w3P79u21a0qOzYMO8d1332WGHXIql0uDc4l/Kf831eWQ2hvSpUZfZFYVafg3atJU3VYKlQplazUYubtOHbW+yLmzsg/7ID018utVce7cObWHSVFnL5FhNDIMRhpk0juiKMNTcuPv76+eSogiwY8s0rCVx2g+hIbKFz3kkGDj8OHDmD17trrI+dIYdkgvJPmcZF+IiIiIiEobvSaHo6OjWrJCZmOxVKDU1kok6BASbkjtiNIScggpOCq9DmS6WHNy2amiMypUcIKrNn2shCF62NHQpzHu9q6Hvy9ewKmTf6rrioM0aLLX29DrSZw9e1a9XmSvMSH1OHSyncgeHNx1112Zf2+JXihUaqbk9SaUoSgSiBQ1mJA6IydPnlT3p9cSKW7yXMrjkX2bL9JbQ4bpCOlCJUN1zEmII2GOTmo2SN0OcyxGWna98sormSHHO++8gxs3bqiLnNfDDtnGlrLO4XTnlJb7QURERERlnx5yCL0mh6UCpSWhxIIOId3DS5MbN1Jw6Lf9cKtUOXOWGEmerl+/hq0/fI91a1Yi7pfY2705lOs9atVGm4BAOFWsqP6tDH8pLjExMWqPA70RLYGGFG+V502GsEggcOHCBXWdXCcNcukZIYVUdbKdbC9vIr3XgjTupf6H7N8SfV/Ss0LGUcn+citcKr7//nt1JhMZdiL7lr+VU/kbObWGhAcSvsjfyu3rwYNOH3pj7f6yk+dQeuTIbCvZHThwQL3/QoZQya/3+uw2cl+effbZLKHQ7t270aBBg8wwSO4Tiz2WXZs3b1YLj+ohh04PO+Q62YaIiIiIiKxjKeTQmYcdHbK1+2zF6qBDhnOUBsV1P/RpZA/+GoeEP35HlSpVYczIUHtzpCoNnhMJR3HqxHFcOJ+Yue099/oiuFtPeNSsjSPxh5S/3auu168vKundIEVDpdEvDf3BgwervR6kJ4xOpjaVRrgMx9Ab3gkJCeqpTraXmhIyU4jsR+puSINfLwyancyyIoVD9boT+iwt0ui3RPYZGRmpnn/kkUfU4p1yKr0eDh48qK7Pj7zZpX6G/O3TTz9tsbinzPwiYY1M+VpQjRs3Vh9T9tobQp4LCUEkDJHr5bHI7Db6fZFhAVJPRCePV3qGSG0POS+vj9x/Kpsk6JKhKuYhh07WyXWyjU0V03dGkZWW+0FERERkh+Tn8r/OnDFdsIKEA+fPn9culR15hRw6Pez46KOPSiTsMHVVmHDAWP/L3urZ3NSuVSvPYpYlRYZNnMvjxa/r7a2dy58EFNJbQ6aO7dT1ETRs3AQpydfVFybh6BH8c1Fux4Cq1WugtqcX7q7jrU4n+8fv8Yj+YZOy3Y3MfVDJk54VEjqMGjVKW0NUOiQlJeGKstiS3qtIZhUqbVPiEhEREZHJFxERankBvUd5XqRn/dy5c7ErNlZbUzbID9NOyn23ZgpZ+RF+/rx5aN6ihbameJ14cj0wu4XWQrci6KhRvbpNpv8sKOnN8M+lS9qlnAoSdAg9qHBwcERLP3/4trgP7lWrmUId7cdOuV62u3DxPOIP/IqD++KQnpHOkOMOY9BBpZVVQYfy/aF8gWgXSha/u4iIiIhKjrWzjlxS2rmlrdxDWVPgoMPV1RUed92lXbpzLv79N1JScq+LUdCgIzsXF1fUbdAQtWp7qV1whPTckBlaTp04Uaw1OahoGHRQaVUSPTqIiIiIiCirAgcd8uufl6enWqzzTpH6HH9ps4rkpqhBBxFRUUnIIWFHfu5Uzwr26CAiIiIie6QHHVYXI5UD46SrV7VLd0Z+v5BmnyaWiOhOsDZEuFNhA0MOIiIiIrJnBUoGrl27lm9xEVuR4SrmU35awqCDiEqDCgXs+VZSc59wjhUiIiIiKg8KnAxIjYxbt25pl0qGDFn5+59/tEu5u5PDaoiIdAUNXaV/hYQQ0nPOFvT9sh8HEREREZUHBQ46MjIy1LBDTkuC3M6FixetagBUdHLSzhER3TmFmYpbQghbDClRvzs5VIWIiIiIypFCjfVIS0tTi4LmNftJcUhOTlZvR27PGjIzDBHRnSY9OvRZmwpKgoni6N2h/r22D8YcRERERFSeFLqohRxES88O6W1hbRBhLRkac/7CBXW4irUH+0VpWBARFTe3Qgav0qtDDSaK2AtD3wcLjxIRERFReVPooEN348YNJJ47pwYTarHSmzfVmhoFIdvL38nfy37OJiYWuOipe5Uq2jkiojvPzc2tSHWDzOMJNe7VQl/5vx4Ay2lmFGx+XjDgICIiIqJyynQkPOGAsf6XvdWzZVGFChXg5empXSIiKh1kpqh/Ll3SLhERERERkS2deHI9MLuFocg9Ou406Zbtcddd2iUiotKjUqVKas8OIiIiIiIqOWU+6Kjp4QEnzrZCRKXUXTVqsH4QEREREVEJKtNBx1133cUGBBGVetLrzIXfVUREREREJaJMBh0yw0rtWrUKPasBEVFJku+smjVrsmgyEREREVEJKHNBRyU3NzXkqFixoraGiKhsqFq1KmrVrKkWUCYiIiIiItsoE0GH1OCoXLmyOrNKjRo12EggojJLhtvJd5mEHgxsiYiIiIiKX6kMOlxdXeHu7q4W8bvbywuetWujerVqDDiIyG7IMBbpnVbn7rvVGh5Vle88+e4jIiIiIqKiMaj/n3DAWP/L3urZ7FxcXOBcsaLaq0J+fXR0dNSuISIiIiIiIiKyvbRbt3Dz5k2kKUuqssj57E48uR6Y3cKQa48O6T1Rq1YtdfpW6V0hvzQy5CAiIiIiIiKikuZUoYJas7NatWpqz+jq1avDYDD13cjOYtBRuVIl9Q+lJwcRERERERERUWkiuYWUuajo5KStuS1H0FFJ2ViSEZkOkYiIiIiIiIioNJKRKLVr185RzzNLmiFXStFPIiIiIiIiIqKyQCYyMZcl6JArcxvjQkRERERERERU2sjEKVJbVJcZdDg7O6tXEhERERERERGVJVUqV9bOmQUdDDmIiIiIiIiIqCwyrzNqGqcy4YDRf8uzcHN1VS8SlQbp6elIS0vDrVu3kJGRoV6WhYiIiIioJDg6OqqNJzmVeoZOTk7qeSJbMhqNBS4pUZi/sUfbH1wEzG5huD10hT06qBSQYOPq1av4+++/cenSJVy7dg03btzAzZs3GXIQERERUYnSf3iT41E5LpXjUzlOleNVWU9kC4UJLBhyZJUZdDCZpDtJ/hG5cuWKuqSmpqqJJBERERFRaSPHqXK8KsetSUlJ/DGOikzeU8Xd/rHFPsuS24NYiO4AGZKip+NMxYmIiIioLJFex3ovZDmuJSoIPYiQ3hjF3SND3195DTsYdNAdI/8YSAouXQGJiIiIiMoqOZ6V4SwMO6ggbD3cxBYBSlnBoIPuCOnid/nyZbXQKBERERFRWSe9k2U4C4eyUH7uRC+L8tazg0EHlTj5R0BCDmsSb0kgpbq1q6srKlWqhCpVqmQubm5ucHZ2zjKNUEkrz+PeiIiIiIqLvRxT8cc8yo+81+9ELwu5zfLUdmHQQSVKPlwyhjG/D5kUx5Uwo0aNGqhataoackjYIcGGvkjQoW9TrVo19XpbsnSfy2tXMCIiIqLilP2Yqiw3yPTjXQ5joezK8vu6rDF9o0w4YHxw+zD1LJEtSXe+vIqOyj9yEmC4uLgUKkSQ9Fz+YWGKTkRERFS2SaOwLP+oJL2S5Qc7Ip1172kJQ0zbVKnkBF/viqhbDfCu4QiPSso6ZwOu3TQixcEVp6864NiJJPx2+DKupDupf6PciDSqTOfLoe0PLgJmt9CeAQYdVAL0+cdzIx96+cegQoUK2prCkS+Q69evF1uR07L+jywRERER3RmVK1dWf8Ajso4p5KjsVgGPdKyLvsH1UCPjCpLOnEPKzXTcupWOjAwjatWvjVqN6wEVbiLhdA2su94ef2xZiz9ifkLyLWm33A5LLLHn9o0edHDoCpUIPXzIjQxVkeEnRQ05hHxo5R8V6Rkit1sUDDmIiIiIqLDk+Leox6PFxcfHB6+++iqmTp2Kxx57rFiOu8uyRo0aqUv16tW1NbZjzXvA1OQwoGlDd3wy4yGMHtoSDb1cYTRUQFIqcDMtHbiVqtxfZ3h436XsNA1/na2MNa5PIrVle/i+MgvPPNcbDatJz3aD8l/utyntm9LyvrQVBh1UIpKTk/P8MLm7u6thR3GSoKModTsYchARERGVDsXdKGvSpIl2zrbkfstx8J0mvUqef/551KlTRz1GfuCBB9CpUyft2pLl4eGhhi5yeicNGzZMXdq1a6etsQ1r2hQSSshb3P+eynjn363hXcsNf527C/vSH8ZNp7tR3RmogIq4dZcfrnj3xR8OnXDkagtscuyJ5KqeMF5KwuWb6bjU7hkM7XMPWtZRblft0VF+ww5Ty/LBl9+qd3K9epaouOl1M3Jj7XAVmV3F09NTXVJSUqyqwyFjI2/evFnoDzGDDiIiIqI7T2+UFcexWatWrTBgwABs3bpVW2Nbcsxa2PpzhSFhRkBAABo3bpzZa+G+++5D/fr1tS1M5IdG6QWtbyOL9LC+ePGiTQupyrG/HKPLbeTVRrC1bt26qacJCQk4duyYet5W8n7tpZ1igLdHBbz5bAOlrVMdSVfdEG3ogu03G+DI+QowGirj+L1PI77+Y4iv0hp/ON6Dg7e8ccW1JioiHUpjCo7pN3GtYg24p11D5yoHsP+M8vzKSH5pB+Vx+7Z8X8r76ZlnnkGPHj3UNtnp06e1a2znZL3ewPYPp5oeVQnW6JAG7cMPP4z//e9/ZaZgpH6fN2/eXOqrJ9euXRv33HMPatasibvuuguXLl3CiRMncODAgcyaFQMHDlS/2BYuXKhetjXpsifBhCWSKMuSF19fX/WLyM/PL8sYR/mg7Nq1Cxs3bsx1/0Km+ZLnoSD0YKSk/kEiIiIiorwVV9Axbtw4NG/eHNOnT7d5A1cnvYxlFkFbu/feezF06FDtUuH8+eefCA8P1y4VPy8vL/X5kOP3s2fPamtL3rvvvquebtmyRW3n2Uq+71vleicnA94edDf8fGuhonNlHDQEYOHZ5ki6fAXuri6o07QxKrq7wHgzFQZkwKC0bwwOjqjg4gpkpCMjNRVwrACj0m7NOH4AnffNwdmLNzB/63mkpSvt11xuv7g+U7l55JFH0KVLF/W8TEjx5ptv2jwDuCM1OiQweO6559QHK6lOWdGrVy/1Pg8ePFjtVVAayXPbr18/9Yv70UcfRYcOHdQvuvbt2+Nf//qX+qaSsECGh9SrV0/tLlZSUuWDZ4F8qPIaWiLXjRkzRr3v8jiyF3Ly9vZG//79MX/+fLRt21Zbm5M85vzCFEsM/cKwZssazH1cW1HCxi3Zgi1LxmmXgMfnrsGWNXNxh+4O5eP+MeFYGj4G92uXS879GBO+FEunPqVdzp16H5dORf5bEhER2SdpZEvIIfRf9EtCbsfDxa1u3brq6cGDB9UGfEEX+WFU3weVEKVN1NWvMlo2qIxryWkwGlwQe6UmkpTzzkhHlbuqoJJzBnAtCU7paXBIz0BF18pwUto4Vw/txYnIFTj6xVIcX78Wf8Tux5FLLjh0zRN1XBzgV0dpa9kwyMjPnewkUGKtdgkIJCiQxvfJkydtmpoVt++//169z02bNsWQIUNKXdghDXlJbgMDA9XL+/fvxyeffIJ33nkH//nPf9T7L4lp165d8eKLL6pdxUqK9KbI7Q0u4UNuCaKEGm+99ZY6Zk72sW3bNkycOBFPPfWUukhgtmTJEpw/f17tcjd27Fh07txZ++ucnJ2dM3tpUDHz6YpXZr6Pj5cqjW1ZwmdiTM97kT3Ccu80BDPf17ZRlvenPoPW2Teyal/u6DRkJt7Xt1n6PqY+0zrH7Zm7d9i7WPrxJPTPa6M7oOekj7H0/VfQQrtMREREtiW/MOvkh7KSKEQp5HhYjmltTW+nSG9uaW8VdJF6IsVdN688s6bHRLVKDujWujJS0zJQAUZcSnXG8RtV4XAzBbeUZtT581fw295juHE1We3R4eLqiuvHDuLIqqU4tm4lbh0/CJeks8j4fRcM+7bgWlIKbtb1Qb17jXg0yB3ubrm3XW3Zm0NIG27v3r3q8KDPPvusREd0lEiLXT5wEhBI0R8JDD7++OMSSzWLg9xXuc9y3+UxlLawo0+fPuqYuuPHj+O9997Df//7Xxw5ckQdX/fXX3/hhx9+wNy5c9U3mPTkqFKlivaXtpfb6ywf+uw9NMwNHz5c7Xny999/44033sCiRYvUx6eT/crwJ+nxsWnTJnWdhD259VSRL+yKFStql8gancYtxJqvZubdg8S1K/5vbCj8PdJweNV8zJ4fge0Xq6LlE2Mx4SlPbSNlswfG4O1nH0TVK9sRMX82Fm8+BtTrjFFvD0HmK2bVvlzxwJi38eyDVXFlewTmz14M065G4e0hufVSaoFuTT2QfGw7vpYRTvc+hUnvv4tXSr7rRVau/eFfzwln41bhgLaKiIiIcieNsqL8cCU/jkmvZyHDmuV4Xu9WXxLKUvuHioc1QcK9dSqizl3O6vSxjsjANYfq+OfseRjTUuHkXl1pOAEurs7K+9dFXXdy7QokrPoU7od/QbuLf2DU0Kfx9huvoVWrFsA/Z2D4/Sf8frEikg3V0ETZ9z13O2u3VPLkPR8REaGWTJD2aUmyeWu9rIccOrnPpTHsuPvuu9WqyVKvQu5f9nFuMvxDQhDZLiYmpsR7NeSW2knokNsHX3r93H///WrBmtmzZ6s1RnRPPPEEPvzwQ7WwjZBkXNLBHTt2qK+H1B/JjfTqsJat082yoLqnJyrnFw51DkAjNwkm3sR7G/fi971bsGTKQsRdcUK9lt20XhaeeKJXS1S9EoeFU5Zgy97fseOL6Zi9+STSPPzxhF7w25p9eT6BXi2r4krcQkxZsgV7f9+BL6bPxuaTafDwfwIWa4d36oWmVa/g8Aat4FhVL3hVdUPJ9WuyzPMJfzTCMcStStTWEBERUX6Kcowms4zIcO8zZ86ojS8RHBysrisJJflrdsuWLQt07Fse5PUjq86abQrCmrZXiwYucKzgAIPSNJetM4yuuPrjF3A8EAVcPAOkXINL2jX8/ct2/Pnlpzi/OwYBbf0x6JFgtDq2B+kH49QCr/c1bYJLZ07CKeVvXEj8B9FHHOFWwRFtG+Xdpbmk24clxaYtdXsJOXSlMewICgpST2V4iqUvTwk49KmTJAQo6QZ8bh+cvLrE6eMl165da7Eyr3wBZX/eP//8c/X1adasmVq7w5KSHLJTvqQhLdm8GOxFJKcpJ2nyP4VnL7T0Utb+lrXnQuI3h3EWbqjn/4C2RuS9L89eLeGlrPttVZY94ZvDZwG3esiyK5Ur+j/YCG5n45DlT+64FnjC3+t2LxMiIiIqMgksZDiK9NIICQlRe/vK8OZp06bhgw8+UNcJqUURFxeHy5cvqz8Kyo9oUphShkmPGDECTz/9tFqj78EHH1RnMCkuJdGgvHr1qvpDoBwTy5D1woY4JTWkp6TI4/n3v/+d2XayRCZryG+bgrKm7dWgppNyqJuBjPRbcK1UGQf37EWLRvXQuGoFOO7ZCLf93yNl6xpc3BUN3LwFJxdXdPBrji37fsWFDANSfj9gKhWQnoab6utvRCWndMScqYSPd1WFoyHv8MZef+C1WStdGqJSk0MCAZk2SIYZSAPUfPqi3JY7xdJ9yb7IY5DHIuPX5LHd6QKlMm2UVLD9448/tDVZ/fPPPzmKDOlLSchtLGJez5m/v796Gh2tfJizWbVqlToHuDwuc/KlLuO/hP732RXPeMO2+NdbS7Bmw+3nccOaJZg5vBNqa1voGvWaiIVfrbn9nG9YgyUTTX0O7nv8LfW6Dfp1W9Zg+dzhyt6t0Gk05n+1IXO/a5ZMRK9sN972X29hyZrb26i3PXM4OmXZri2GzzR/LBuwZuE4dHp8LtYol19uVRmo3Aovq9eZirJ6PjUVHy/9GJN6asnwxs347YobWj7xf+h5r7LO1RMPDBmFAI8r+G3zN1Db8EqDviqScfZwtp4LKcdwJRlwq1rPdNmKffl7VQWSzyLnrq4ot+AGfVeZPJ+Av/KVcixuFRL1op3DWypbKrcz3FTjI3yMaQyL5wNDMOnd8Nv1QZaGY+aYrreH1ihcWz+jbmO6XlnC38UruU1B79oaQ2Z+rGz3Pl55IFuSnr2XCeSxTsK74bK9vu+ZGNM123Ac13vRc8xMhOvbfPw+JvW3NAe9K+7tOQYz5fGq236M9yf1x52drZ6IiMi25Ec/adg/+eST6N27t9rruUWLFurxuwxbEVK3Tno5S8MwKipKXSc/hnl4eKgzF+pBiRS8lwbvlStX1G2KQ0nU6JDHJrPJyJB1GQaeV8H+vEjoExoaesd/1C0u8p6oUaOGOuRfevFkJyGHhFz6Ng0aNNCuKRprwi0P9wq4lWFEJVcHXEkyInb/ebzwyit4qEkdGFKvo6LShnE0GOHkWglS+bCiszP++Ggufvl+IypUqQJjRdOPwIcOHILRsYK80eCQdlPZ3hlHk6sj6q/bw8ktsWUAJ73wJXCbNGmSOrlESTK1/B58+a16J9erZ4uLzJcrSaKQYQqtW7dWP2jWLNLouhPkA23p/mRf5LHovQPkS1GqN0sB0DtBZq+R6VsthQJCKifLtFmWlpIg980S6ZVhKWGWabdk9hgJkr788ktt7W3yj44s8fHxOfbt6emp/mMmw3f27dunrc1K9ms13254sl0NXPrlK2w+LCvaYtySqRjQsjL+OfI/fPnxV/juSAo8G7REq3YPoG3tI/h251/qn9Z+fC7mv9IeNVJOYtfaZVi+9gCSKt+N2hVP4dsfDqPDM0PQDsewY/MqfLV2F/5ybQJ//3ZoVXc/1vx0Tt1Hh0efQWNlm+Xf7lQv+3Z7Eu1qVEajIKXlvn8tli7fhSs1G6Bx42Zo53sTEd8dVLdrO24Jpg5oicr/HMH/vvwYX313BCmeDdCyVTs80LY2jij7k3v5+NxwPOPvisToZVgQ8R2OpHiiQT1X/LlkGTbH78almv7wdT2G1e9+jNU//YRde0/hesPO6NyoCq4c+h7Rf0gPojP4eWcymnbrjI6de+GxXg/Dv54LzmyejVkb/1bvD9p2Qb9GTjiz/Xv8nCWgOIMGAY+hkUcyzm6MUS7lv6+2XfqhkdMZbP/+Z2TdVQMEPNYIHslnsTHmjLYSaDF4MLp5nEXM/CgcuvUPjh/+DbvPe8C/uRuOrQrD4nXbsX33H7h07RaaPfYE/PEHYr5fjVUbYnHSqRHa+XdA06qx+GH/NUl5MHn8w/BOPYzVi5diXexJoF5LeKVuxNYDQJ3AXsrrcwm71cfig6cm/xudvZPx2+LXMW+HebcNV/R/OhTNHQ8jYtnPOK+ua4bHnvAH/ojB96tXYYOyb6dG7eDfoSmqxv4AuXmo+xyPvk2ccHb7KnwesQG/pXrD7+EO8JZ/AK8dw1q5I7LlU5Mxvm8TOJ3djlWfR2DDb6nw9nsYHbyV7Ryv4djarawLQkREdkl6Ax86dEj94Uuvz7Z161Z89NFHWLduHb755pvMXtBSM0Bqvcn1cuzYqlWrzL+RY2uZYrW4e6MXZibAgpLh39IDXYIe+aFPeq9Y66GHHsqcFVHaOHJcLcX/i5PUC5S2lLwO8oN4STh69Kj6+kobRAIteV1luLy4cOGC2qaSkEPI++GXX35RzxeH/HpM9PSrBBdHA86lVEf45uu4ccsZfvfUw7FvViH16jVcrl5bnWnFqDTdDcYMpDo4oO7pw6ifehX3PfAQGgx4FkfPncfyz5bDsYITHBu0UI42b8J46yYqOhhhqFAR504rx625sGWPDgmV2rRpk/m8S3FSW8/EcrJeb2D7h1NtFtHt2rUrM7WUxqWkitYud4ql+5LbojeYpTeFPNY7Rb7IClJkU9I+GRqS1wwlxSm3D05u6bA+ljC3MYySyPv6+lp8zPprYqvxiLVHD0H3ehWR+OMUDBo1F18pX4Jbv5qLUYOmYEdiRdTr/Az+pW75L7wxtBUq//MLPhw1HG8t2aB8YX6FeROHYMjENeoWayYOwr+GT8Rc9boNWDJxCfb/o7SlG+UzzVnlGvhn8zAMeWsJNij7nDtqBn5RWvwV67YzFQ2tPRpDutdDxcQfMWXQKMz9SrmP6naDMGVHIirW64xnTHcSjapXBv7Zj4Uzv1K/0L+aOwqDxr2Lned+xU7lcuJN2eomEuVxbt2JX88BiV9MwYuDX8T0jVrD3fUBjHk7FE1xEj8uno3ZUhz08BV4dZuMqU+Z90a4goumDje5s3ZfVy4iv12Z3I9uTauaDQ9JQWLC7/j9omkYTNpF5fzvvyMh0fRYfv5gIl6bvghfbNmrrN+LLYs+R9xF5R/5RtpnpZ4XPJzScGzze9i4V/lbtYbIOMz+xnT1bT7o+n+j0K1eMn77/E28lyXkULg+hpaNshch/RkfTHwN0xd9odYwkX0v+jwOF+EF/ebRMxSd6wFnfwzT6pNIrZN38NrsWFzJMiqrJ0JNGyJMq4ny+44v8M5rsxGbdUMiIiK7JD/oTZkyJXMItNTmkPpvSUlJORpZ8qOgePbZZ9VeH9J+kfod0iPS1g0yW5LHKqSnQlHodfHKOhmmtGDBgsweOtJrQyc9DcxDjg0bNqjnS0pNv844U+UBLNlTA6fOpeD6lUv4ZfFC/PLTDnhUckW6dLhQ3ovpN64rjaQ0VHCsiIPV6sG/ZQscd3bH19ExeG/O+0hPuQ5jrYZwaOQH480UVKjgCIOybbryN3mxZY8OKfqrk1CrJHo16WwWdEgDQqb/lAcjCY6EAVJt1ZrlTrF0XywtUvhSGtPy2ORLUB7rnSKzkkgybO2XkHRhk2lm/fz8tDW2lVvQkdubXIagCPlSLmhNDeldI4qzi6G53o1kXMRR7Jy527Qi024sjFfTBrTrpVx8vB3qVlS23DkPG0ydMyxohF6jZ2K+8hn5as0G5Qv1DbQzfb/m4ySOzTPf6a/Yf+4aULm6skdF70ZQ7+XOmcq9ymr3wngkoiLqqndSOQi4pPxdjXZ4bf44PH6fNqbl3Dnkepct6DQqFC2rXsT2sClYtkOCgx344p038Y06E0qo2XSubnDLrddcWhrk69fqfSnv99x3ZfZF3qkzGrmZDw/Jjzvu7zkM/zd1pjqE5OOPJyDAfKzHybO4mOaEpo9NxZCuLZStRQpSsuUYTceMQmhT4HDEfLy31XSQYc7ziZaol2ahCKn7/eg57P8wdea7CP9Yuf0JAVmGmnRtWQ9OaSexfVm2MDjhN5w176jUVdm/UxpObl+GrFsm4LcsGxIREdkvGeYsQzj0oc2PP/64OhQju9q1a+PNN99UT+VHM5nB0Fa9y0uyFoIUIxXSW6Gw5IdH6UVtL7KHHdndiZBDbD98Datjr8HBqQIqOd7CxctXcP7wQbRp2ggOnnVw8+9zMFSqjGqt2sDpLg8Yrl3Bhcq1MPeyEz7bexTrvv0eNy5dhNG9Jhza9oShqhcu3TDiasIhpKdcQ1rKnTv+k6FUUndRPodSC6ck6tTobDroSupGSNghD0jGRd13333aNWWXPAb9S1IeW261MUqKPk2PpbFmlugBR0lN75NbXYzcEnJpqOrpe/PmzdVTa+mPTbqm2UL1ShWBa9ezDpnQnLupdn8ApKNJo+qojGu4fjK3yOBxzPxqEV7t3Qq1cR3HftmBzctmYIelHWd37RLyHHRUvZJyF5TbtnwnYbqXpt4wa8bNwGLp5eHbHS+H/Rcbls/F8KxFPPLRGi293ICLh7EhS4s6BRuPnQWc6qFpZschC/UzlL/3qKqcqD00CrAvt6pqmJNFaw+YdqX39ShoEdL78cr78zD8iZbwcLqCY7Hb8c3ns7HdfBKjxC8we+EGHL7igQdDx2Le0vcx9Zn7tcBD49QUD7ZU7onc7hZLvdNyKUJ6/yt4f95wPNHSA05XjiF2+zf4fPZ2mN+8h5uT8gFJxkXtcq48ZEaZNCTnuyEREZF9k+EJ8+fPzxzSLGFGdvLjpd7rYebMmeqwF1spnnpxeatVq5baW0GGeovdu7P/9GUd+bt58+bh4kX7OqDILey4UyGHiNz4O9JvpiHt0nmkXPobRkMF/F2tNqrfXQe/XLgKR+/6qDvoJdTqE4K6oS+gxv0P4OblC0hPvgYXByMqVXLBLe/mcHh4MByr1oIx/RaM9e/D5dN/4tKh3bjwx50dsLx9+3a1l5Q89yXJ5tVlzMMOCQjKcthR2kIOsXPnTjUcCAwMzExucyP3X8bqSRc96ZVSEnJLrnMbmiJ++ukn9VRqdVibfEvtFOmtIgWmcquXkuXX/kK4LilB5UoWexPUVofS3MRN6Z1l2hCVcut2MLwb2tW4iaOrn8e/hozCROUf1XlfZS2uWmh53XbtimrEcVO9k2I3vnprCB7vOgzvfrkDiZVbod9rb2G41VmHE/LudKNcL+lD3Fmlce4Gj6bZCnK6NlWDjotnZdyodfuKO6v8Y+vmgZy7kqDjouQLJlmKkFqhZze0rJqGwxHj8NrEd7Bo2TJs3KH8A5jtPqXs/RrvTByBl1+XYTVp8Oo8HJOHtdCuVaQdxiqZNterM0aN6ZQ1BBE5ipCa9OzWElWVv40Y9xomvrMIy5ZthIWbV1Y4qYFOVpaeOO25zybPp5iIiMhO6TUnDh9Wi66pwxTatWunnj916pR6/Cj07WylJHp0yA9/UkRVhonL8X5he2R89dVXSEy06iiqVJK2gQzXl9PspMEt9Vf0sOOHH36wGHLITC2yD1lsOQtN0oVEXDyyH+d//xXp6bfUYqNHjU746OAJJDcNQqXOA5FyNQXpyWlwrFoFno8+hmr/egWGB59ERkA/GIOfR8Uug1ChqgcybqUhIyMdjjW8kVG5GlKV/V1PK7nhIqWJzYMOoYcdoqyGHaUx5BAy/k4SMukhIVNhdezYMUdaLEU/5cv8qaeeUrcryUQttymtpLZIbl2XNm/erA5hkYI1MiWuORkCFRkZmTnuUEg6/9JLL6nnv/32W3XfluS23lqrD0tPkcboMDH7F2ZbDPf1BP45hq3Sfl19GOqWHSZankVFeobgJq4nmvX4aNsPjXILRgoij9tuO9wXnvgHx9Q7ae4YNi95C0N2nAQqeqJRB211vn7DybNpgEdT9MoyOYgnnmrqpZyexbEflZPft+Ok8u+IV8vQLDOY+IT6ox4u4th2Gfpl3b5+334SV+CFlqFZ9oRQ/3rAxWNQd6Vo8YQ/vJKVy3nN3Wre6q/qpFxMQ9oVs+19eqFpLtOUpCTKsJpVOJys3GWvrAHjlS9mI+zHk3Br+SzeHvMAbh8y5d7LpKqkPGlpyHrzTbMMXflR69ni3zXrQZhr1wfRyLyu2Y/HlGfLCfX8u5rdtsK1Kx7MsiEREZH9kwZ/w4YN1fMSavzrX//C7Nmz8fLLL2Pq1KlqD2J9GLpenNJWCjvVa2HIMbEUXi2vpO0jw/X1QCs7qR0hYcfGjRvx/fffa2uzkkBM9iGLXsPDFq4lXcGVC+fgWEFpwzlWQIX7uqizpzjVaw7nu+9BUuJ5HD1xGQn7f8exNd/g538Px6n/fghD49ZwbHI/HD28gfSbashhdFD2kZGu7McJhsp34Wa6ETeNJTdkyhJ53+slBkqSqUVsg1lXspNxcidOnFArIEvPA6nee+5cQaoB3DmlNeTQyXMplZWlkrAU6pRqyT4+Prj77rvV6bEee+wx9THIuMMVK1aU6Fg7+cdFL/KUnRQUtdSFT3p7/PXXX+jQoYM6hW/dunXVXhqyXq+krVfAliq+EyZMUGdrkcJTn3zyicVhMRKqSAGcAo0LyzbryvXYc6jdKQh+fp3Rrd3dqJhSETUD+mPMhMHw90zB/qWTsfDwddkQ52p3QpCfHzp3a4e7K6agYs0A9B85BkM6OeLb2Kro/UBD1GnUCjVTbsIj6DlMGOqLqjddlX3enmXF8qwrl/DLV5th+j3CRF2v3P6x5d9iZ263PWYCBvt7ImX/UkxeeBgyX824JWswpL0nXNNdUbN5F7z4cDvUqXgGOxdswG5lA89O/RDUsA7qNkrHzVZP4FGPrUhoOxXvjQ1Fq7T/IfqPFBz6pw4e7NAETTs8iKYSdNcKQK9nB6FjPRdc+e0rzN9yCregvD+r+6Oj8rkP8PdA2pVktSfE8529kfpbBMLWyja3rNvX+ZOo7t9R+Q4JgL9HGq4ke6Hz8OfR2TsVv0WEYe0p6SnUCYOfDYDbyQ34cMefyuVsKrdC5wcbwtvLQ/le8kK3zpWx9zcPdO5QD14NGyH94j+o3PIxDH++JdzSXOCSrM1mcv8rePfVzvBCMm44VUXTbn3RoWkNXDv8DbbsPm8268pP+HV/LP5p9CA6tOyABxtdxLYY5b57huLpJxrh2u6PsdY0jcptLTujQz0vNFSe64v/VEbLx5Tnp6Ub0lxckHxsrTqry7UjDmja2R9N/R9Ey6rpuHqjKlr2ehZDH5YgSLmf+qwr147AoWln+Df1V4fRpF+9gaote+HZoQ8r911mPOKsK0REVH40atQoswi/zJwox8r68WfVqlXV4005ldpw8qNYbGysep0tSLHT3AryFxd5vLLIcB05ni4ofdYVW86CWRKzrkjAIb0wJNDIbfiOtFH+/NPCsaJGwg29R4jsw7ywZkHl2ZtHuc5ocEAlVxc4KO2YSvc9hLTWveDUoDkMzq64de4kHL//FKlfzUPa/yLRuoIrWhlv4WLl6kipVguGtBvK3yvvaeW9ZVCaOoaMW3CrXAkVTuzB+bNnkOGYe59eaRvZsqeR9LgfO3as+mO8PJ8HD5pmibQlfdaVEgs6hB52SINcPnxlZcyXJFAybakUHi1tIYdOipJKkRcZYygfapkOSuZ/lvPyBSLTSn3++efqFFElSQ86cgsYcpshRe6nPCb5B0mCDvnSlelj5Ytbpi2W1+PRRx9VC0vJF6WEHHPmzMnsepidfJHmFrhYon7ofbtnm172L+yM/QuV6zZS/pFsg/adgxDk3xiuN49jx0dvYfK3p9S/FX/tjMVflWW7JvBr3xlBQf6oVzkFp2LXY/PXPyClblu0anYvWrQPQvsmFfHnd+8hvvrDWYKNQgUdymXTbddFI+Uf8jbabTd2vYnjOz7CW5O/hX4v67bvp/wj0Artg5TH0b4FqsrjWPwW/rPXNG3vnwfS4dvBH/c2a6fex3M/rMHuKtmmlz2/G9sPp6Fek+Zo3tIf/i0bwVtqXGz/HLMX7VIDFXHtQCyOODVCy+b+CHjwQfg3csSluNVYOG8rMktkWbWvazgQewROjVqiuX8AHnzQH40cLyFu9ULM26rtqeu/8Ky/Ew59vgg/W5oN7e+DSPbyR/OmzREQ0BxOZ3/ED5t+xLmqyj6bN4F/wIMIaOSEk98sxGGPjmikvAZqgKC8ngEByv1q10G5XeUx1FMew/7V+PjDXZB/9rJOL3sLp2J24kqjDgiQsKPeRRxu2BG9vc4iOmwjDmUbuXX+t3Oo2lJ53E3k+QlAI6eT+GbhYXh0lPE3pqADtxKw43AyGinPT1Pl+ZHtmtZIxu6l65Dm54/aeiCj3HbCjsNIbtREeYwtTY+naQ0k716KdWl+8K+dzKCDiIjKpMI0ymRGDb3umxwzynHxypUr1aVOnTrqcb5eAF8CD/mF3xbkmFh+mLM1PeiQBiWDjryDjvwUR9Chv1/zet/K+zpdWSo4VUS1Ot7o2KSK0lbwwxWl6eLoYIABRmR8+S6qXP0bgR37wcuzAdyUtTcqVcY5r8aokJ6u7t+YkY4KjkbcqOCObu4JMMZvwR8XlevkRvK4fVsGHTLjkfwAL+RHeJm22dYzr+hBh+lRTThgfHD7MPVsSZAPT24N0tKqrN1nSYzlwy2VlgvSwLcF+QKzdB/kQy33Ma9ufNLVUIbkSLhhiexXKvmuX79e/bK0RG5HxuDldr0lhfmHlEoDV/SfNA+93Lbj9YnLrKvPUSJa4JX3x6Lp2c8x4h1rZ4EhIiIic4U5Pvv3v/+t9myWxpUUnFyzZg2uX9d/ijH18pDhLHqhUpmBRYa4FDdpS5RE0CG/nPfu3Vvt8V2YEEF+gZdj5smTJ2trip/8IKu3rWz1I+zgwYPV9kNRbkNmDpXGuXj//fdx5swZ9XxB5fe+1a+Xnkb3dAjEc3WNuFyrKXbc3R1HEs7B1b0KUndvxt3ffoQH23RDhjEND7Xywhrnuthc9T5UQbo6Ba1zZTe4uFaCX+petP37a7z79TGcuZQhN5Br0GHrNo/UkZS6i0KColmzZqm3aUvbH1wEzG6hPaoSDjqofJF/WHJLQCXNlfQ8P97e3uqwJ+ndISmwfNFI7xrpxaIPY8mNDNmRpSBs/aEnG/F8BjNnPYjkDaMxPa/6HCWt0/8h/FkvHA57FR+wKwUREVGJkGM5mdJSepR/9tlnuRbXlAZm9+7d1YBAasFJccriJj/uWRqyXdwkTBk2bJjaE7qw5DmQuni2UhJBh/TEkACrOEi5BZl2OLdZI/NjVbtCCyO8vGpiSPO7UKNCGlLuC8JR786IPWvA5VuAa9Ry9Dp9BF173g9XN2DctaY4X6M+nNNS4OpSAXWdkxGYvg8Nr+/Ee+tOYv+fN/MMOURJtHmkV5WMOvj5559LpE4kgw4qUVJcNLdAws3NTV1sQcZaSm+OwnyAGXYQERERlQ6FOS6rVq2a2jtYfhizhvz4JsXwCzvUITcyVFt+qCMTOe6X50PaBwX9MbIgpCeP/FAqoUphSLAhvXu2bduWpRdQYRTk/Vu7UgUMbO+Nas3ux8XKdZCakog9GS1x3FgLDQ7H4NlaydhmrI1t1XxRKeUc4OAIh8o1cM+1XWh+YQu+2fU3jp9PVYe8KLeq7TUne23rMOigEpVXrw4h6XNhv4RyI19OcpvyISYiIiKisqssN8qk1oOti5BS6WfNe1jfxtnJgKptugP3dECnCjG4z3AQR281wAmH+ki6mq60mxzglvo3fq8SCMca9ZFy4SSSf43CP3t+hKP6VpP2j/2FGNZg0EElLrdaHTpJuyXwKI5/CKQnh6TERQ05yvI/qkRERET2oCwfj5VUbQ6yJ7dDCodK1eDqfS+Caieilec1VFSaSRVdKiLtejI23uqMI6l1cOvYL0j58yAyUk29TsprTw4dgw4qcfKhyq8oqIQcMoarsPOMy23oNTmK6wPMsIOIiIiICkqOZ2U4DI8jydydbFvIbYvyEHSwDxWVGPlASYiRVyEmfbiJ9MZIS0vT1uZP/k7CDflbKWxUnB9efV/6FwMRERER2V5ZPvaSH+8YclBpVF7ekww6qETJl74UH8rrAybXSeFS6f2hBxe5/UOnz7/9zz//qEFHYashExEREdGdZ37MV1YbZHK/GXJQbuR9cadCvPL0nmTQQSVOuvFJFWxrhqdIEVOpcvz333/j4sWLORaZoiivuh/Fif9YEREREdlWWT/ekp7LJTWVLJVd+vucPcZth0EH3RHy5S9Jd8WKFbU1RERERERllxzXyo95nGGFSgsJUsprmMJPId0xkmRKzY7KlSuztwQRERERlUlyHCvHs3Jcy2NaKghb9uzQ91le35MMOuiOc3FxUecXl+ll2X2LiIiIiMoCOW6V41c5jpXjWaLCskUYIfssz8Ebgw4qFeRDKEVKpbufdPsrzx9KIiIiIiq95DhVH6aSX5F9IrozGHRQqeLk5KR2+7vrrrvUfzgkJZeipTLWkf+IEBEREVFJkuNPqS0nx6NyXCrHp3KcKserctxKVFLMe76zF3z+TC3HCQeMD24fpp4lIiIiIiIiIiprtj+4CJjdwsAeHURERERERERkNxh0EBEREREREZHdYNBBRERERERERHaDQQcRERERERER2Q0GHURERERERERkNxh0EBEREREREZHdYNBBRERERERERHbDoP5/wgHjw3vHqGeJiIiIiIiIiMqa/7V+D5jdwpAZdBhnNVfPEhERERERERGVNYbXD6pBB4euEBEREREREZHdYNBBRERERERERHaDQQcRERERERER2Q0GHURERERERERkNxh0EBEREREREZHdYNBBRERERERERHaDQQcRERERERER2Q0GHURERERERERkNxh0EBEREREREZHdYNBBRERERERERHaDQQcRERERERER2Q0GHURERERERERkNxh0EBEREREREZHdYNBBRERERERERHaDQQcRERERERER2Q0GHURERERERERkNxh0EBEREREREZHdYNBBRERERERERHaDQQcRERERERER2Q2D+v8JB4zGWc3Vs0RERERElLvlu4xYvdeIuJPApWRtJZVq1d0A/3pAv9YGDGpvagIVVcwvcdi7/wBOnD6D5OQUbS3ZCzc3V9T3roPWrVogsJ2/tpZKO8PrB4HZLQwMOoiIiIiIrPDrGWD0V0bsOWHU1lBZ1Ka+AfP+ZcB9dbQVBXT6r0R8GfktKlVyVRrAbdDYpz4qV6qkXUv24tr16ziacAIxv+zB9espeDKkL7zv9tSupdJKDzo4dIWIiIiIKB8ScvRZkMGQww7IayivpbymBSUhxwcfL0Vgu9YY/vwg+LVsxpDDTsnrKq+vvM7yesvrLq8/lQ0MOoiIiIiI8iE9OThMxX7IaymvaUFJT46+jzyMB9q309ZQeSCvt7zu8vpT2cCgg4iIiIgoD1KTgz057I+8pvLaWktqcshwFYYc5ZO87vL6y/uASj8GHUREREREeZDCo2SfCvLaSuFRqclB5Ze8/vI+oNKPQQcRERERUR5kdhWyTwV5bWV2FSk8SuWXvP7yPqDSj0EHEREREVEeWJvDfhXktZUpZFl4tHyT159TCZcNDDqIiIiIiIiIyG4w6CAiIiIiIiIiu2FQ/z/hgNE4q7l6loiIiIiIbnMfnaGdo+zq1QBef8SAgQGmZoUtnPwHOPGPEcNXGNXzxS1pnnW//b4y/k18MOdt7RKVV3wflG6G1w8Cs1sY2KODSq9dM2AwGGCYFqOtoNIi8YsQ9bUJ+SJRW0NERETlzUONDTgwxUENOSSAsNUiYYrc1sZXHNRTIqL8MOggIiKiUksaOcMjjOj1QYZ6nohKjwk9TKcrYo1oMTXDpsus74xq4KHfJhFRXhh0lCWnIxAiPRyKa2FPiXLnxp97sXrpJIwc0AVdWnpleT94tVTWdRuKce8uwepd8bh8Q/sjIqI7RIINaeBII+qno0BPC2GHXP7pqFxv1NYQUUnRe1dIGGlL8jlf8bPpNurXYI8OIsofgw4iu3cZx78Lw8CWXnBt6I+Q52cgfFUUog5kHXaSeEBZt2UJwsYPRUhgM1R39cKM3dqVREQlTA85xEONkdk13jzs0Lfp9YH0+DCqgQiVXmpjVXmN+DrZF/3zaGtyO7JIrw4qn/65dBl/HDtepIXKDxYjtTdS1yJwEvDECpxdGQpPbXWZpD+Wt3fCODlQW0kF8udqjHt+BMJ+lFDDE759QjBi8EAEB/qioWc1uJi20tzA5ctncTwmBlHrViB84UYMiTHijfba1WakRodX6Gr0iziLyKfK9LuMiEohPcAQEnJseMX0u4z8aiyNZGnoyFj9n/4wZvkleWGobQsiUtFIQU81sPrbiAfvMagFLHXFEX7Uu+t2D4PixmKklkkRT/PPq61JPRD5/Bf368FipKXfd1t+xEZlKaoa1ath9LDn1dPC4vugdGMxUiI7d3zdSHRoGKKGHA2fmIsfTh3HoW8XYMTjgfDNEXIIF1Sr1hCte4Ri7IcbkJByFkOUBoY9uXF0I8Je7oWhq1hElai0yi3kEHqQIduoPTsuaVdQqSdDi+T1lNcw9P6sYcSs702BVVEX6dVTpnkY8MtcB/yvr3ZZUT/UAaemGjCjgbaiGCyY6IAkZZ/PKOfrtzHgp7EGPOFhuo6oNIrdvVcNOSScCGjbutDLPY0aqr1C/rtyjbZnsmcMOojs0PFVQ9GlbzhiEIgREYdwaOVYBHvnjDby5OIJTzs78Ln8yxKMW7gRl25pK4jKHCPeHZ2BpzeVUIPuQAYenpyBVWe0yzaWV8ihMw87pDihvTqxRnnuw4w4oV0uMb8rtzs+Ax//rl0uJlJX4YS8Zt8bsf2YtlIz8H4DXu9R9EXeG2VZ/Y4G3OukvPZmz/2L3kBV5d+szX9qK4pLKrBMOTmhnKbeZUD4iwZ0M11TIqRXBntfkbX+SDB9AHp27YynBzxepEXCkr//YUpeHjDoILIzN3bNwMABS3AcgZj+00YseMrXQu8NIqL8nfgD+DkJqFUCoac1IYfO/oeoGLHtV+W5rwBY1bn6nBFPj85Qu/Pnt3x7UfubXJw4pNxuGnBvMfYgENKwlaEq9aoDDzYyndfp1xV1KevvidfuVf53xoi39aDDw4AgL2D/IeX9oK0qdgeMeDjCiBM1DJgRqq0rATIERV6z8ukCNs19E6/M3Qb2Ly2Yogw3EfrfS68Osn8MOojsybUoTHp8EmLgidCIFXjjwaL9g0BE5ZkRP8crJ3UMaOpsWmMrBQk5dHYddiiN3W+V5wQJRtS1EFbIMmSLWW+WmkD4NANO5bEsqaNs5wrUzzO0UhrU+5QT5aXoM97y7bovKXwvGnm99IWyUZ6T7rWBzdtu9+Lp1seAVunA/pMGPNEu96Vjtte0VQvL2+nLlRRlI0fcXqe8Lz5Q3k8r/zBdbmXaDVGhJR3agPdmfYOD2mVbkSEtshBZwqCDyG7cQMx/xiEsEfB8bQWWPNVQW09EZc6vFhqY6mLENOXqbzcaLVynLDONOGfaQ9ElKQeRys463gMo7S+bKUzIobPXsGP/NqXBqzQ+/2chsDj1hGmbpl5mj9vBgKrueSyVgT/PKq/jvXk3Ym/8asTHl4G5L1u43YkGvKhs07GGaVsqXpM7GFD7nBEfxGorPAwY76ucOgHPPG3AkjyWcS1Mf6J7oa/l7fTlFemto+zffN2CngZM1s6/YNoNUaEl/5WA45duwNYjhaXWhixSqJQoOwYdlMXlw1GIeHckQrp1gI/BAIO6eKFZcBcMHb8EGw8XsavXxXhsXDoOQ7Ps3wcdug3FjC9ikHhD264IbP4YSqujKzD9TUm1+yFsVPAdGa5y43SM6bkP9NGedwO8WnZByMvh2Hi0kM+78p6J+iIc457vgi4tvTL36xMYgpHvrsbefLphE5VJvhYamtrymnJ1306Wrzs1uhhDiT+NWKucPNHadkFCUUIOnXnYIfUfZJ9lmtLYfVdp7PbtbMD9FkKLyxdMm7WqZzq1yh/Ka6k8zQOaaZctMmLdeuXmfQz41705b7dqihEyouL+euyNUeyUz/OLDYArScgcovLKAOX1V07fnZYB9zVGXFHOL7MUbipLn63qn2RxRXnNLW0ryzh5IZOMGGLhOllGmnZBVGrcpQ05uatGdfVUJzU3hBQqZdhB2THoIJM/N2LGAB9U9+2CgePDsXpLIjy7BiNYXRrixo9RWPLuUPTyrQ6v4HFYXeCiWJcR824IfGo2Q6/nw7Bky3G4dNb239kFx7cswaTQDvBq2AWTthSyQWzzx5A7qYvRQRrggTOwtwBhTWH/zpK9a8KxUTltPWcSQr1N60rMreNYPaYLGtbtoD73O6811J73QLgeiMLqhSPR6x5fdBmzEdbOYH5ZZkgJbQYv5T3TJXQkwpZG4XjlZtp7xhcpu1YjfHwI/Gt2wMh1lvcq0+DqwYgauoSuVtevDr0dmNxeQhBxWr2a6M5zstDQVBeZH0nhBgvXKUul4muE7j+kNHpdlQZ1Mddq0BVHyKHTww7ZpzobS5kNO4zY/KUR31YCXutq6bU04veTykltA1op7wVr7d8L/KqcdvTN/f1xI9aIieeAyY8q7yNtnbkryu1KI7xVfdPlwuilvDbymsupzMJCwoCvu2R7zpX38qh7gd/jjJhmgzBfeu1ITxFODl8G3LqE3Ws+wYypb6tTmr4y/m2Mn/sJVu2zXEwz6dgOLJ4/E2O0bd/4cBMOXv0Vi+Xyf5Uv9WxM28/BmAmyvbJMmoN3/rsDx2V4k5n9/5Xrv8R+7fJtWr0Rfd/nt2GGsp8ZmyWRPWS63VxuuyBkxpSpr4/JUaND1jPsoNww6CBc3jIJHRr2wqRVKQh+YQE2xF9CijEBOzf/gB/UZScSjEakHN+Jxf8OBn4MQ0hgF8zYbmUgcS0eS57xRYfxq3G8cT/M3XgIl9LO4lCUtv+oQzibloKEqAUY4nsIM7r5Y+gqa5vDJjZ/DPlwaT8WYZNbA7smYcRCK8cK3tiLsH9LPY1ATP9gLFoXqQvGXkRFyO22xsCuyv0oSbeOI+L5Dgj5z3F0mLMBhy4YcfY38+c9BWej5qJf40RE/acXBk6LQb6Zzu4w+N/TC+O+iIfrE9OxIiYBKWlGJMRo+1XfM5cQFzFCefZiEN63A8ZtsbDXynrgoi0tTId1ni3M1mUuDVGtgno1ESkN6uh9+Q91KCzzkEMKURYl5NBJ2CGBSVkOO05sMmJEAjBZeSwNtmeg/4dG/G7e4EgFtinXd/QtQM+dDO21bGFAUG7hSIrSoP4SqN/OgAEWgy0j9km9FqWN0aqQhWn1YGOj8lo/eI8B24+qF1UrYo3q+6GoiwQoZe11f2WkAd2cgZ/1QMPDgHUSNp0z4o0vs4ZB1fSaGmZL9vocuZG6HX3v0S4o+77iaoDUPlXJtLb/yTqtLZUCKYfw+az/4PPYS3C9rwueDe2PZ0M6ognOIjriP3jnf1r3Lk3KgS8x/aNNOHTTB91DlG1Deymf+SNY8t56HNG2MZcYtRBvqdvXQ/fHZfv+eLxNdSQd2IT35nyJ/dnCDqtUbYbHZD8tKisX6iJI7rMsQQXpgpaTBBy5FSJl2EG5YdBRzkmPgp7dZiDGMxhvbI7HDx+PQM+m1SwOe3BpEIgh7/2A+M1vIBhRmPRQT8zYnV+TVWkEvxyMocsTEfhKJBLiIzG2h2/OBmUFFzTsPAKLlYbxikEpWDJqElZbmXXY/jFYwwWB4+dirNKOjhkzCUvMDuBys3fhCEzaBQTODMfYtkVKOYCjcdgoBeT8BiLYz7SqZFxCzKyBGLglGIvjDyHytZ7wzXHQ5QLPzmMR+csPeEO5bzFvjkDYrnye81s31FBsQcwlJKx8A6HtG8Ilx3umGlo/tQAbN46FJxIR9sx0RGXbrWefuVrgYlpWTOygru8wcUWW9aZlLnry5y0qdYz4YGIG3t2Ty6/fqUYsm1f8U4HKsJXNykHuM1nG/huxf43S+F5VtF/izUMO8ZDS6C0u9e4y7asshh03fs3AkI1AUE8DXlMapfBSGqJnjWg3OQMfaK//lVjl/aCcdmtm/XN2Q/nb+cpr+WKAfBtbkGHEqg+U/boCYU8YLG+TCkQfBjr6GVCEDh0qCbZk5hVzJ7Ufp+X1Ksoi09fK/suKbqEOmHwPsG1TBg6nayuVf4c8lc/1tI+Vz6C2StfXrKaGvsx9WLsym6rK5yppnkPm8tMLBoR31943+6WfLVC/i+miFD29N025HztNl4vLQ42z3gfzRchrZek6mZFF/rZ8u4X9kd9g93Uv9H51PMY8/gDa+t2HtgEdMXTceDzbwgWnN3+NKBnTJFIPYcWqQ0i5uwvGj3kS3QOUbf3aoPvTr2D8A9WRI7M4vw1Lvj+LCvc9iRnj9O3vQ/DjL2DGqx3heV3Z3zpL8Ug+nGuiubKfZncrXyiogiZyn2WpJ8GH7TDsIEsYdJRnp1djiDpDRyCmr9mA6V2tm6GjWtfp2LDqDbRW/nLSK+HIq//C8eXjMHB5IjwHrcCK+f3QML9fzCs0ROiHqzG9QQRGjFmgrcxDCTwGq1UOxvRl0ujeiKETI/KeMmxfmPL4YoD20xH+79aWDywLIHFvFKLkTNfWkNplJeXymkkY8SaU534JhjTN51FUC8a4t0coz89eTFoWpR5k5cq7Hw7tjcSI9vm/ntV6TEL4YOVM4gysLuywJ6LSSgKH68qpcy4H/c5K4/cssGxvtvChANONui/NGVyc+900TCHoPvPbNaCB0kDdvFO5T0X4qEkAIWzZIDXv2VE2GPHrAdMv9npjVBqqM9404GvlS33+MiP6LMnAx3LsrjxvfTN/is+PESs3Kq+n8jcDsryWZpTX8s9bwJJXHNAql9l1pEjpMuWpfOL+wjc+peEqQYSEXFJLxTzskGlGpXFrqdFbkEX2UabI5/cPI0b+oF0WB4xoN9WIDywMWbFUo6Pdl9qV2WSt0aHN4qN/HJR9/6l8rzT1UV5PrejpiXjbDJPJHkbpiy6v68q11P2I+fUGXP27oHuOH2Fc0LZTG7jjLH7Zo6WEf/yq9sBo9XBHeGb7GHgGP5CjZ97x2FjlONULj/RpJpMxZeXZEcHKd0xK3K82nzXF3PyPlpqGuRRykaKkOgk7/jhWsN7hZH8YdJRbNxD14QhEKK3xwPfC8Ub7gjW1XR6chLmvKd+8u8Zh+he5NOkvbkTY+NXKF+YILHkvFFbPAVI5EG8snAuvxPxmFy+Bx1BALl0nYclwZZ+rxmL6utxaAsexZOI4UzhT5CErJmePqjEHgu9pWOTQpCCiVq2GSwGe+2pd+2GI/IO9MApxeXXq8PaFr9XhfzUEPz5CPRf+U1z+w2KIyhA9cLhf73KegwFBfsCv+4zYb96mrwa89owB66xZOmt/k8mIWKXRjWYGBGRr+FYNUhrfyrqPfyx8r476SqNb6mksHFj4RnN+JvQw1ewozt4itmXA/aEO+PrpbD0qnAzoNsQB/3tcaXT8CkxTGoHPdLS+V4XU3ZC/kR4Z53Lrhl7DgNcmOuAJL+1yDlpYUs+AR2WK2iKQIEJf7HG2nILavDQD9yy4PZ1s8TDAM0fLVfnsKusSL+ufWyOizwG17wZmPKm89zKM+Hhd4T/TuZHhSuZDi8wXIaGGpetkKfc1XK5cw9/KyV0eNU2Xs/P2Uo+rT583DV9JTJTTmqhbS72YlUPOXxmTlP3DoSZqWyrIgwpoWLc6kHEBp20QflnyzyXTMbM+RKWwC5E5Bh3l1cWNiJilNO49lQb5C4Wp6eCC4Beno6dybvXSDRYLTB5fF45w5SZ6vj0WPQs6ptevH0b00M7npgQeQ8FVQ8+J4Qj1TES4su8o5d+R7KSXy9DvimnIiuZGiimo8axm4ejGpoZg3KACPPcu/uig9iyMwt7D6ppiUa1lB/STM0cTcVZdQ2QPcg8czLVSPoL3KY1YGVqQydmAVm0M6GjN0iBbgzNJ2ddJ4EVf+ZbMxsGAvh2UBlq0EduUxnNhSD0Oqadha3IbJXE7JaF+oAHd5eu9EvBCkJWPSau7gTrAE8r7Y+AHhZt6WA9LZvSwXKSUSo6lGh3dLJQ+cHYCLmeGGpa9q3xf3KhhwCv3AD8rn2dLPUjoznOSFzMPrk7mIYYLXAtyGOhcQWrS5qECXPP4t6c4SUgx6qXBasHRwi760BUh5+9pZPVPrGSnGHSUU5djorBEOfV8OQTBhR021zgY/boqp1siEJWjJsVxRH0hc4D0RL/OhfmiaYjgx4O185bZ/jEUknc/hM0PhWdiGMbNyVZ4888IjHtmdbENWTFJxHGtgdOsbo7+jbb1RDA6FCjEqgYv9T7uxY3i7Hrh6WnqMbTmeN5DhojKkjNGLDsJvOZvIXAwd68BL9YA5u8wFkuPpiv7jPhYOe3mZ7lBXV9paD+TAayKKee/uJYYI36OMGJaCjD5SQNaWXPkptfdUM6Gv+iA8KeB2sr7aeKmAr5mZ40YIWFJMwNeyHNqWioJlmp0zHhQu9KM9Oi4LEPezMi6RPOk608jzknHCuU1ltowVMpUrYy7lJPEM3+ZLmd3+qz6A52np6kLh5Paa+MS/rY0GUtqCm5pZ3Xuyv6Rchan9RofWdzC8VPKjlxrwrOKaU3tWjLW7BaSswfcGWdx6rx2/g6SYSoy9EVIyCE1O4gYdJRLNxD3U7h6bmD7onwRNIR/Z2m0RmFvfLZhGol7EbVFOe3aD8GNTasKyqtBXvetBB5DEXg+MR1hTyjN+WljEZZZ7DQRq98ci9XFOGTljmvZsMDT03k1MBUEjTtejJGEiyuy1bYjKvP2bwM2K42Tvm3y+wXfgEc7AucOGLGuMD/ZZ6HNruFjQEBuM3RUA55oASzbVtxd7iknI/Z/acTAfcD97Qx4Jbc6G+YyjNi2RGm8ngEmDzagm/J6uSjvoffuA1Z9b8Qqa7u9pRjx7gfK9sp7cMUzuRQpLSAZjiAzrMgpazEUnMUaHRHalbog5RhEOTl3Wnm/9DT1+nhRef2krMuJzLlBDVgQYkB9KYBaW9nO7AeLuSMdMDdLEWK6I5xboW0zqZPxAzblOFy6gd1b9yDJoQmC2pp+6burqQ/uwjXl2HtPtsKjt3D8++gctTYatmmlbH8W3687lLNQaeI2RP2u7PP+ADTRVt1VXYbQHMH+X7PG6Sl7frUw5azuEhKLsadQbjU3GHJQbhh0lEtnkaj2XugH/3uKduiiN1p3Hs325fNnPNR/e9s3M/3SXgguVfJqupbAYyiShgids0K5d7eLnV5eNx0jZPaZYhyycqf1a3wHugVeu4zEwzGI+i4C4e9OwsgBXdDhng6YpF1NZBfOKo3MWKBvZ+t+wa8aoDRWlO3mbSxir45UYPMh4EXlODFzmILS4L1y0Yif9yiN3lUZmDbPiLl/KOuVhuq3yrZkI1pg0T8GqO9nwPqnrQgb0oz49kMj+hwAXgs14LXMYERqgCjvEeXcxOVWDGH5x4hpM5XlJvBf5Y11f0G6w+dCgo3hK4zYfgyY/Z0RP/2RtXeJBCBFXcp9XQdFx0YGVFU+s9t+McLTV5uZpQ1w4oDynaI2Og1YMNGAZ2oAyz5TPtdpwKOP3w7QXNyBf1k7PIqKJvUsDu37FbuzLQcTpf9FBbT915No5XoW69+fg/fW7DBdH7sNi+fOwefKZ7zV0/3RVh9acncXPOGvfEP8vhZT5m9AlLqvHVi14D0svuqVGVhkurs7hnXzQsqvX+KNuV9iU6zptqPWfII33t+GRGV/w3rcLtzjdN/9aFsJOBi5EIv/t0fbdiGm76iAVtL1JBtP77pwVY7Vf1i/Tdl2D1ZFFWIGFzNSaFTCjOxhB0MOyguDjnIpEcfVwsQNpcd/kXg29FdP917LemideDxOPQ222VAK2z+GImsQirkf91SLnU76TzimvxiOxGIdsqKrBs8GpnPF2kuilLhxei9WL5VAowN8DAYYqlSHl28HdOk5ECPHz0D4qigkegQWOlAjKo2u/G1ENeUY87WuVjY4XA0YEKQ0UFrkM8wlDzfOGrFskWm4w7YtSmN5vPar8QQj6k4z4uEvlOsl4FAOal/4l9KIrgZ8tY8NS5u4aMS0Kcpr8CvQvYsB6wdbEXLI37xtxNPHTCHH5OzFPpX3yKhHgHNnlAZvdC6vW4YRv2/KQB/l9V6mXFw30QF9cy1SWjAn/jGqhWilbkro/YbMKWWFzMIyPKLoS68Pyvv70YBnvJXP8jmon+M3wm73/Gj5iREnPAz472RTyPHtNxkYeUB5z+wDajczYInai8OA+u7KEZbyWlEJuHIIayK+xufZlm8OaB8O12YYOn44Qv2r4O89m0zXr9mG025t8Oz48RjawvxboQKaPzkGY/o0w12X9pj2+/XPOFXnEYwJvS/nzCoKz4eH463nHkATJGBTpOm21/96Cw17PYcZo7LN3uLcBM+O6o/Au1NwaPNafP7lN4j+R7l/L3VBXUdtG3NNH8GzgTVx6/APyn43YF9KMaSlFugzrTDkIEtM/wpOOGA0zmqunqUybtcMGAInAU+swNmVobkMK4jBDIP8Aj4dO41vIFBbWyj67b29E8bJt/eU+EUIvEJXo1/EWUQ+VcgkIpd9m9j+MRSPvQgL9Me4XXI+ENN/icIbNujNsXeWF/wnJqL1e3GI+7ftv+iL8vpa/beJUQgbNRTjVunpfUMEdm2IZn490bq1L3wbKuebNoRnNXk+rXs/FMv7kuiOUhqpo43Y31NpsGjTkBabPRm45yvl+FQ5Hr23HtDE24B7PYAG9ygNIaWR7JKtat3+LzPwUCzwvzAH3F+In03k13dpmKozsBRT0VBp7Mov+xteMajTmZY5F41YtlJpfP6unFcanDOfMeCJ/GaOkXBiixEjNgInlL8JG+aAvrnNjqJs+8EkI97IUF63qcrrpv8arKw/t0e53W+BZUlAX+U1CX/SgKrF+HOYvN7So0Ne7+1/GPGg8rhkWlkhvT1W/Fz0xrVMWWur2VwkLLClBRMd8Izy+XafaeF56GTAqccNWKvch5HaKkvq93TAL92BXzdm4OFN2kpNqyDlO6OvAfVvAR+vysC4PdoVZj08tinvu4AWwLoPMzBE3oNWkGl99dlTCkL/fBa0F47M2CNTUxf36yGPwxoyjekHc97WLpURGb9i8YSvcSTgOcwJ8dFWli0SaMTu3qsWLDUvMirrpJBpQQqPTpn1njrLS1FexzL5PihHDK8fBGa3MLBHB5FNtUZwPy148AtGcNPiDzmEV2NT4da9f5xF8VUauXOOrxuJDl5dMG4V0O/tFfgh/hJSjAnYufkHLJ4zFiOe6ong9r5ayEFExaKNA/6Y44B1SgN47hAHvNjdNCtLffecIYdo1Qzo1tSA2mnaCio65bn8+TQw6kkDdiuvQ74hh1CO5K5cAJo+aPqbXEMO4aA0aB9RDtI7G3Cv+Wuq7CM2GkjxMeAnZR//DS3ekENIw1amFJYwQnp06CGHkIarXC7qUt6nrG3grLwXzhoxLVvIoXIFblw0Ytxc85BDGDHyYyM2XwU6tlD+/ncj3rYy5CgKCTg41KiEHEmADBzRC5faE+nFwdlVKDcMOsq1HOWHyqDS/Rhu7J6BEeP3wrNxQ3jum4Gx/8k2C0sx8WwdDDXqWBiFOFvcQAmS52xg33DEtH8DG84mIHJyKIKbVivm4T5EZZUBr81TGqLF3ZujMO5zwNcvGVC/hKYfLBe8DFgw0wGvBBYkaDDg/qcdsOAJ6/6mapADZijvn6zbGtB3rAOWDDagVTVtlQ1I2CFhRHkPJCwZOTPDcm8OsdWIuvn05hDb1mTgntlGbNMum9u/yYh2ynUfWyoOedGI/lNNQ1zu+ZBFhu1KxgVs+j4OKWaFS4nKCwYd5ZInPGVKVcTj+Gl1RaHptThaV87WDK1gury6WAt8miuBx1BUN/Yi7JVJiPEcgSUxOxE+yBMxb45F2C4bJBGN/dHTT86sQFRMWU46ErF6jvKcoTXmLpyOngUYXWIPsR0RFc3Jv/kLMRGVRxewacEHWPTlJq0Q6a+I+d/XeG/GB1j/lwuaPNr9duHSMugeH1MxOhnCUpRFH7bCeh7lA4OOcskLDdVG8Woc+lNdUWjHj+5UTztkm33Ds6424f4fZ5Wma+HoAYRltn8MRXMDMe+OwKRdngidPwk9PTzR7+0w0yws/w5DzDVts2LTGv1G9VROEzFj4epCP+d33OkoRK5STruOQD/19bXSn8chM2ISUdkhv+7LkAWpqdHrg4wiL1Ij4KejpmEQZbI+BxHlSz7fZEl1NGxWHVeO7cF6rahpRNQRpNwVgNBRo/BKoEwPW3ZJMNGza2c1pJC6HIVd5O+lpkdAm4IcZFJZxaCjXHJBs9b91HMbY2Ti08Lai52rpUndDx1aZ+vr2rQ1Rsjp8p04VKgOBjdwaO9q7bwlJfAYiuDGrjCMfTMGnoPCMP0JrVtC5iwsk2wyhKVhnxEYITe1aizmbimjvTpOH4f6qvs1REEK/V/+bafp74ioTFFrNigNFwkoirpIQUTZl+yTiEqG1NmQz53USLE1vWixhKOUXQU0CX4a//fGRLw35221UOYHMyfijZd7IdDbPoas9OjaGVNfH6MWJC3KIvtgXY/ywfSNwVlX7IdVs64oLq7G0JohWOL5Bn44Ph3BhRm1sS8M/q3HYa/F20pExAAvDFzliTeijmN65wLewI0oTGrYBTMkg8htNhSbP4ZCuhaDSQ91wIx9/bDieCRCtalfTfRZWAIxPSYKb7Qv3uEyxz/pBZ8XNwKeY/HDH3MRbKN/22w260qhZsC5jNXPV0eIOo06Z10hKoskpCgO/LWXbMXWs66UVfKZk5lQRHF9ji0x/2zLbE3FXcjUrmddoWLH90HpxllXyjuPngh9XWnoJc5A2PLC1NG4jI0fz1Wa7Z4Y+0I/CwGBJ3o+NUQ5LdxQiuPLw0whR15s/hgK4wZi5ozAjH1Av2Vzs4UcojVGfDBdaYjbZghLwxcWYMUgeU7CMLDvDBsMkSkhBRnytG8J5n7nWUyvHxHdCdKIKY6FiEqWPrWs3rPDVovcjiy2CDmIyD4x6Ci3XBD8cjhCldbhxhcHYkYBC2Qe/2IEhixMVIdmjOhquVdCtcdHYG575cyqsRj7RQGCiD8jMO7FOIwYLkFJXmz/GArqxpZJ6DdtL9BjMeYOstwtzqXtWIRNbm2jISwNEfrhakxXnvfEH5X70ncSoixVWC+tMoc8bcROa+73tRjMGD4O1d+ejvzeLSqtSO7layxdSkREVBz0AEJ6vdhqkTBFD1SIiKzBoKM88+6HsA+HKE3jGEx6vBdmbL+sXZG342tGYmBoBBI9QxH2dqjy97lRGq3/kd4LiYgIHYhJW/Lf/43DSzAwcCB2DgrD2FArxs/Z/DEUwLUoTHomTHm0PbF4vtyn3LggcPxcjPWEbWZhqRyIN9b9gDfUsGMGurTsgnFfxMO6Z+a2y0c3IuaodqGkVAtGP+mlgyWYPj+fEOhaPJa83A+TMBfTX2gGV211Xjzv8VfelUBUzN4CPx9ERERERFQ2MOgo5zwfX4wfViqN8kSlkf6QL7q8GI6Nhy01AW/g8uGNCBvgA59+4YhpPAQrYlZYGJqRlUv7N7BC9o8YzOim7H9MBPZezNl8vXExHhvfDUEz36GI8p2O1R+GomEF7cp82PoxWOcyNo4fiLBEoOfHCzCksbY6N5WDMenjEfC01SwsHsGYvuUQVrwSCCjPS1hoM1S/pxdGvhuBqMOJuGzh9m5cvozj+zYi4oNxGNjSS92+5HuDuCB4zBK1qOreaR0QPEreL9pVuluXEf9dGEJaN8PQP0Kw4YuxanhhFb9gDJReRkunY9KqrL2MbpyOx3GmH0REREREZR6DDkLDJxYj7rcVGNsZiPpkJHr5VofB4IVmwV3QpZuyBDeDl8EV1X17YdyqFPg+tQBxvyy2OiBQ9//LAvRrnIio/wyEf01XGO7pYNq3sjTzMsC1ZjP0Gr8Xref8gL2b30BgAYto2vox5CdxlWkYDNpL7wLr+odU6zMJ4VJPw0azsKCyL0Ln78TZmMUY20O5T0c3Inz8QHTx9UL1Kgbl+cm6uFavDp/WvTBwVBgiDrgicPB0BHpr+ypJHj2xICYSI9oDMR/I+8UAr5Zmr6NTdTTrOQ57Wyuv4XcL0LNAr6Hey2gvwgf43N5vSy+41p1UdmuaEBGRTVV3086Q3SnIa+vm5opr169rl6g8ktdf3gdU+nHWFTJzA4n7NmJDxEZE7N6JQz/GawUhGyKwazA69AlGyOP9lMZvIetZyC/xW1YgfOlqRP0UhXh159q+n+qHIX16wtdD3bIIbPwYyrAbp/di45Yo7PxpI/b+cghRB0zPjPBsEYxmXg3RumsgOjzUAcF+vqh2p5+iW4mIWbUCK9ZEYuOqGKj9LxoHol/XEIQ8MxCh7WWIS+Hc+HMjwt8Ow5LvTO/Dhu37oWfoCEx6IRie5e+tQURE+Xh8YQZ+OKxdILvSpSmwZrh1v/1+uHgZOgS0hV/LZtoaKm/2/XYIO2N34+Whz2hrqLTRZ11h0EFERERElIflu4wY8QULYdqj8KcMGNTe1CTKT8wvcUpD9yCGPz9IW0PlzcJPl8OvZXMEtvPX1lBpw+lliYiIiIisIA3hNvWtawxT2SGvqbUhh5DG7fXrKdix6xdtDZUn8rrL68+Qo2xg0EFERERElI95/zKwVocdkddSXtOCejKkL779/n8MO8oZeb3ldZfXn8oGDl0hIiIiIrLCr2eA0V8ZsecEh7GUZdKTQ0KO++poKwro9F+J+DLyW1Sq5IrAdm3Q2Kc+KleqpF1L9kIKjx5NOIGYX/aoPTkk5PC+u/A14qhksEYHEREREVEhSM2O1XuNiDsJXErWVlKpJj04/OsB/VoXbLhKXqRmx979B3Di9BkkJ6doa8leyOwq9b3roHWrFhyuUoYw6CAiIiIiIiIiu8FipERERERERERkdxh0EBEREREREZHdYNBBRERERERERHaDQQcRERERERER2Q0GHURERERERERkNxh0EBEREREREZHdYNBBRERERERERHaDQQcRERERERER2Q0GHURERERERERkNxh0EBEREREREZHdYNBBRERERERERHaDQQcRERERERER2Q0GHURERERERERkNxh0EBEREREREZHdYNBBRERERERERHaDQQcRERERERER2Q0GHURERERERERkNxh0EBEREREREZHdYNBBRERERERERHaDQQcRERERERER2Q0GHURERERERERkNwzq/yccMMY8dl09S0RERERERERU1gR+UwmY3cKQGXQYZzVXzxIRERERERERlTWG1w+qQQeHrhARERERERGR3WDQQURERERERER2g0EHEREREREREdkNBh1EREREREREZDcYdBARERERERGR3WDQQURERERERER2g0EHEREREREREdkNBh1EREREREREZDcYdBARERERERGR3WDQQURERERERER2g0EHEREREREREdkNBh1EREREREREZDcYdBARERERERGR3WDQQURERERERER2g0EHEREREREREdkNBh1EREREREREZDcYdBARERERERGR3WDQQURERERERER2g0EHEREREREREdkNBh1EREREREREZDcYdBARERERERGR3WDQQURERERERER2g0EHEREREREREdkNBh1EREREREREZDcYdBARERERERGR3WDQQURERERERER2g0EHEREREREREdkNBh1EREREREREZDcYdBARERERERGR3WDQQURERERERER2g0EHEREREREREdkNBh1EREREREREZDcYdBARERERERGR3WDQQURERERERER2w6D+f8IBo3FWc/UslUVXsWnSU1iW2hWP9uiGwPa+qOumXVWexH+Ejo/Owyk3DzT36Y2xn41HJ3ftOmulX0TMgtewrMZkvD/IB87aaovORGJg58mI8/RFY4+AbLd3GpvmReKAdskqzUIwtqu3diEPF9bj1UFbULV/EB4JVl5vnyraFSIBK4e9hh89e6NzUHsEPqC8F/J8EMUkMRLPB01GjPpc1MSAuYugPH1AUjxWvrcIB1uOxsSQfJ5PIiIiIiKiIjC8fhCY3cLAoMMepO/DzDahWJxsuth3Xize72He+C2F5D53noQYj0bw7+iDDo+NRvf62nWFpTW2t8r5oGmIXRyCmuoVVki/ioPfLcTMaZ8h5pKscEanWevwaUgewYP57bWfhm3LQlBXvUIoj6+J8ppol6wyNAIJ4/20C7lLjZ4OX2VblVsIFkZPQ3c9YEnaglfbjsa36gVnDAiPxuyuJfBeyHK7ofj0t0no5HwaKwf3wYQdqeraxoMWYcXEINR0VC8SEREREREVKz3o4NAVexAfi01ayAF0RXD7Uh5yiCPKfU5MwMEDW7A8PAGpBe15ofaYmIcw8+WTLTimXYtjW7Ag2/XL91xVGuT7sDxiPeISLiI1PRUXEmKxcs4wBLQJQJ8xesghUrF1WgRiTG10y2p6o7F2FhUBF+2siTOq1tHOFqtUxERpIYei+/Txt0MOReq+WC1sUPSYhoklEXII95qopZ2VJ8Nd7brhjQGLt+BTtWsHcHT5MDy/LEE9T0REREREZCvs0WEHDoZ3Q595p7VL1rDcWyFuTjP0L1AXhNsaD43AuvF+Vg9NOLo8BN2mxZsu9J6Hfe91RcGyjoL3mOg0KxqfPrDtdi8Mi5xRM3gY3hkfik5ZhoRYYnYfcvQguYiVQ4MwIVrOP4evj4yHv7o+G/NeIdb06DgRgf5dpyNOzruFYkXsJARmPulXsWlMAIavN10atHgvpgaV1GAR89cj2+NNP42VI0Kxtu18LBzsB3f26CAiIiIiIhvg0BV7kRqLKQGDsTyzR4eVcgy1KFrQgTqjse7Hl2DVuyg9HuEPhyDsjHbZGn6TsPmLUDTObCQXb9Dh7BmEAcNCMahHEBpX11bmcBVxEZ/ixwvaRZxBTPh6U+hQJwiDHvPVwppmGDC6NWJsEHSYh1p1R0di2whf9bwqzxCkoPZhcb9pWKtdyl8qTh1IQJJ6vgoat/DOM/Rq/sJHmN3DQ7tERERERERUdAw67MSFyGEIeF1tTWdrbOeUtC8Sy3dcNF0YvBQJrweYzmtObZmHlYe0C/kya+QrnJVGerwV9SVE6o7p8BscoTSNCyIIs6MXYYCndtFM6ol4bNpxCI0eC0HzzCKsEkqsw+l72yPQ1wc19fXpsZjpO9gUkNTpjamTB6NTWx/UNY21yId5L428SLDxPI5mbtsVE5eGWg6BLm3DzDGfQfk45h90mIciOZ6PVMTN6YP+i7WePb69MSI4r7EzV3F0216Ytm6GkR9NQ/csBU0KUWOkANTQKYRBBxERERERFR8GHfYgVWmMPqI0RrWeEXk3HlOx9a3WeF4r79BpjrLtY0VoaGYpPlmQYRJX8e3oALz6nelS467PoXuTXP7udCzC1+4znXd7CV/vG52zV4RZjxb/tzbj61B9OE48wjtrvUbcQvBp9DRtRpS8hpvkp7BBh5XyDDrk9WuvvH5aPBS6CPFvBd3uNZElBCkoSyESgw4iIiIiIipbWIzUDhz8bFJmyIE6z2Fk77wajgk4uE07C190vq9ojcwsRS/RGx38rAk5lL/bsxBhWsghwyumvjceY0ePtrg884BZ35TgZrcLf5pz9kPnx0xn4z7ZgIPppvM4EI2V6nPjjL6zCjHNrEUeGLD4EBKOaIuEJ9o1akihr89tmEoRpO6Zh5l6yCHc3M2GhlzFpjnTCxlyWEOCELPHbXGJxuwgbXMrtmfIQUREREREtsKgo6xKiMCUMH0GC6UxP344/PPKGs4cwk49FHELQPMiTeWadeYP9AhCoDVBQnoCVr7zGU5pFztNHpZnDYmj8be7QzRv3SiXITnO8A/orZxWQeMGN5B0XdYp92/NItPt1BmGF7rd6VlopIeH5QZ/lrAkN8n7EPbGZziqXcwuNXoeXl2vhSBuofh03yHEzspMHdTeExZvO3OxPCSIiIiIiIioLGLQURalKg3fl7Wikwrn4Gl4o0fejfkLu7YgRjuPx9qjeVFmvkiKxjdmOUffRzpaNWPKqcg5mKKNRIHPaIzNc+hMPOI2a2fhjE4tTVOU6o4uH4w+/UZjyrx5+OSQB4a+FIrufsDOpTKV7GSELTc1/Gs2uIDvF8zDzNeU7QdHZA0LLExBm3PZkhnMFN4ZxO2IRYylZfcxZNY2tURmLBkzGItzm5X10hb83yi93onyPL01DJ0y65QUhTca385KrOCBuo20s4jGUT1UE5f2YWXkPpwy65BCRERERERkK6zRUdakX0VM2FMYqLd83YLw/veL0NcTSPpuMvqv9cbUyc8hsI55V4msdTGKOu3oqYhQdHxLr51h5ewe8R+h26PztKDBB0O/iMTENnn8UUIE+jwy3VSk08JtFG6GGOlZ0Q3fF6j2xO0ZUyRc+fcamVfEG/4dfeCeFI9vl0ebghC/3hjRLBVbf5Xynu4YMPtdOM8pao0OKTAaojxOCymHbDvWAytH9MGEKC1BCJqGbR+FoK5j1iK1hauHYV6PJPdCsObi5rVG/3DTfRm67BAmtlfPKu/L8fAbLXPeVkHg6I+wcISfVcEYERERERFRQbBGR5mkNHzNQw4JDJbMU0MOnInEq69H4mjUPAzs3B59JkUgLtG0FRI34xuzuhiPBBQ+5JDeJMs/0btlAI2Hh+QfciTvw8x/6yGH8jdDp2NsXiGH4uiOSFPIoXAO6Zr3sJwSknQ2FgcPxCvLFiwP/wjhesgh9q1HeMQW7fpYnLqqrS+C1AOfYUrma+2MTsFZu1gkbfsIU/SQwy0Is6eaQo7sjm1ZZKGnimmZGbFP6w2Sl1iEvRSCPv0sLdOx1TSnLOrWvz2Lz9Ez2uw+8p6NlZBDXIVzTQ+GHEREREREZFMMOsqQ1BNbsDLKrOE7a1Fmr4ikxCS419fTgFQcXDkd/YMCMDwiHnHfRWYWqixqaHBq7aLbBVDdemPsAF/tQi6kvsRTZkMvfF7C7NF+yr3PQ3o8Nn0ar11wxoDgnNv7j7dQa8K83oVMn5v9eumZkXQB57VN1FlX9OuKtbCoM5yzBA6Fq9Hh3CIUL/QwnW88dCkWvpB1+I578CSsGCrrlPfC5EkYkMtssqeiIhAuwYyFZXHUMWg5RTancTSzN0oqLsRLgGNpOY0kLSmp2cA383Xaekyb5vbSFnylD3NyUx7Po/qsOERERERERLbBoKMMca7fG7M3RGPFiAB0nxyJhSG3G43ubQbj/dXR2LxoNAKraytlNo63QtB/VmZhDIzsH5AjNLBa4npMmXl7LEbj4YPRPfO2LEtNPIajiWa9DpaMzjdoSd0RiQWZs8kMw4D2hbjHjrn8TXLS7YZ9k0YFmFo2Z7iyefLtkMd/8nqz6/ZibG6zxBZIFXR6pLdag2WJssOcj8gZ/qPfxfuzIrK8FwqkQqHfDRofeOtPYp1GCNTO4oip9sjR9RHYZFpjXe8fIiIiIiKiImLQUdY4eiBw9FIsHOSTs+HrWAWNg1/Cih/XY/aA27+uZ+oxDIPy6YCRKymK+dZkbE3WLitO7T2EU/p0rrlw9gnBQrk/IQHqMJvceh1kkplZFujFNQH/F3pZLJyaGr8+51CMT7bgmHY9dkfkuH75nmIYT5IpFaeP6b1OgLiwiCzPDXADuKmdxT4sy3ZfMhfz+2yBe7dp2BdueUiKytkXfUMsvNZm8px1ZVFvK8Ke7D1SzKeSNVOzGTq30M5Hx+PghWgsD9NDtq4YmV/vHyIiIiIiomLAoMMeuflgwPRIfD3WfKiDD8YO613o+ginvpl+ux6EJjVqMoYoDdl8azzI/Zm1NO/io5oL6+Zgpt42dgvFyMcs91RIOrQ+51CM7DUzsl3/45/KPU2XiKI4JODgNu2sSI7AlHmxZvu+iKO7tLPYh2+z3ZfMxfw+W+KYfRhMCTEf4pPDaZzarZ11M39NfdA8s/dNNBaMmoPlWvjTeOww9M2n9w8REREREVFxYNBhr5L3Ye2a27N1SAHQoYX8QT11zxwMeT06sxHf+IEANNbOH108GMMjtXoMRXUmEv/31u3b8R8bmvtUqYVt/Ccey5xmt7lXEcpixkdjpfkUqopTS4cV33Nxp5kP8WnhnSMgS9V7r7T1Rl3trGj+QIjWu+Q04vZo7z9rarkQEREREREVEwYd9ihHAdDnMHtkPgVAcyEhR5+nPsucMQU+o/GfxUvxn8zeIqnY+vowhO0rYj+J9NNYPsVsaIxyO1NDsxbfNFfzsUVmQymU5ftJOYuGKo97xe7b28gUq0nn9dlAlH24FT7oOBgVmdkTo25wkHbbpudi5h55LvwwUbvdr0foz7wzRqxU1pkVIM0yrCTL1LLFJ7dZV2a+Nhh9pkVbLkZ65lhmAVvUckdV7azqwunb7wfvmllCEOe2XTEgSzjljE5vjc+3lgsREREREVFxYdBhby5EY+ZTgxEerwUPagHQ8fDPrWdEHi5ET88WcjyHr1e/pNbMaD50kVmdhgSET5iHuCw1KgpA6n+M6IMpmXVOfTD2P6bbsUpSLGa+PB1x2kWVmzOcEz7DwAGT8e0JbZ3i6JEt2jmgcQMP7VwBJUdj5Sd6zw1vDBi9CFMzg58ELH4qBDN36fVAZIiLHgJ1RYvcsxubyW3WlcVrY3HwxAWz4Ta3nTKrP+Ls652ljseFHVsyQ5C6XjWzBmgXT2cdihM0CVP7FPJ5JiIiIiIiKgQGHXYkad9H6N91GBZnhhy+GGFNAdDs0q8i7qNQBA2NMAs5QrDQPDBxVBr4U82mRk34DP/OUqPCSskJWD6iDyZk1v8wTZs7wtqRDhJyDDD1Xqk7+DkM0FYjdJ5p6tWESLzaNQADw2NxId08dAhCi3ra2QI6uPx27Qn4PYe+yn1Vg59grcnvE4RH7qtiOn9gCxYfMJ1FjyAE5tWJJJ/CriUnFccOxWrnge5N3PHt6GbwCeiNPo8EIGD87bCok69ZciOvxZCsBWtRyRlVzQOrxC1YHnW7Vw0REREREVFxY9BhD5LisXJSCAIGmPWqcAvC1JURGGtFAdAsEmMRPvRh9DcrMurs+xJWrJyG7tkDkzohmDr99vQbp5ZORtiuAkQdJ9ZjwlMhZkVOndEp27S5eUk9EoHhXbUhOj7P4T+ju5kNo3CH/1g9fLiKuGNJQLxZ6NAiCM0KMresLiECU8L0MUHO6Du4j6lGhQQ/7y3FUF+zHjTSU+X9eVoPB2cM6N0xz2KwMXNaI2DYdCzfVbxBQJ6zriwOyTnrSno8dn6jnYcv2tzro05zi0sJOJhgNnONz2gMeEB7f12IxhQtcMriu/lYYP6eOLMXU4YFwW/AR4grwFuFiIiIiIjIWgw6yjKl4bk1fBgCgkIwYWX87WCizUtYsWURBjUpQMiRfhEx4YPhFzQYYTtuN2Ybh8zB5tWjc+2JUDdkNG5P7nIai1+fh5j8hrCkX8XByMno1nU8Vuq9T1AF3Wetw6eWps3NIRVHV45GQO/p2HRJuZjb8BwJH8LXYXaPAEwc2R4Hv16UOazCv39QZkFVqyXvyzpExu81jOym9dwQbn6YuHaRqQeN8nxunTkME/ThOD7DMCjYbNscLuLUsVRciIrAlMXbcEFbeyek7lp/u8dKnW7wV15f90a+aJ75/FaB/6OT8PVK0/AivSfRcj3kqN4Vs+e8pBUpVd4Tw0ZnFm698Kdpo6R9e3HaYnEQIiIiIiKiomHQURZdiEX4a6HwC+iN5+dF40JmLw5fDJgVidj/jkZgAXorpB5Yiv5tgjBwXuztwpSyr/c2Y/Os3qibV60MR18MnfHc7Zk3znyGKZ/kMuVseipO7fgIz3cOQp/XI28Pi3Hzw9iV/7O6J4f0jnB2TNVuwwdD9eE5qUk5b1fCjnlLMSg1AjMj9Gu74pkeedyWcj9zOo1vx5j3WPDB2KmhaGzhuUk9E4uwp7vi+cyWf+41Ry4ka894+gVcOGY6m73AZ8m6ik0rIzKfx7r9g9BczjQZjHX79J4gsfj63VD4VzKFY0HmPYmqd8X7q5XX47FhmBqqRVbJ0ZjQbzDCIyMQ9omW/NRpjUaF6VFDRERERESUDwYdZVHNAPRt727WqHdG8wHTsC46ErNDfOGeVzBhgXOL/nhBry9hvq/e1gUPzm2GY2Jv7e/dfOHvnb2ZnopTW+ZgYIfW6Dh4HrYm6vdcv60IjPDLq7dDTnUfG42RPj4YMG8RJurDcy5duF0IM/HC7dBGemL8e15msFJ36OC8ZwE5dtpCjwpv9J2zCFL2Q+53jjoi6RfVmVhmyrCMzkqjXp15Rfhg0OLPcq05cjDsOfTpF4I+nUMRpvV6yFHgU5emndpQ6p6FCPtOuwA/DO1t+Y6nJkTg+Q5ZwzFn3+fw6fp56KsOcVKeo/HzMEjvBXIpFmGvT8dKLftx7hFgClCIiIiIiIiKGYOOMqpuiBTb9IN/6CR8Hb0X66aHoHmhuwFUQffpSzG2ayhmr40uxL6Uv39hFDplhi3Zh584o26zRnA26yjh7BtSyNvSOPpixIb1mJ1bz4yk2707kk4cQ5KzHsSEYmohp9qFewAmLpmDoeMjcvY+cfSA+yVToc3Mh1m9K6auj8TUoGyzjri53+6xkXwRBw/E42Bm+OODAUGWw4ULZzK7k9iMs18oxiqvn6pHKB6tbzqbnbNPCEbq2ynPZvPBixC9ejw6mffSkDoxa6ehU/YhRTL1bn/bTKVLRERERETEoKPMcoa/0uD++q1Q+Htqq4rCzQ8jwidhgG/BelZk8h2MT/MKLeqEYOH8UDQOfg6zv4hGvNIALvRt6bL3XHF0R60Wvmgui+ftO+IuocrqLfh0aFeMXfKahYZ3AdTpjYlDfS0GJabwyQfOnkEY+l4k9u2cZ7lOirtyPxY9h+4tfG4HHm4eaP5AKKauzL33R47HawuO3ug7fRHe7+GHscN65zGERnn/jVW2C9XCsdeDUNPS/asfgk+3LMXER/1M+6oegLHL5mNQZl0XIiIiIiKi4mVQ/z/hgNE4ix3JiYiIiIiIiKhsMrx+EJjdwsAeHURERERERERkNxh0EBEREREREZHdYNBBRERERERERHaDQQcRERERERER2Q0GHURERERERERkNxh0EBEREREREZHdYNBBRERERERERHaDQQcRERERERER2Q0GHURERERERERkNxh0EBEREREREZHdYNBBRERERERERHaDQQcRERERERER2Q0GHURERERERERkNxh0EBEREREREZHdYNBBRERERERERHaDQQcRERERERER2Q0GHURERERERERkNxh0EBEREREREZHdYNBBRERERERERHaDQQcRERERERER2Q0GHURERERERERkNxh0EBEREREREZHdYNBBRERERERERHbDoP5/wgGjcVZz9SyVXrtif9bOERERERER0Z3QPuB+7RyVNobXDwKzWxgYdBARERERERFRmacHHRy6QkRERERERER2g0EHEREREREREdkNBh1EREREREREZDcYdBARERERERGR3WDQQURERERERER2g0EHEREREREREdkNBh1EREREREREZDcYdBARERERERGR3WDQQURERERERER2g0EHEREREREREdkNBh1EREREREREZDcYdBARERERERGR3WDQQURERERERER2g0EHEREREREREdkNBh1EREREREREZDcYdBARERERERGR3WDQQURERERERER2g0EHEREREREREdkNBh1EREREREREZDcM6v8nHDAaZzVXzxJR+XX1ejKuJ99A6s00ZGRkaGuJiIiIiMoPBwcHOFd0QiU3F1Sp5KatpbLA8PpBYHYLA4MOIsLNtFu4+M9l9UtdvsxdXCrCUTlPRERERFTepGdk4MaNm+qPgPLjn0eNaqjoVEG7lkozPehgS4aonJOQ4+z5v1G5khs8a9ZQk2uGHERERERUXsmxsBwTy7GxHCPLsbIcM1PZwdYMUTknPTmqV60C98rslkdEREREZE6OkeVYWY6Zqexg0EFUjkl3PBmuwpCDiIiIiMgyOVaWY2Y5dqaygUEHUTkmhUdZYImIiIiIKG9yzCzHzlQ2MOggKsdkdhUpPEpERERERLmTY2Y5dqaygUEHUTkmVaRZeJSIiIiIKG9yzCzHzlQ2sIVDRERERERERHaDQQcRERERERER2Q0GHURERERERERkNxh0EBEREREREZHdYNBBRERERERERHaDQQcR2b/keCwe1hvdHlGWYUtxMFlbT0REREREdodBBxHZvbhPpgGj12Pz98oyLAn//mSfdg0REREREdkbBh1EVMzisfjRAPRZnqBdLoADH6H/sI8Ql6RdtlZqLKYE9cbA1+Zg+fp9OHohVbvCCumpSLp0NceSmq5db6W4Oc3g91Y0CnrXLUqMxPNNhmFlona5QFKxdVooZkZd1C4TEREREZUvDDrKstRopXEXirAdV7UVxSAhAgMHKw3NS9plM9KQ82kyB3HaZSLLfOH/wE0c3LYXF7Q11orbuAhxvwPOlbQV1qrgh6Efjsej997Ezk9Goc8DreGrfDZenReJOOVO+L8wGZinDV1Z5I7/vOCn/aHiwnq8GhAAv2yLr6+832XpjZl78gtOLuLoESDJzR3u2po75VTkaAxfnoSk1BvamvwlJUQjfHCA8lgLG66YORGNmSN6w0997gLQbcQcfHukAMETEREREVERMegow1J3RyuNkotwqVFFW1NEF6Ix5eXpiHP2QM1ibK1d+G4y+vRbejsgUX+tbqY0HrXLZHeaPxAC5+hoxFgIzHKVGou1Eanwf6EXmjtq66zl6Iy6LYIwYOgkLFwbjfjforHurd6oGh+JmHPK9W6+GLpIG7qyaDCau5n+TOUZgk+PHEJC9iV+M2b3UD5bbs5wTrupbZybJKT+A3Rq5K1dvjNOKZ+1Ia/HInDWIuW+53dfUnEqeileHRAAv37zsPNGVW19EZxRPtuPDsPy080w8r2lWLFoPDr98wVe7R2CsH0MO4iIiIioZDDoKLNSERcVqfz/NMIe1X95zrb4zbO+90XyPswcpDRQ8BxWvBeCugVtaOYl+QIOHijob/tUZmQf+nEiHnHpddAJW/DNvKUImzcPM18bjD79esNv2Ppce3mkxm7B8mQ/PPpA0cKCgx8NxoQtN9A4OBRTF0VgRAvtioJIjkf4030wYVtrTF0ZgbHt8w4TUy+dxtEDgPOlQ4hZH6E85ukY3i8EAcMic3m8yufN0mdWX4ImYyuiMSEo+3W596hK3TMHQ0ZHAkOXYmGINc+hM5KOxQLd5mNbbCTe7++jrS+si1g5Rbnfnsp3yBdzMLR3AAKDQzDxv8rz55OA8JmROKVtSURERERkSww6yqpLW7BseSq6z9qMfbGx2ZZITGyjbNO+Eeqats5bUixm9gvFYoTi0+Xj4W/+azdRfm7FIixzyEcQuo6ahJnvr8dpnyrYGrEep24BtdoPxsSx0/H1tK6oqf1ZVlex9ZsIoEcoHq2vrSqM+I/w77B9OF+UzgPK5yHsqVCEXeqNhRsWYVATZ+2KrExDuUyLb4CEhM6IWzcPMyP3IRV10HnkeHw6uXcuj9cPY3N8bs2WtZMQiABMXZv9utHw1/aQxZlIDB/yGTBoEVaM9VPuiXWaD16E94cGoK61f5CXE5uxMhro9MLzWb9DHH0x4IUgYF8kthaibAsRERERUUEx6CiTUhH3yXxsqvMcXujtDffqVbIubhdwag9Qt3WjXBpZZk6sx4QBg7FYenKsnIRO+f4BUTbOQZiaOeRjL2LXRmLdalnexSC3BFRtNwxDQ4IQ+IAfGtfMpUV9aRu+Wa+000O6FqnGRdzmRTjaYxret6pHgwVntph9Hqahex1tvQX+I7XwYfdeJCx7TlnzFN6Xx710DiaOHowBwQFoXif3BME5++c2y+IM9T8L63M4sx7D+01GXMc5WDIxCDWLszdWASQd2oc4eKNNMw9tzW01m7VGXcRjz+/FWE+IiIiIiCgXDDrKovjPMGHxBfQdPxz+ltpRCfHYqjSSurf11VZYdiF6Dvo8Oh4rE0y/wgbe6SqKZF/cgjBorC+Wz/wMB/OZweRC1HpscgvFIwFF7FqQWoSuHCciMbzfaHx/7ySs+2J0/p8HNy18cHfG0T9i1R5U3oUNGRJjEa4X8PQLQv+3InFMuypPUldnyHhsbT0N697rXbxDzgro/EW5xz6oWd10OYvqHmiknBy7yCFsRERERGR7DDrKGqml8e95OBU8DW90O43wAYMRvivrNJJHd2/GKYSgQ261CdIvYuusEAQN/QLOPXqjubbaOpGY+do8rNxzusDTb1L50zh0Oqa6z8OUiLzGLJzG919Fo+4LIQgsYs7RvMtzqPvdIizId5aUrFJlWttHp+NC70mY2GwfpvSTGUhkWEoAug0ej8VRyvtd2zanqzi2Nx7ObfShYhexaVII+kiNDr/bw1tksViANzkaUx4ZjLWew/B1dCxiV0+H/z/78q9nkboPYYOGYWWDadgcXsx1dQoh6Wy88n9v1LIUdDiaXtiDZ4tl8l0iIiIiojwx6ChL0k9j5RitW/17Mva/Jvw7Ap880xV9JkXiaLJsFI9NnyoNjt4BFnt7JMVHYkKvIDz/jTvGrozG16MD8h/ekkUjOF+NxJSnusG3jbKfOZGIy2c6yhvpShPRrYgtWCqbHH0w6D/T4B42KvcpWk9EY+0+XwzyS0L4sCD4NmmNgGFLcVB9P+cv6cLt4RDObUZjaugZLB4yGivPaCuF8h48lWA5rEjaNQ/9n5bCvVWQmpiA1DqhmPrZ/0zDUrZ8hpFtL2DBsG7oMy0Wlpvpx3AgCujeRPosCGc06j0eE8eOx8LV0VptDdMy1mxWW13StvVYXn00/jOxNxp7VkFNnyBMHCNDYRJwIa9Zay4dw8EE4NEBd7YnR1YV4W7po17TG421s0REREREtsagowxJPbEPcVe64v0lWsFQRw8EjliK6LWvwXvLZHTrPBqLP1qKBWecMSgkKGutg6R4rJwUgoBHp+Ng2znYtnMphvoVZlpaP4xdFI342PX4dGR7JEVORv+g1ugzZilicgk8LvwZC7T1tqIwaipipHgle4qUTekXlddvOoY/KmGF1ovBLwh9JsWicQ/3nOGD5uD3nyFOee1XzpmDU10/QnT0PDz6+7uY8s1pbYu8JGDtSwHoH6Fv64xO45X3tmc0Jvw7Ake191LqjnfR7ZF3sSlbcHAhejr6P/MRjvq+hBXfR2Nd+CQM6u2nBg7qsJT6vuirfMZiv3gOWD4MYTssRCUJh7A1OQAd7tM/T1XQuH0AAh8IgL+Ph1l9jSpwthBIpKYmAXWV7cyvc5L/ncaeQ1l7a2Xh2Rsjh/pg5ZhQzIzOY7sSdREXLKVBicdwVDtLRERERGRrDDrKEGef3pj9xRz0zVYg0d03FAu3yBSO0ZgZth6pdYZhQPtsP6tWuICDR5ph6lqlMTe9GH4Bru6DTkPn4Oud0fj6rd5A1LsYGBSAKdFFKDaYEImwtyZj+S+5DxKgUkqKeEpPoa+S0OaFj7BZ68EQu3o+xvaug/PHjpmGaCyMztorIj0eW780hRSd3ozA7BBf1PQMwiM9gLjofdmmZr2Ib9+ajm8TzN4fqaZpXf19zIqPuvlh4pJp6HRkOl5eLMMplM/OA70xyG0Lln1nHp6k4vyR03AfvAjR/x2NQE9ttQXObUIxtH0qlu8w7c/chb3ROFinPZrnUbg0LzVbB8F/11IsjtLCitQErPzkC/VszOm8wh5n+I+PxLrhzlg+tBeGR1oTDNmOu5fUBErClTx64jT3YiEgIiIiIrI9Bh32wt0PA/oHKGec0Xd8KJpnDzLcgjB15TQM8C1ML448OHrAP3Qa1kVHYmrvEHRum33/F3FayjM08s5niIzSiJ3zLuL8XsOAdhzmUrZcxaYF47HSexo2r56Dob19UVfrwVDTxw+dQkbj/ZWx2Lc2AusmZutpFB+t9vLwnzwfE9vcft3rNgoCziuNZu2yyWn88U0E9pi35+P3YiWC0EIfNaKrE4KJY/1wNGwRvpVeHI5+ePQFb8R9E21W+8IZzYcuwtevBynvzauIWzwa3QKkJ4oMnZmDb4+YB24uMirDAuXvdkTDuUdAAWvdmKkfioWLgxA3JsjUC6Zlb8x0fg5D2yvPi1fOGUyyUh7DS0uxbnJrbH29D55fnpBHLRHbquUhL0Iuw20STyNGOWnkwWmdiIiIiMj2GHTYizOR+L9pSoMreBLGdivmMMMa7r4Y9N54dJIhNVlcwKnfgebeeTdwTkVOwv9F1cHYqaFoXGrqDZB1jmFPZCoGPZN3TyF3Xz80zvL+SEXMmkU45RaKkSE+2joTZzd34MDprL0/LpzGwWRfNPa+HYgc/S0aqS2C0MzC26vxo4PRF1vwzTZTT4nm7R+G875oi0Oskr6bhP4LlMewJBr7oiMwtno0Xh0wGt/q26afxtHdFnokpO7FzvXAgPZ5z3CUn5pB47Fuz15TLY99h7BvVmsk7VIeg6c1wYAzGg9ahM3TAxAzLQQDP4q/I2GH+71+aI7T+HFvzp4l6uuEIHRofQe+m4iIiIio3GHQYQ9k2MCQydiqNCTeeevOz76QRcJefH/GGYHNsjZkzaUeicCUadEInL4II4rWXqQ76Mr1m9o5K6Xuw/eRqepsK9kDMvda0pPhJpLMR6nE71Pe461RN3OISAJi1sSjbvfWlgtduvuiQ3sg5oTW8L6nNbojGjv35hxedfTQFiB0GAa18IC7py8GTH8XYz2j8X/L9gHpVxETNgmLk4MwqGvW93FqbDSWozc6+OnhSwKW92uGmbu0iwXh6Gyq5eGWirgFc7CygNPt1h1gCjsOhoXembDDJwgD/IC4ZRGIMx++khyLlVIguUdvPJLH8CAiIiIiouLCoKOMk5BgeL/RWJkYhNkbFqFvKWtIHPzuMxysMwyPWphtQqj3f8B0xLSfhqkhZnUWqAxphDYhzvh23jxszWcGHnNJUZFYnuynDnXJwbMRArEXp/TipemnsVZpQDsP6np7Ctr4LVh8wBsDHpC/T0VS9iKYqWdw8FegcQ2tF4YWfGw6csx02Uzj1iFwjpiDsPXxOHXpqrIvbwQ+7oPU76ahT4cADIxwxtDF0zEgy+crFXHbIoGgAPhndvRIwqkD2tnCuBSPla+HoP9iYOiS1wo83W7dAfOwYoSPGnZYU7Mj9cw+xOyINS1HpCLKBRzdrV3esQ+nCpSWKK/FxJfQOOEzDHxqPBavV/axfilefWoYFl9Svp/G9846bImIiIiIyEYYdJRV6VdxMGI0AnpPx1bP5/DplkUYUMhiiDaTEIEp8y5YrhmiOPr1ZPTXQo7N4aWsJwoVQBV0HzkHAxCB55VGf7cR0xEWsf52A1pdErJNzXoVW79fD/QIxaP1tVXm6rRGZ594zJzzEbbuWI/Fo4Zhwu4gvPNCAPS2f1Iy0MjvKXRqIZeu4vsxAej/2jysjFJuLyoSM4eNUoOUAQ/ovTC80bzfc5jY2iNHbwf3rsp78D0/HP3kJXQLCICfsvQPu4DG1b3hP3oRNkdHYmJQtnoZWo+UTj06mtWfMYU+y+fNw7cy9EZCE7Ml1dKMQonxiFmvfFZkat2AEEzZIUWDv8hSs8R6zsr9jcCKoXVMNTvyCTuSdi3CwMGD1eXVpVJoNR6Lx5guDxy8CDF5TW9rgbPfaKxbPweDvA9hgexnzCIc8n4Kn64thd9PRERERGS3DOr/JxwwGmcVupQelaT0qzi6TWkUvT5PaYRUQeDo+Xh/WABqFjYkSIxUGqeTgVnR+DQk78KHcXOaof/i5/D1kfHw19blSh1OMxprG8xB9KLeWQuRare5VQopDp6HT8cHFf7+U5EcP3UWDet6aZeKKP0i4r5Zh7VR6xH3WwIOJprFCdV7Y6HSAO6uvxFS47F8zGs42PsLzO5huW6D9Pb5v6HvqnUyagY/hXdeH49OlkIRVSqOfrcIC1ZuwVY1VHFGzTZdMfL/JmNQoaZRtsKJ9Xj1tS3oMH9e1p4eyQn4dsE8fBK1CwcTsg6TGbR4L6YGZQ0wUvfNQ/9R0fAODkGP/kHo7uttcRraAkk/jZWvzUfqsGkY1KQwgQkRERERZVesx85kE4bXDwKzWxgYdJQ5qYibMxgzk3tj4rBQ+Bd1qIqNgo6kfR9h+NIqmDorNFsBSkVSNKYMWATn8fMxMTi/WSXIlvhlTURERERkHR47l34MOoiIX9ZERERERFbisXPppwcdrNFBRERERERERHaDQQcRERERERER2Q0GHURERERERERkNxh0EBEREREREZHdYNBBRERERERERHaDQQcRERERERER2Q0GHUTlmIODA9IzMrRLRERERERkiRwzy7EzlQ18pYjKMeeKTrhx46Z2iYiIiIiILJFjZjl2prKBQQdROVbJzQVXrydrl4iIiIiIyBI5ZpZjZyobGHQQlWNVKrkhIyMDSdcYdhARERERWSLHynLMLMfOVDYw6CAq5zxqVMOlK1cZdhARERERZSPHyHKsLMfMVHYw6CAq5yo6VYBXrbtw7XoyEi/8g+vJN1iglIiIiIjKLTkWlmNiOTaWY2Q5VpZjZio7DOr/JxwwGmc1V88SUfklYw/lSz31ZpraPY+IiIiIqLyR2VWk8KjU5OBwlbLF8PpBYHYLA4MOIiIiIiIiIirz9KCDQ1eIiIiIiIiIyG4w6CAiIiIiIiIiu8Ggg4iIiIiIiIjsBoMOIiIiIiIiIrIbDDqIiIiIiIiIyG4w6CAiIiIiIiIiu8Ggg4iIiIiIiIjsBoMOIiIiIiIiIrIbDDqIiIiIiIiIyG4w6CAiIiIiIiIiu8Ggg4iIiIiIiIjsBoMOIiIiIiIiIrIbDDqIiIiIiIiIyG4w6CAiIiIiIiIiu8Ggg4iIiIiIiIjsBoMOIiIiIiIiIrIbDDqIiIiIiIiIyG4w6CAiIiIiIiIiu8Ggg4iIiIiIiIjshkH9/4QDRuOs5upZIiq/rl5PxvXkG0i9mYaMjAxtLRERERFR+eHg4ADnik6o5OaCKpXctLVUFhhePwjMbmFg0EFEuJl2Cxf/uax+qcuXuYtLRTgq54mIiIiIypv0jAzcuHFT/RFQfvzzqFENFZ0qaNdSaaYHHWzJEJVzEnKcPf83Kldyg2fNGmpyzZCDiIiIiMorORaWY2I5NpZjZDlWlmNmKjvYmiEq56QnR/WqVeBemd3yiIiIiIjMyTGyHCvLMTOVHQw6iMox6Y4nw1UYchARERERWSbHynLMLMfOVDYw6CAqx6TwKAssERERERHlTY6Z5diZygYGHUTlmMyuIoVHiYiIiIgod3LMLMfOVDYw6CAqx6SKNAuPEhERERHlTY6Z5diZyga2cP6fvfsBqKo+/P//ojLMJmWJs8RPheRCXaG20PzuajW1vqK2cKwwmxhOTIvKJHWaOs0/NC2WLZpMnCYVk5VKK3WV8pspn/mHNZHvTEkDy4llwmTeTM/vnHsPeoHLHxULDs9HHbjnfc+95557z7me94v3+30AAAAAAIBjEHQAAAAAAADHIOgAAAAAAACOQdABAAAAAAAcg6ADAAAAAAA4BkEHAAAAAABwDIIOAAAAAECjtm/fPm3YsMGeq5m1jLUsmjeCDjRuJ+3fvvyVbUtWaOdErS6x5wEAAAA4xh//+Efdcccd9lzNrGWsZdG8BXh+TtppGHO7em6icSvJSlDk5Bx7rrJ+c3O0JLqttid30bA0u7CKimWqsp7X9YZLazJjFWaXVbI7Q49nSA89GaseQXZZbU66VVr6tT1Tt8Cg1gq82J7x4W9741/bpSk97ZkKB7I0/I69mrA7ST3sItTtk6LPdUPHa+w5AAAAoHGxWmfMnDnzdIuOkSNH2vf4t3TpUl1//fWe5X7xi194bjcUzp0bv4DJ+dK8bgEEHU2Mp+K/N0GFSRF2iZcVbizqdCboqLjtq6Zyi+d5d8epcHKkXVJZUUas+ubGKi8lSvXJOUrfSVJEYrY9Vze/4YWp6vZa2/DuXeayEWeCFE9IUpKlUa69Gm8HHe7SMrmtlh+tWiso0LMY/ODLGgAAAI1ZXFycJ7w4F/369dMHH3xgz50/zp0bv4qgg64rTVFarEI7d6k0VW3BsWGyq85lfBXtzVG/8E72XFWF2rCyQCNi+p8JOfx1H/ER1K6t5Jql3N27VFjrlKN5LvtBZ6MkW49HRirCnMLDze1zTdMGLdUwe1vDb/Xe93j2YfsBuKDKi7XhpUQNdnX37m+RURo+I0v5pfb9VZQWZGn6Ay6FW8tGuDRsYro2++l2VJKXoelxUYrwfK7dFTk0US9tqs9nWqbVidZjEpR50C6qyc5X1LdzrJbvt+ctB3P10riK9UZqwLhkrd7ttu/0skI33+Or+lTbur2vL3xWrio/q1fJlhQNS8iS355YB7M0yu/6umjONnuZs3DB13WyTPlZszXM3jfCXbF6PC1XJX67pR3WZnM/GhDpXUfE3Ymak13o9z0CAADNQ33G5agJY3U0XwQdTVF8RrXAYGW8fZ/N6qJS1zKe7iVHysypQPk7pY5Bgfa83Rqiws71SjuSoJhe3qYRJVZrjXFZKqoj7Lig2kdrie/25cxSP43USt8yc/LXegUN7bBWPzlAY99wq3diilakp2tJkkvut6ZpcEyytpfbi9nc25I1bOg0bb4qTvPNZVfMHq7AnOc0fESVZfNS5IpJUX7baP3aWi59lkaH7NWCuP4alVVsL+Sfe8vLWvCOPVMrtza/maqie2I19Dq76IBZub87Tou+dGlKqrne1ET1KH5Nj8ckKvOAvYwp7F7rNfmbUjTOap0U4VKPYO+y1exfo2XvhGj8TyNVqcHRwTwtnxot10OvaPs3dllVB4u1WeGKX1h93TGh9jL18a2sy63tCx7Q4MlbFPzQLM/j5v88UBuS4zR8QV7lAONksTLH9dfwxSXql5RqLpuqCbcWa/mT0Rpbx+cNAAAA+CLoaM7MiqTV6iEiMlrTt0jLE7ytICIiXVr0T3sZuyIYPHqQutpjaATfM0svtJ+th9MKvAVo9oKHZij3g1RNiXapd59I9YtO0spXE9WxcKkWvePTAuNkgdKeWqqiqBStfClOQ8xle0eN0YrXpqqHueyk5T77VKsumr8+Vyufs5frE6X4l17TC/e4tWFWhrbXFLRZ65jxmgJDQ+yCWhxZr2XL5dNaqUyrk6dpQ/tE8/UnKeZOc713xmreaykaoRxNX7BeFY1Ugjpbr8nPdFWh1m4LUfzT0QrzM+6MJT97qbZHjNSQbnaBzEp+gsvT2mHOP7toaG2tnE66zaMyWGG3Vl93WBt7mVp9i+vauVRPpB3QkJTX9HJ8lOdxQ8ala+W0CO1Jmyrfr5DSd57TpPc7aMJrGfZ+5NKI2Rl6OVbm5/1brT1iLwgAAJodqwtKenr6WU3WY9B8EXQ0RQ3VdaVnkrflwyqzQtptqtZ5WkFkKF6R6tjeXsaqCGb11+h7fCuNgeoXN1EhC2ZpeaFd9K3K05wq21a164rvNCqL7isXVlv1vidCQVUr9d0iNdD8tWGvz1/j89Zo0YEQjR/l0w3KEjpYo6OkPa/nKN8uUuf+GlLRyuK01urtMmvm5YXaU8MVdvLTJmpByFTNHFV3k4OidzK0tsOZ1ko6uE5vvSMNHB97OtjzaOVSzNgQubPXa3MN3XG8yrQ6NUV77nlM43vWMDiMO1eZi4s18KHB6mgXWa1iSvZ114iFWcr98yzFdLaL/Sg9ZO3PIWpXr1DDn29vXdv/kqoi8/0dPaC1XeIVNjROQ1SozJyKpOOw3n1rvXRPgkaE20Ue5nfNzxPUsTxb72wps8sAAEBzUzG46NlMDTkIKZoego6myE/XFWuq6KbRI6n6fdZUreuKrWTXDh3q28V7tRV3qdwKVVhgoTZvMitki1K11qxs7lw2W2Pvi9bguyO9AUJMhkpC92rOojN/4b5gfIIdb1gToSl+tq9iynttqsbNyFCePU/3le/ISW/HhECf+n7+1r+a+9dP1KNSZdbSWl16RUoHdmhvHZcIPm4/b0s/rSWsbjFPLAjRvJk1t6Y47WSBVi/OUw+f1kqlO3K1QZG6o3vlirml6y0/MX+u187awr2dGVrwTogmjK550N7S9Rlarlg91N93HREa926KpkSFVw+MqnCXW0fcpecxyO4FWNfudA2O6K7BlVp5FWjzO+ZnNSCicmhkCQrX7b2koh17vWODlO7QhzlS7z4R1d+3zhGewGzt7r3eeQAAAKAOBB3NXpm2b8pRTHe75nmgWNt7dVLwwfWaMytD+UH9NW5wpHre2l8P/TpFK177qwoKdqkwN1trVv1WMe8/p+U7vQ+t5mu3DtljftQ8lchd11VofYKdmsIaX+59OXppax21ZVx4BXlaq0DF3FqRarhV8nmx1C1EwX4q2B3/x1quREdr/cN9mXZsyvWMf9G96vgX5Xla8KvXFDJ3qmI62GW1cG/J0qID5n7t01rp0GGrMt1J1li61XTspN7mNpSW1jQ0ZplWL05RkWuMYk53SamqWKuWrVfH0dHqfY5BhTfo8Rl41zO4Z46KqoyF0hDOa13uEh06IHUN8TdQSYg6Wh/3oVIdtWYPl8h658Pa+1n24g4K62U+3RErhAUAAADqRtDRhFmXXq1o6VDbVGvXDfcOfZgdpdsjvLWu0n/lKT/cqoSM0Zp3UzQzMVET4qPVz+qXb1ZQg9q0VmBFJTUwUhNWpVZpau5jy2wNtq+MUvPkHR+kwZkVppr+oo5vQXme5jyVokN3TlV8RbcQlemQ1YvlqkBd4S2orIX1o0BFtYzFUJQ1UU+/E+oZ/+JMtw+TNZDlk3Fafv1Uzby3HmNzmK9lbWaGNCJWA326ZZR+brVIqKEFg7nfW8VFJTUkMQUZWvROoEbERammMUi1822l5UUoPqqmg6ZuV0QknBkUNHWW4iOlDckJ6ntf9YFfz1e919U5TmvydmhNvM92HSlRkfkruJX/I9HzPbKz2Nsi7Eixp8tS4OX+3viW1kciFZdc+NZjAAAAcASCjiYsODrVbulgjavhc8UR6wokPpd2ra3rhjs3R8t7RaqLpy7i1vbcbA2J6OK5z+I+UuUKLBVOeq/YEhgSWnPz9wt2ednDyoz3H+pYU+TknErdXc7lkps4D/uzNem+WC1vk6iVC6PVsab942ycLNP2V2I1YHKxhqakakql8S+sK3skaNK+B7Sivuur6aon58ytzStTtcd3vI9q/Fzh5RxUGgT1zmhNeC5Dua+NVFjhUj2R7tt15Px9m+sCAAAAGgpBhxMc3Ks99s2zU6a1WRkKO5qlJ6ZmKf9grj54y6XbT49PkKcFkZEKD68eJoSGd1dE5ESt+k56iLRVTJq/0MQ75c51VeruMsW61Ce+FUXZ0zR46DTl35qsda+OUddW9h22lpfYN/xwH7P6MEUqrGIg3AqleUqL/4mGLQnUhMzXNK/SwLhWK49EDc8I0bw/JKlHlfXVpPpVT2y+A4pUVe72jCcR1sFPcOjO1bvL3eo6qn/18SgqVLvCS8MJ7DlW4+8x34v3dpzjd0H91XtdF9cWIblVarUIsbrJWbPmsjUvXSr3l+avTiE1t5QBAAAAfBB0NFUHszSqInSoesURaz5nmiIr5jsna7v9sKq69E/V85kZWjJcWvxAgpb3idIdlSqaLs3LqR4meFuRfMdKc7XggSStPmDP47tzskybU6I1YOpe9UtdrzWzo/y0rGirEOtCKDl7PV0aqjp00M/4GPuzNLZ/rDLbJ2ndB+mKj6g6SGielk/Okbs8R5PuqNjfvZOnZY/McleVY8DvVU+8OoZEmj8Lteegd76SQ1b3inB1bGfP+yh9P1vLFaEYV81Xeql2hZcG1Voh1rgkFV1BLqh6ris4xDPAcaWr7pxWokPWoK6hwfK8ne1D1Nv8tWefn252J0tUtLOmsT4AAACA6gg6mqr20VpSETpYl4ftNUsbK+ardF0p3J2kHvbDKmutsCiXupr1rqAgs7J2wLq6QbpGzc1Rib/uKt+ValddsQVFKmZYqZ5+uOHHJsDZyU97QMPTgzXz7QxN6FVzV6mwH0aZP3OVX+3KJWXatSVXcoV79kePI+v1+NBp2hudoTVzoxXmt7VGJ8VUjCFRZXohzhovIlzxC635Yd6rCpn8X/XEK7hLd3VUjvJ3Vx/2Mv8ff5VaRaprtW4nZdq8PlvqFqXeNXVJ8XOFl4Z1WHt2m79cnaqFNw2vvuvqpJ7Wx71lV/WWH6UF+nCL1O+HXbwtOdp3Uc8O0oZ/7lK1d363d1Db3l3qvlwwAAAAYCHocADP5WG7nUcFxxrIcdZslU6brZdfytDz12VpbGpe9QrHd6WWq650jE7Ry71e0/CU3MbzepubI9latKBQMQtT6rzaSVCf/oppVaC0N6p8XoVrtDg7UEOiB5zunpCf8ZxWh07U7yZE1NKtobXCKsaQqDp1tp4pWGG3WvOhdneROq56Et5fI8z69PJl2SryDfvKc5T5crHCxg5Wj6pBhWdAX3NfHNj9dJhSlb8rvDQk97YlSsuR+t3T94J376j/ulqr9z3RCty5VJlbKh+de1ala3WrKP38zopQLFwDh5tvfEaGVlVqoeXWhjdSVRSaoKERdhEAAABQB4KOpu5kgTIX5yqmT/2u4lBSXrWxuXcgx+maqudjrb+YBiosNkUrx9VWuaynhri8bKtgdb3Kvm3qMT5XZr3XR6D6JeUoN6mhBpXEWfvXLq1VqAJL87R5U66fKU9FFfVc63LF01w6lJ6gYU+alV3z/g1ZyRr+wGzl3zlVEwZUtLIoVn5usXSNeWuLv+c0p921XofWvzqvehKqEc+OVFjONA2OT1bm++Z6stP1+AOJWt5+pOb5u8RQwQ5lmr/6hdfU4sD/FV7OzWGtnpGkORnZ9vuQreUz4hT5wFIV3TlLM++tuTXN2TuLde1O1+CI7hqcVnmA0qA7x2jmnSVKS7AuS2s9T44yk+M0bFaB+k17rNL7ERY7W/GhOZp0X5zmZOV41pf2ZKzGZnRQvPmZXJiWMAAAoCnYt2+fli5delaT9Rg0XwGen5N2Gsbcrp6baNysS8pG7k1QYZJV23dre3K0hhcmKCfV55KW1vgddxdrfF6ip8uK58opKtGqiVHK7JutNdafrC0nD2vDnJEatcmllX/2N5BjnuZ0jpVvb5HKrPE7UhVTdfBIy7ZkhZoVovqKf+38Bw31bqe0J2ukhn05zX6PUJtPij7XDR2vsefOjWef9IyHUZPq+0nJplf0zKwlWltYpsD2ERr4UKJ+FRep4NOV2br2PZPV0qeWz9j7uuSzbrc2z+ql4YdnKS8lqtYBQUsLsrTg1ynK3HZY7jahGhidoAnjo/x2n/Gux615H6T7b9GyP0PD+i/VHX9ep3FVBz+twfbkLhq2e5Zy06KrtJqwrj4zVdNX5Cj/oLW3Byo43KWhoxM0/p7wmq+AVIsGWZcVdMT8VhqfUfkSsxbze2Zz6ixNX7Zee46Yz9Gzv0YnJineXxen0gJlLpylBW/lqaS8tcL6R2t8YqKGdCbGBACguZo5c6ZmzJhhz52d9PR0jRw50p47fw1x7owLK2ByvlkB6BZA0NHE+AYdpVuSNWxGmSb8YZYG+lawPCGDtNIzNod1KVaXJpn10MD2UZr/WrKGVCxbmqs5iRt1R0qSevut9VmVzVSF+Q0zvPd125SqIX7ar5e8Zb7O7P5+Kk9VeV/fnrHnH3RsT+6uYWluT8V5/PPpGlfpEqTwp1l9WR/J1tjIaWqXvkUz+3x7+0b+SwM0eONIbcyM/RbGzwAAAHCeDRs22Lfq7/rrr/dMDYmgo/Ej6HAKaxwBmnTjHDWnL+uijFj1XdxXa/465tvrBuHO1fTIOB2anauXo6oPfgoAAICmg6Cj8asIOhijo6kj5ADqpWNshgo/+BZDDktgpGbm7SLkAAAAAL5FBB0AAAAAAMAxCDoAAAAAAIBjEHQAAAAAAADHIOgAAAAAAACOQdABAAAAAAAcg6ADaMYuuuginTx1yp4DAAAA4I91zmydO6Np4JMCmrHAS1vo+PGv7TkAAAAA/ljnzNa5M5oGgg6gGbu8VUuVHSu35wAAAAD4Y50zW+fOaBoIOoBmrPXlrXTq1CmV/oewAwAAAPDHOle2zpmtc2c0DQQdQDPX9qordeRoGWEHAAAAUIV1jmydK1vnzGg6CDqAZu7SFpfomnZX6z/HynWw5EsdKz/OAKUAAABotqxzYeuc2Do3ts6RrXNl65wZTUeA5+eknYYxt6vnJoDmy+p7aH2pu78+4WmeBwAAADQ31tVVrIFHrTE56K7StARMzpfmdQsg6AAAAAAAAE1eRdBB1xUAAAAAAOAYBB0AAAAAAMAxCDoAAAAAAIBjEHQAAAAAAADHIOgAAAAAAACOQdABAAAAAAAcg6ADAAAAAAA4BkEHAAAAAABwDIIOAAAAAADgGAQdAAAAAADAMQg6AAAAAACAYxB0AAAAAAAAxyDoAAAAAAAAjkHQAQAAAAAAHIOgAwAAAAAAOAZBBwAAAAAAcAyCDgAAAAAA4BgEHQAAAAAAwDEIOgAAAAAAgGMQdAAAAAAAAMcI8PyctNMw5nb13ATQfJUdK9ex8uNyf31Cp06dsksBAACA5uOiiy5S4KUtdHmrlmp9eSu7FE1BwOR8aV63AIIOAPr6xDc6/OVXni9168u8ZctLdbF5GwAAAGhuTp46pePHv/b8EdD641/bq67UpS0use9FY1YRdFCTAZo5K+T4/NAX+t7lrdQ++CpPck3IAQAAgObKOhe2zomtc2PrHNk6V7bOmdF0UJsBmjmrJUebK1or6Hs0ywMAAAB8WefI1rmydc6MpoOgA2jGrOZ4VncVQg4AAADAP+tc2Tpnts6d0TQQdADNmDXwKAMsAQAAALWzzpmtc2c0DQQdQDNmXV3FGngUAAAAQM2sc2br3BlNA0EH0IxZo0gz8CgAAABQO+uc2Tp3RtNADQcAAAAAADgGQQcAAAAAAHAMgg4AAAAAAOAYBB0AAAAAAMAxCDoAAAAAAIBjEHQAAAAAABq1ffv2acOGDfZczaxlrGXRvBF0AAAAAAAatT/+8Y+644477LmaWctYy6J5I+hoqo5ka1JcijaX2PNV5KfFanh6gdz2fJN10v7ty1/ZtmSFdk7U6hreDwAAAABNj9U6Iy4u7nRrDut2bZNl6dKlmjlzJi07mrEAz89JOw1jblfPTTQN+a9EadjnScqb4VKgXXbayQK99JMUBb+Wqpj2dpnFCggu9t6spLxMpWediBzVodJghV1Xbe1eJ90qLf3anqlbYFBrBfp5bSVZCYqcnGPPecW/tktTetozFQ5kafgdezVhd5J62EWo2ydFn+uGjtfYcwAAAEDjYoUXVnBxLvr166cPPvjAnjt/nDs3fgGT86V53QJo0dHUWGHFkfVavKSLXki0Qo4yrZ2aoJe2lXnvN5WuS9eiAzma5Oqi0M4+U89pWltqL+Rj+6JIRUSe7TRAA/pHK223/SRVlK6b5ucxNU8L8uwH+hOfocLduzzTyni7zApSjpR5Jrcd4PhGLu5S731nH+DgnJQXa8NLiRrs6u7d1yKjNHxGlvL97G+W0oIsTX/ApXBr2QiXhk1M99s6qSQvQ9PjohTh2Ye7K3Jool7adNi+tzZlWp1oPSZBmQftoprsfEV9O8dq+X573nIwVy+Nq1hvpAaMS9bq3ZV3pu3J1n21TbWt2/v6wmfl+m11VbIlRcMSsuS3gdLBLI3yu74umrPNXuYs1LquCub7kTYxVpER3vWEu6I1NqvYvrMOJ8uUnzVbw+x9I9wVq8fTclXit7XWYW0296MBkd71RNydqDnZhU2/ZRoAADhn9RmXoya06GjurBYdaPz2LjGix6Qai566zYh7s8QuW2FE3zLGeKPYO2sc22I82+/Hxm922PO2j5c9YNw0faNx3J4/H5+umWr0v3GQ8cx79mvwZ+t844aHVxqH7NmalRhvPBxuPLvVnq3i0Moxxg3zz2zMtvn2sp+vNOJuDDduqGOKW1nLa4RR+Oln9q3zUWKsGhNu3PTjMcazKzcaH/5ti/HByvnmfml+BgPnG9uO2YvZjpv7Rn/zs+n/yBJjlbnsh2tSjdjb/Cy74wXjphtvM6Kfspf72xpj8SODzM81wvxci+yF/Du+eb7h8uwD5rHxuV3o13Hjw19HGDc8tsY4apcYxea+Zb72m+6fb7zxnrne91YYTw8xl/E9zkxH/2W9Jn/TOuM395vr/tkK4+Nv7IWr2mcetzf2Nxb9056v8PkOY9mv7jO323x8TceP5325z3h2TfV1f/ylvUx91GddpuNbXzCizPfjlpGzjGX2Oq3PNy61ypeMX8fNY9b6zAYZCYvXeB67atFI4xbr8zeP60rfR98UGW+Msd7nB+z9aKP9+ur+vAEAgHNdf/31hlljPafJemxDaphzZ1xIVrZhfvY2go4m4rixM/UB46be840PPTWEUuPdJ3xCD7tS0X+IWTnwrbgc22g8Y1Yelu2158/VNyXGB3PM577tMWPZv+qITC500FGVJ/gwK8r2LOqnoYKOD/+ywzhatVL/z1RP2FApbPpml7GoX7hx0xPrzgQLFiuwsyq/qbvsAtO/1hmr9tm3Tys1Vj1mVsxvMT/rmkIEax0DI4z+A/vXHXR8ucZIMCvSz/ytYn+2n39gqrHT9/k9x5Cf1+3PrlSj/439zf205mNk5yLztf1shfGpPW8YViX/x57Q4aYhU42nzWOixuPHOrbqDHBqcxbr+nKdkWhud7VQor48+0CEkfiXUrvAywperfBjkc/HfXTNY9XKrO+0D6Zb4cdE492zCXEAAIBjWGFFv379jPT09LOarMcQdDQ/FUEHXVealEB1HZOuFffmaFRilvLfT9HjpUmaObiteZ9b21NiNaowTn/483OaUjpbT3ualru1OWW2NsclKSbU8yTnxOpqMGmQS4/vjtKK9Ska0bmGsTnQDLVV73siFFR1jJVukRpo/tqw16eLQ94aLToQovGj+ivILvIIHazRUdKe13OUbxepc38Nuc6+fVpr9Xa5pPJC7alxIN6JWhAyVTNH1b3DF72TobUdEhTTy96fD67TW+9IA8fHqqvv9rRyKWZsiNzZ67W5hu44XmVanZqiPfc8pvE9azhG3LnKXFysgQ8NVke7SDqskn3dNWJhlnL/PEsxne1iP0oPWV13QtSujXf+7NV/XfkZz2l1m0Q9PyGi+lhA9bD9L6kqMt/f0QNa2yVeYUPjNESFyswpsEsO69231kv3JGhEuF3kEah+P09Qx/JsvbPlTPc8AADQvFx//fUaOXLkWU3WY9B8EXQ0OYHqMSFVMzVbgxOKNXNmtLeyVH5A+UcGaMlCc/7iUI14fqqUnKQ5cxM1auNPNG/0uVRUyrQ9I0VznoxW5AMZ0uhs5abHqUelGup3IU9z7DEJTk+uadqgpRpWtdycRmXVZ0wHNLiT3pEVAn12vPytf5VbP1GPSpVZS2t16RUpHdihvXVcOee4/bwt/Qxe696WrCcWhGieeVyE+bm/kpMFWr04Tz1GDzodapTuyDX3o0jd0b1yxdzS9ZafmD/Xa2ehd96vnRla8E6IJoyOqhzk+Chdn6HlitVD/X3XEaFx76ZoSlR49cCoCne5lbRcqqBzSR486rmuk3latbhYXUf1rxz6+LM7XYMjumtwWkVwYSnQ5nfMz2pARPXHB4Xr9l5S0Y693rFBSnfowxypd5+I6u9b5whPYLZ2917vPAAAAFAHgo6m6OJghYV2UL/ZUxXToVjLH4jV8pJQjZgxRj1a2ct0iNbMpCClpe9SzJSxZ8rPilt73n9Fa81K2cqcLM2LDj2nv+qet7TY06HFsDSrIEJT7MFJ/U15r03VuBkZyrPnl0RbLV7wrSvIM/edQMXcWpFquFXyebHULUTBfirOHf/HWq5ER2v9w32ZdmzKNXcBl7oH20UVyvO04FevKWSudVzYZbVwb8nSogP99dA9IXaJdOiwVZnupHb+dpmOndTb3IbSGke4LdPqxSkqco1RTDe7qJpirVq2Xh1HR6v3OR5M3qDnTKjnHdwzR0Xl3vsbzP5d2mw+Z+8uHbSnymCi07MKVOpvMFFf7hIdOiB1Dan6QVlC1NH6uA+V6qg1e7hE1jsf1t7Pshd3UFgv8+mOlJrvPgAAAFA3go4myL0lRZMK4zQz2qygnQxW73uDlJbt+5dUt1kxmaaHZ0njkvpqc/wDmlSfikkNOvXpq67n0orja7cO2VdGqXkqkbuuq9D6u+pKLdz7cvTS1jqaBeDCKs/TnKdSdOjOqYqv6BaiMh2yerFcFagrvAWVtbB+FKjoiGfOr6KsiXr6nVDFP223ZKpwsliZT8Zp+fVTNfPeM8FFzcq0NjNDGhGrgT5dQEo/t46jGlpLXOy9sk9RSQ1JTEGGFr0TqBFxUfJXtffY+bbS8iIUH1WtSUu9XRGRoBXp6d4pdZbiI6UNyQnqe1+ytjdk2HGk2NONaPv8OA1e5tbQGanmOpM14Va3MidHa9iivDPBQ+c4rcnboTXxPttlHttF5q/gVv6/PDyXk95ZLE9PIHtdgZf7e+NbWh+JVFziXRYAAACoA0FHU7ItWREulyIeWqo9709T3/AuihgUqydWFuvo4ixttmod1mUx41wavLKtZq5P1YT4WVqTHaujydGKvG+aMnd+i/3ct8zWYD+Xkq08RWv6Fnv5htQ+uMauA7jA9mdr0n2xWt4mUSs9Xans8vNxskzbX4nVgMnFGpqSqimVxr9wa/uCBE3a94BW1Hd9+9do2TshGv/TyAZqpeTW5pWp2uM73kc15jJvpqronlgNrTb2SP0FdY5U7z72dGe0JjyXodzXRiqscKmeSPcNPM+PdywQaXtQtNb9eZZG3GmtM0rxCzO0JC5Ee15KVqbvJXkBAACARoKgoynpFquVy99Wbp7VuiFH81xSzLNZWvNnc0oN14dPRiv87mQVRS1V7quj1NWubwV2jtXLH+ZoyYBizbkvUuFxWZ6/tF5wrlnKtVti1Dx5t+PsHFZmfOVxOHynyMk5lbq7zNlmPwwXXFH2NA0eOk35tyZr3atj1LVKl6mWl9g3/HAfs5r2RCqsvXf+tNI8pcX/RMOWBGpC5mua59PVxFKUlajhGSGa94ekenfRys9equ0RIzWkahcT3wFFqip3e8aTCOvgp1+LO1fvLnfXPp7FkfVatlwaEVNlINYGENhzrMbfY74X7+3QHrvsfAW18W7nkOgBVcKjQPW+12pRk6dtu2oJTi+uLUJyq9RqfdKrk7f1i7lszUuXyv2l+atTSM0tZQAAAAAfBB1NSWCIwoJKlF9YeXDN0p3rVXJ9tB4aP1s526yxNMLl3pSi4f1dGvVSrkqsLisXt1XvcenK25qtlTOiKjf7b3LaKibNX2jinXLnuip1d5nS034YLpyTZdqcEq0BU/eqX+p6rZlt7mPVKvxtFWJdCCVnr9+g7dBBP+Nj7M/S2P6xymyfpHUfpCs+ouogoXlaPjlH7vIcTbrDT+Als9xlzSdru/cBnlCi+lVPvDqGRJo/C7XnoHe+kkNW94pwdWxnz/sofT9byxWhGFfNV3qpdoWXBtVaIda4JBVdQRpCS2/40K5d9YFZ1aat+UmZ211ey6gZweb3lfmr0lV3TivRIWtQ19Bged7O9iHqbf7as8/PwMEnS1S0s6axPgAAAIDqCDqamsKVGr5y15m+8abAL/P0RFaBgsPDTw/yGOyaqjU5GRr9TYpct8cpLc/+y2tQqLpedyEqWt+B0lwteCBJqw/Y8/jO5Kc9oOHpwZr5doYm9Kp58NewH0aZP3OVX+3KJWXatSVXcoWfbolktYB4fOg07Y3O0Jq50Qrz21qjk2IqxquoMr0QZ40XEa74hdb8ME+l2+L/qidewV26q6NylL+7egU+/x9/lVpFmsePXXBamTavz5a6Ral3TV1S/FzhpWEd1p7d5i9Xp4YLMUO7eK52snmXn8vMHDnsHTzUX+uW0zqpp/Vxb9lVvZVJaYE+3CL1+2EXb0uO9l3Us4O04Z+Vv9s8dnsHte3d5Tyujw0AAIBmhaCjiSnaW6CunUIqNfMOjIhU95Vm5cyePy0wRL0TM5T7SpSCLrFG82uiql11xRYUqZhhpXr64QYehBFn50i2Fi0oVMzClDqvdhLUp79iWhUo7Y3cyhXawjVanB3o6SZR8Xf7/IzntDp0on43obZLI7dWWMV4FVWnztYzBSvsVms+1O4uUsdVT8L7a4RZn16+LFtFvoP3luco8+VihY0drB5Vgwr3Dn2YLXUc2P10mFKVvyu8NCT3tiVKy5H63dO34bp3BLn08xGByl+y0nP1lTPc2vBGqopaxeqO7naRX63V+55oBe5cqswtleOLPavStbpVlH5+Z0VQEq6Bw803PiNDqyoFl/a6QhM0NMIuAgAAAOpA0NGkuLV3V171v2wGdVLPNluUb1UQTpqVyInJytxUqBK7bhEUEa2YbjVXFRu9Wq660jE6RS/3ek3DU6pUnPHt+dcurVWoAkvztHlTrp8pT0UVH05Qf42b5tKh9AQNe9Ks7Jr3b8hK1vAHZiv/zqmaMKCilUWx8nOLpWvMW1v8Pac57T6HgXXrvOpJqEY8O1JhOdM0ON48jt4315OdrscfSNTy9iM1b4SfxxXsUKb5q194TS0O/F/h5dwc1uoZSZqTkW2/D9laPiNOkQ8sVdGdszTz3tpaWJytQPUePUv9jizV8PsSlZbtXV/auGiNyuig+D9MPBMW7U7X4IjuGpxWeTDUoDvHaOadJUpLsC6Ba73mHGUmx2nYrAL1m/ZYpfcjLHa24kNzNOm+OM3JyvGu68lYjbXWZX4mF6YlDAAAaAr27dunpUuXntVkPQbN3aSdBpqA4xuNZ26cZXxw3JopMd54ONx4dqvnHuPTHVuMT4+ZN74pMXauWWE8M+bHxk033mZEP7XE+GBvqXehs+ZdR9zKEnv+LGydb9wwYoWx88tS42it0y5j2Ygz21HVob9MNaIW77DnTMdKjePf2LcrmGVHfcoOrRxj3DDf5zGoUeGnn9m3zp3n/b4xvJZpjPHG5/bCtkN/SzUSBt7muf+mHz9gJC7eYhyq9LnuMJ6t9jxVpjo+Y+/r8l33cePDX0cYNzy2xjhql9Tk6K6VxjP3W8eQuZ7bBhkJ89cYH1vHlx/e9Yw03ii2C6rat8KIvrG/seif9nw9bJtvrvfhlcYhe/6MUmNb6mNG1I/N7fC8DxHGbUMeM55ds6vSMXA2al6X7dAWY/FTDxi33WKt7zaj/yPzjVW7qnyn/GuJEXVLhHms7rILfJjfSR8ueszof5v9eu+faCzeXMN3ytFdxhvTq6zrX54vPAAA0EzNmDHDMGus5zSlp6fbz9IwGuLcGReWlW2Yn70CrB+eoGNuV89NNGIny5T/zxKFRYQqUHma0zlWeq2WwTaPFGpDVqoWLc7WnutiNeWZRMV08zOwoA/3wQJt31uqwGs6KfhIlqY/nCLNyNGSs/1L8bZkhT6w1J6pW3xt21FP7iNlnlYde7JGatiX01SYRFv3unxS9Llu6HiNPedwR7I1NnKa2qVv0cw+314Lp/yXBmjwxpHamBnbxAcBBgAA+G5s2LDBvlV/119/vWdqSM3q3LmJCpicL83rFkDQ0WTlaUFEnLR0hybUVZ+3ApK3kjVpVbh+t6yOytbBLI1yTZPnq6RVW/W4N1HzkmoaCLJmJW8lKDK7v3LTousYM8C6VKxLe8aef9CxPbm7hqW5Fdg+QuOfT9e4nk24u863pDl9WRdlxKrv4r5a89cx3143CHeupkfG6dDsXL0cVXvICAAAgMaNoKPxI+gAwJc1AAAAUE+cOzd+FUEHg5ECAAAAAADHIOgAAAAAAACOQdABAAAAAAAcg6ADAAAAAAA4BkEHAAAAAABwDIIOAAAAAADgGAQdQDN20UUX6eSpU/YcAAAAAH+sc2br3BlNA58U0IwFXtpCx49/bc8BAAAA8Mc6Z7bOndE0EHQAzdjlrVqq7Fi5PQcAAADAH+uc2Tp3RtNA0AE0Y60vb6VTp06p9D+EHQAAAIA/1rmydc5snTujaSDoAJq5tlddqSNHywg7AAAAgCqsc2TrXNk6Z0bTQdABNHOXtrhE17S7Wv85Vq6DJV/qWPlxBigFAABAs2WdC1vnxNa5sXWObJ0rW+fMaDoCPD8n7TSMuV09NwE0X1bfQ+tL3f31CU/zPAAAAKC5sa6uYg08ao3JQXeVpiVgcr40r1sAQQcAAAAAAGjyKoIOuq4AAAAAAADHIOgAAAAAAACOQdABAAAAAAAcg6ADAAAAAAA4BkEHAAAAAABwDIIOAAAAAADgGAQdAAAAAADAMQg6AAAAAACAYxB0AAAAAAAAxyDoAAAAAAAAjkHQAQAAAAAAHIOgAwAAAAAAOAZBBwAAAAAAcAyCDgAAAAAA4BgEHQAAAAAAwDEIOgAAAAAAgGMQdAAAAAAAAMcg6AAAAAAAAI5B0AEAAAAAABwjwPNz0k7DmNvVcxNA81V2rFzHyo/L/fUJnTp1yi4FAAAAmo+LLrpIgZe20OWtWqr15a3sUjQFAZPzpXndAgg6AOjrE9/o8Jdfeb7UrS/zli0v1cXmbQAAAKC5OXnqlI4f/9rzR0Drj39tr7pSl7a4xL4XjVlF0EFNBmjmrJDj80Nf6HuXt1L74Ks8yTUhBwAAAJor61zYOie2zo2tc2TrXNk6Z0bTQW0GaOaslhxtrmitoO/RLA8AAADwZZ0jW+fK1jkzmg6CDqAZs5rjWd1VCDkAAAAA/6xzZeuc2Tp3RtNA0AE0Y9bAowywBAAAANTOOme2zp3RNBB0AM2YdXUVa+BRAAAAADWzzpmtc2c0DQQdQDNmjSLNwKMAAABA7axzZuvcGU0DNRwAAAAAAOAYBB0AAAAAAMAxCDoAAAAAAIBjEHQAAAAAAADHIOgAAAAAAACOQdABAAAAAAAcg6ADgPOVFygtIUoD7janhHTll9vlAAAAAByHoAN1ch8pU2lNk9teCGjEti+eJSVma9275pRQqicW59n3AOfhpNv/96I9uU/ay30bzve1HMzSqM7RSiu0531sT+6uyKnrVXKyTCWldiEAAEAjRtDhMKV56ZrzVpUz1ZN5WnB3gtLyyuwCH+bJsb8TYPfpv3ibj42MVEQN0+PZh+3lgAoFShsaqcHL/dSY6rLzFQ1LeEXbz7Yy5c7VdFeUhk9M1vLsPO0pOYsEroYK4tlWUrcnd1HEjBw1SD3QU+lMUOZBe/6suLVhVqzmvM+xWZlbReuTlbapyr5hvtdjY6Zp7X573pfbz/ej9Z1Z8RQl2Xrcz/dixbSgrjztgPk5u6KVttOer1We5nTuotBqk72f5KX4fQ3eaaJWlXifpUbtOylMndSxrT3vo2OnSJUEBSv44Do9PSJZ22kRBQAAGjmCjqZmW7KfE13zxNO+O6h9sPbMmKrlviftBbla7e6u3j9sbRec4d70nMLDqz5fF4U/lqUz58UuzcvZpcLdlaeV8fbdQCXh6tHna+Vv3OGzD9XP9r+kavu/pMDL7YL6uiRC8b9L0tAffK0PFz+mwX26K9wVq8dTsrTdfBE9Rk+TUuyuK6lBen50hP1AUw2V1TPHRZTmbKsrODmsPbul0lZBCrJLvitFWYkau7xUpe7jdkndSgtz9FJcpLmt5xqu+NifoznjohThee8iNWBcslbv/naafpVkJdifmc8UX/FdFqh2wYHKHPecNvu8nNKtOVp7TaR6X2cX+NiTGVv9+zHc3LdSfBOMkVpZ5buxcHeO5rnsu2tRuiNHG0oj1SPcLqhVhKZUW481pSqmvXl3zyQ/95lTziz18z5BNVY4d2bbYpWmbI291acsuUpS0yFa8+MKNSo5R9/OJwoAAHBuCDqaEusvz6GJ1U5kC7aOVdeKvzq2j9KE0Yc1Z1mufSLq1uY3UxU8epC6XuwpqCTw8ksl1yzl+j7nayPte4Fz07VPtAJzcrT5iF1QH+5crcpwq0cN+2qtLg5Ux24uxcRP1curclTwzxytmRGlKwqytPnf5v2twhWfanddSY1T11beh3m0j9YS3/2/YipYp3n3tDYfG6jAE1/bC9ekVO4vpX6dQuz570bRO9P08ORc9Z6bar72ul6LW0U56Xo8JlIR96Xow+NX2OXnwWqhMDRBy4u7aPzCdK1ITVK/L1/T41HRWpB3dlVjK3xJmxinwa7udsU7UgPuS9T0jFyV+GttY34/BvZPqfY5Fjw3QEH28oERozS+b4YWZBV7C1SsVctyNCKmv9+A6opWwVJ8RqXny51bjwSjXsq0Yf166d7u6lh6WHu25WpDVrrmWNv8ZHa1kNDThdBPX8GayuujR5Lve5Wh+KqhTZJPIGgLHpykl/t3UaA9DwAA0BgRdDQlnr88V5z0n5nCb43U2LcOn+6G0jU2Q+uSIr0nooVZWvD+A5oSbVZ67PuBBmUFcD5dPkr3F2j7yQ7qp/V6KyVdC1JSvJW3+6IUkVC9AlfBnbtey8sjNLTP+YUF+a/EadL64wq7M1YzUzM0rpt9x9koL9BLDw7WpI3dNTMzQxN6VW8N5ct9pFh7dpoV6SO7tDnbrEinzNbY+6IVmeDbMspXTd0Q7Mk1TRuUo0muqvedab1VlXtbsh5OzDIr5ul62Tre6xSo0r250oDfamNull4YFmqXn6vDypxuvu72I7XitWTFR0Wq953RmvKq+f6FFuqlOVkqspesVXmhlidGKuLuifrg8v4aHWcFC5GauSpLz4+K0NE3EhR5e6JWH/AufprVdeNWP9+PkXYXEk9/k9YaOHWdlvzc+/64c5ZqTtBUje9jflv666bSkDzdkXxfW6Qef8csz0hU5N0j9cSzqXprd6k69k3QvAn9Fex9lJfVvcZqaVTD9kX4CUZq5bdloNWiY6mGVSvvosjJOVJarHc+PErDzc/Euj1nm/18AAAAjUyA5+eknYYxt6vnJpouq9m254S0FvGv7dKUnvaMxTrhfbmTctOiz5xYVyqzKmSpCsuxm0f7sJo9L+qUoyXRfjp1o0n4pOhz3dDxGnvuHLlzNP2HCVrumQlUcHio2lktMsqLlV8YoiFjXOp2fXd1bR+k4M7hCgv297fgMq19MlJjTyab9dWoc+/+UfCKBgxNVcjcNeZ+eY6BSWmuFoxI0EvuKL38h1ka2MEur8La/4el2TMe9rZf1Um9I8zt/GEXdf1BhLp28P+3b+sv8TX+Hf7gGo0dul53r/qthlY67i5VUBs/z2e1pBg0TcXRqVoxxaXgs20RY/J+f0jz/Bzr9bI/Q8P6z1bQ3OrfCd7nLtHMd7M0orY85WSxMscN1qR9UXrhlVkacp35cbyTpIjEtlq5O0k9Ki0zUitXJaqH/7e3muqfV1VWF73K2+553XsTKrVsqFRmhReuvRpf8dpOO6zMeJf2jPX5vrUCwdKKlkFHtTklVo+XTlPuQv+tSRqM5zWa+9K5fq4md85shW+J8tvCAwCA5qRBzp1xQQVMzjdPaLsF0KLDaao0sz4z1dJnPGeaIn3+ehf6wFL7jgr+/rJcV6UBzUagSzNP72c7lLsqS2v+bE3PaUSrQl3xowTFR7vUu09EDSGH6chGvZUtjYg+v0rf9nWp2nPPLL1wriHHgfWaFBOnNI3UisyaQw5Lj/G5yss1p607VLjM6u71gF6wtjs9WVMS4xRzZ2SNIYclsE1rBdU4Bcrzn5/yag5ka+x907S9b7L+cI4hR0Mo3ZWn7QpRzy7Vg8/gLt3VUQXa9i8/AyL72JORpElbIjXvD96Qw+IuL/V0Hzrt4hDFzDU/m8JXtHh97c9XVb+5OT7fib6T1W2jBhUtGeypepjsrxWES5OqLnZx4JnP8UiOFmeEaMr4s9nfrfCk6nrM6fQYJOfLCrWTtNbPaLqeLo6FxWfWQ8tAAADQyBF0NDXVmj+bU9UB485WnWN0MBgpzkErl0ZMCNfyOUuVX0fFqOT9bK1tFau7I+v55/manL4cxjnYn6Wx9yXq3R9M1ZrXEtW7rhpoK7vSGhSoPR/nSr06KeRcQ4aDuXqpYgDPCJeGzcjSXvuuWpXkaPrDSdrQfZbWLIxSx+8o5LAcOmy94lAFt/HOV9KmrTqZv/YerqVK7s7V8gV56jdttmJ8AqaiYvO9vTVEHe15jzb99fNYae37Wypf5cZPl4xRWed59Zk6x+g4y8FIrRYpyc+pqH8X5U+yBoCN1PC0gnoM7tlWMWlV12NOFa3xqnYhOz25/T739hS7G0xklAbfF21OU5WpjVow0rodrcgIn/ev1RXq+I39LCdzNadnrM7lokoAAADfFoKOpsbfwIk0J0YjFRY7WzODUjQ9o7ZaUbHefSNHHUdHq/d55hxd7xqpju+kalGdV0mpzG1d1nbobJVETdWULnmafp9VAbUqepEaEJektPeLa6mIlmnvjgIF9uxkV8YPa+3UypXFisnvmAblOZp+d5xWtU/Qypxc5f55tnp8mVf3eBbuPE8Xm8zrZ2ndS9HfachhKf28wPwZonb+go6LvR9s/ue1XHx350Zllkfp5/19W4RYlXfzne8UUnnMCgWq6w9dUvYO7bFLPPxceaSxda0remu2pn8UrHYngzX0ub8qNz1aJcmJZy4xe/Kwtmcla1RCPcc0qVDT5WXN/XqzvYivHok7vO9RbrbdAmu2YhSteZ7bWcrN83n/rKBqa7H39ezO09rOUep3vkO6AAAAXEAEHU1NXS06qjSzPjP5aUpdH6UlOqQgXeF7lQqgvi4O1YjnZylowWM1X6J1f45W5YVrRESpXkpwKbxzd0UmpCu/3L6/DqUlZ7ovBPZM1MzYA0p7OFGZvoNVnnSrqNB/WFG6JUXDHkzRdrWW+2Ch3B1iNXPpX73dUtYv1fhbS7QoYYAGz8qt3HrgtL3a+b40sLPVZsESqE5RSZoyIUkv/znH+zz2NMFPJlm6MVvL2yTq+SlRCmvfWsGhLk150mpVVaiS2q5ac2Sv8guloTHfbUuOyi5VkL+wKjhEYfbNmuzZlSt3r0h1qdSS5oCKPpJ6d6rehyi4g1XTPqwS3w+ljhYdGyZ7B9GsPlkDcZ6DI4e1t8MV5ideP54BYyfnqusvUrQydYx6X2d+3n1iFd+rWO++t14bXkpQZE+Xhs3KlkKDqjRQqkfXlaqt86yptsvLpnkDuTMtOrI06fS8OU1d731u6/MrL5N1cZf8nCwF3+uq3MIGAACgkSHoaGpqadERHJ3qnbe6nlSc8PreNqdKA5HWR1mpeaKbrbG3Vj/BZowOVHLysDZnzNbYoVZYYe8nES6zspSrsHuCqocPtvx3l2q73MpMTlZR/1eUk5Oiof96TtPfqrgEaG0KtWpMpIZlVCwbqH5J6Ypvn6NJT2Roj91lxr3pOQ24+zmtrRIclOTM1rCHXtGe8DFa8W6O1rw0VSOiIjyBg6dbynXhGjIuXbnWcbQ8QQs2+YlKCndpQ3mkbr+54sosrRVmVth794lUj9C2Z8ZlMKdAP4GE223W1Duay/ne18L6Uaxtu2rpdtE+SuPjQ5X5ZKzm5Jxn94wGUyV4qHBwb+WWF354WoR0q2gVYyvdq207pa7/42fMFc97VKqjvoFYLS06Ki6l6ul6YndH8b1duPscBus8elRFB1I02Od70Tv5CZYPZGnsw0vN9aVrxZjwM+HIwQOelhL5LyXq8Y1BGr0wW3nbcrQkqb/CKiUodXRdqYnn34watu3LAvX+VcWYOpVbdKz5XayCD9of5sXB6thth4r2F2jD6+F6qM5LFwMAAHy3CDpQ+2CkRXu1+c7k6n8lNCfG6MBp1iCeg1wa9Uapeo5+RevsFgy5f/6tJkR10KG9e71dNF7Oqdwq4qRVcfKGFP2eydC86HAFt3fp7nuk7Tl5VQZZPKzVM2ZrdaFP2OD2Xta1R6hPxatVhKb8YZb67Z6tR9Ks7hRSYJ8ojWi1Xsve8Q1P3Dq0u1hBcanKeTVRvWup5Ab2tP7q7tbyTd7n81WyI0f5HXqpay0Dl9YmuLtLPbakK+19O6xwFypz8Wuem5uLawt7As3Ku1khHRuo5fGDNDarPsHQhRN0Tbj5s0rwUEXXa85yqNmPd2itotSziz3vo6TI6g71LbQ2q2Uw0qJPCxQ4zt8A0NXH6HAfcyvozln6w4QIb8hRWqDVyXGKcCUo7SNzPi5deZnJir8ztHLodYFl/qqGFh1jUny6vIQq7EcF+nBxuhbfGauB/ronAQAANCIEHU2Nn6bZVUfdL9lnVgA6d6r9r3y+ahmMNP8ff1XXPl3q/1xohsq0dlGSMkNmad2fzYpaVLg62i0YgkMj1C86US9k5ipvVYbWTHFVvspEQY6nlUePab/VlJ5n/nzdsZNZSzxkVprtea9iffxWhrb51ucLdpiVM5fVEKCyDtGaYlYo9yxI1WqrFcfFERo6OkTb38rxGfcgUF3jU7Vyssvcv8u0PS1RAyKtY8rqOpOs1bt9W2+0tHpl+GE+blOOAu+J1DlfoPu6WL2c5tL2J+1uFT+M0pzAkYrvZb4v19Q1voS5DWPStWZad22YPFijlhfWMpbIhdWurfUh1NDd5mCxp9Lcqe3ZfZPkb/2r3BERVbqzeBXtzjU/504K8bnPuvRrte/HKoM1F+3NUb9OZ9EiocbBSMu0a0uuYrpbAU/dAjvH6oWF3rFU3LszNLZ/tJ4p6KWXc3ZoRay5gD2OSc2sq6JU2TZreugsx/KoIubZGlp0vJKo3vYylq4RUVq7qlgThkeeaY0CAADQSBF0NEW+wUS1/tdu5f8zR0N+WLXm51/p0a/V9brgyieuocO0YkJfBXv+2i7dfSujzqE2e7Uty60RD9U+VkRQeITCKv313a3Nb6aqqFWsxkdX3scCW5m1153FlVt/lBQrvzxcYSFn9tY95r7u7uZSFz/157ChcRqi9Xpro7elRNdeP1FgXo42H/TMVlL6zlQNW2Ruwx9ylJeToQltcvR4TKJWVyx7slh7tvppkeDeoQ+zzcpir/pVdmsS7ErSmm07vGN55O1S3tzuKt1ibkP7+gQDgQobkap1syO1eVa0hr9Snyt4NLygH0Soq4r1wY7qLUs8n5Ncur17Rfee6gKvCKlyCVNva58e/saDcOdqVYZbHYe5qgdMvsFEtStIFSp/i/9L4PpztNyt3lU+86BeCVr5c/Pz9lwSOUq3R5xltb88R3NiZmtvdLpy0sbU2pKouipXwLK271JPDFe3Gq58VL8WHeZ7UWYejW0jzX8v7AIuMQsAABoxgg6nOZKjt97qrzt71VChKC3U9sIzgzcG3TlVa6ZV+St7m1D1Dm+roqwULeg0RjHnV4dDM3H02Nf2rXpy5+ndLLOyOjpa/ap0PwhqZ1VEv/YMfljBXZCnDequjqe7iBRq85sF6jiwu/+BLoPCdXsvafN+u+J9Y3cNVI4+3HFm/6+wZ9d6KTZBI7q1VVD7cMXMfk4T2ufo6WV5ZoWuTJsXTFVauUsj+lcOZNy5OVou38puoZbf10VzttizZ+PiQO9YHq3c2r4oWZlnebndjjHesCN/Qex3E3aEuhQTIW1flqHtvt1XynOVuaRAuidKd9dSqQ/r5lLg++u12W4R4t6SpUUHIjS0T9XWF+b7kzJLy83PY1z0WX45FazX8iPm/tbZnq/qYIG2+wRhYSPStWJElRCuQ4R6mJX9zam/1a74WPWrkn3V5fTgsxMiv8UuKoeVOc6ll6pcidwatyTv3RpadKzKUUHF+B8Fr+jhOSXqGrRU71Y8x/4MDZ9RpSsaAABAI0HQ4SQni5U5OUm74uJq7kNduEbD56yrMvZBdZ6rA0wt1cwpdQx0B6iTekYHanVKijb4aS1Rk9L3s8zKaoSnq0s17Tupt3aoqGLwUnPfXmVWoANH9D9zCVqz0pq2M0QxfazHu1VatcblPqD8j8zK6lV2TdQOPtbu3uud9xHWPVqBGclakF2goiNl5nOFqPdPQ+V+Z5YG3x6p4RmBik8zK4KVKupmhXtjluSKVI/Tld1SFVVcJvRcHCkwj+Foz0C/8X+YeNaX2+0Yk6IV40I9YUd9xuxwH8jT5k253mm39a1Qoj1b7flNeSo6q7TE/CymjFFY4VINfyBJadnmc2Sn6/EHEpR2xKV5SVGVA9UqAntFa3zoej39SIpWv5+h6bMy1HFckmIqWhBYTh7WhrmxGp52QP3mTj27wUPL8zTniVSFJEaraw0BQ4l1BR4r3KpDUVaiRr3h0szx9ngbZ8Hf4LOegVIv5GXCrRZJW1pajX+8SrKrX73Lc+WZpRpWpXz43BSNHblG/f6QoRWJ/ZW5Yr0n3Cj9l7nvBAbW+pkCAAB8tybtNNBEbJ1v3HBjeOXp4ZXGp0d3Gcseu824acgLxrZj9rIWa/mfLjG2fVlqHP2yxNi26AHjphd22Hf69+maqUb/GwcZz2wssUt8HC0xPrWea98645l+4UbiX0rtO9AUFX76mX3rPBWvM54eaO2Ptxn9H5ll/GbFGuPDv23xmfYaR+1FvUqNVY+Zyz+2pkp5hb3GYvP5bhqTanzwtzXG4kcGGTfcMsZY9bl9t+no1lQj7mdLDO+3V4nxxsO3GdFPvWC88Z65vvdWGs+OvM18PQ8Yy/Z6FvDY+eZ8Y9nGIuO4Pe/r0/fmGwlDfmzcdPrYMrflp48Zz6zYaHzs70Ue32I8c0u4EbfS9zgpNd6dFGHcdP8Lxqp/FpnHnHXcnZmOf2Mv5uvzXcaHa1YYz4zxrvumH080lu06n+PquLFtvvl+3RhhvrYiu8y/QyvH2NvqbxpjvOHzftfX8X+tMZ41P69bPM9h7Q/zjQ/22XfWxdyPnvmZ9bmZn+X0dcan9vt1vHiXsWrxRCP6NvM5b7nPeNbfd5PJ7/bMN7/vPt9oPDskwrjF3N8qntPiWX7SOuOQ5/MpMlY9Zb5nb/p/bo9vSo1tqeZ3qLkvLvtX9b3ouPkdaz3XoX8uMeJu7G8s2mXf4evzleZ9EUb0nJXGB372kdNTtaffYTxbddusyfz+P2TdbX3X3zLReGNvSeXn2We+dy9Yr3m+sc3f/nea9fzzjQ99l9m30ki47TYj4U17P/pml7FooPkepa4xFj3M9z8AoPlpsHNnXDBWtmGnHCaCjqbDOpmtOLG1HC8ytu0oMj42T9ijJq00PvYNOSzHdxiLPBUH66Q4wrjt/lnGu8X2ff58ucP4zciRxqIdNZzAfmOeDJuVO+9zpVYOVdDkNOiX9TclxraVS4xnHrnPiPpxxJmKmDXdNtF49/ROazq+y1hmVoafrqWidPxfK4xEz/OY+9qYuirLx42P//KCkTiyooJt7Z8TjWU17ccNYd8aI/Fnj1UPA47tNVbNf8yIGlhx3J2Zntnop3K84wXz/brPSJi+whOO+A1DztY3RcYbT5jb76cy3hQd/ctE47aBjxnPrtxhfFrLJnmCCyvYqPDlXuPDf5nfkfPvM6Jf2GIcqvrefm5+hqf3VSuUWWLsrOU77fjeNcbTI6caq2raFz0hhv1cT1UOVXwd37fRWPzUSL/7iDXdZO4PT/+lauBiBRFVwqd964zfLNpofGrdNo+pxeax198Kg3yf77ZBRtQj841Vde4LVZ7/+F5j2UjrdVQJy4q979lNQ8zvf2fsXgAA1BtBR+NXEXQEnA465p7zNQMANFGfFH2uGzpeY88BAAAAqAnnzo1fwOR8aV63AMboAAAAAAAAjkHQAQAAAAAAHIOgAwAAAAAAOAZBBwAAAAAAcAyCDgAAAAAA4BgEHQAAAAAAwDEIOgAAAAAAgGMQdAAAAAAAAMcg6AAAAAAAAI5B0AEAAAAAAByDoAMAAAAAADgGQQcAAAAAAHAMgg4AAAAAAOAYBB0AAAAAAMAxCDoAnLftyV0U2jlZ2+356g4rM95cJj5LJXZJJSfdKtqUoenjohUZYT2XOUW4NHhcsjK3HbYXqsXBPGWmJGn43ZHex5pTuCtawyema0Nhmb2Ql/e1+p9GZZ1Z13e+TaWF2pAxW2OHuhRe8Rojo/w+vr7bpG3JnrI52+x5P0qyEsxlEpR50C6oonRnthZMjNOAyIp1RGpAXJLS3i9U6Ul7oZqcxTZVvFa/U03vOQAAAGAi6ADw3Sov0EsP9lLfuNlaVdJJQ+Om6oX0ZM2MG6Dgf76mSQ+4NGDyehX5rUS7lZ8WpwhXrCZlFCu4b6xmLkzXCzPGaERkoPasf06j5qzzUynurynp6VpRZRrfq7V9/3k6r22Sit6ZpsGuKI1KXid392hNmJuqJXMnatw9neTeutR8/BI/AcwF3qaTxVo7OUoR9yUpLTdQvWMnal5qquYlRavLsY2akxClyAdfUX65vXwV57ZN0sDJ1bdpxfhIBdn3AwAAAP5N2mkAaH4KP/3MvnV+ts0PN264cb6xzZ6vrsR442FzmYdXGofsEo9viow3xkSYjx1kPPNeiV1Y2adrphr9bww3+s/fYRy3y7yOm+sdZD42wohbtss4+o1d7OvoLuONxesqrbPu1+r13WyTed/KMcZN1n2/3mgc8rdN35QYH76wotLrqu82GVvnm8uFG89utef9OGSu/4YbxxhvfG4XeNT9Xh/dkWpE3xJu3DRmpfFplfvPZZvq81oBAAC+TQ117owLx8o2rIiDFh0AvjOl7zynSe9L/eamauadbe3SyjpGzdLzE0K1Jy1JaTvtQpN7W4qeSCtUj2lZWjIiXEEX23f4CgpXTHx/Bduz34bz2SYdzNL0yTlSbKrWTHMp2N82XdxWvRNj1cOe/VbsXOp5r8Pi0/VyDe91UMQYLZkbJb0/TXPe8eku1Fi3CQAAAI5F0AHgO1KsVcvWSx0SNOHeELvMv64xCRpoLr/oL3l2SZnWLluqog6Jmhkbapc1BuezTVJ+1ivaoP6an+hSoF323XNr85upKjJf1/jREbW+rqABcRrfQVr71pnuQo1zmwAAAOBkBB0AvhulBdpm1vE73u9SV39/5ffVJkJ39DKr3Ft2aY81796hbe9IgfdE1v3Yb9P5bJMKtf29YsnlUu82noJGwnxd77ulqCj1q+t1XRyuHgPM3zkFyjcf0ni3CQAAAE5G0AGggSzVMH9XyPBMLk3KsRerUF6qUvNXp7b16VgSrHZWw42dxZ7H6EiJisxfvTvV3mqiZv5eq78rrHyL22T+LLK6sXTudI5dbeq7TVLaA1WXOzNFWt1MKnHr6AHzV/vgeg0AGhwSbv4s1qEj1tz5bpP/11rbVWMAAAAAgg4ADcT/VT+8U7Liu9mLXWDey6P6Voz9XSrV32sdpjD73jMaxzb5u9Rq9cp+fbephiuZ2NMLcVZQ8S2o1zb5f60xjam3EgAAABodgg4ADaSDevSJVG+/Uy+FXWUvVuFi74gNew9Xv/hrdSU6VGj+cnVSR2u2lscG9Uo4XSGuudLu77WG+mmx8C1ukymwlfnjYIndwsNH6LAzFf3J/e3Cquq7TVLHm6su5zN1rt72osbX5UdJcYH5M1Rh7b3z57dN/l9rGN1gAAAAUAuCDgDfjeBO6tlBKlq7wx6johZH8vTBFrPS+6Mu3i4QFY99b4enC4uvwA4RZyrFfirtF9T5bJM6qdud5q/3c+3xLXy0CT2zTTebK/hW2a8rO1fbq76uqk4WaPs683dUd7slSWPdJgAAADgZQQeA70i4hoyOkHY+p0W+lyP1Iz8zVWsVofj+FS007MfmPae0nLpq39+m89mm1uoXHavA8gwtyLSaejQW9utShuYstVpr1Kx0XboWHQjUiHtddkuSxrpNAAAAcDKCDgDfmY7RSRoX6tbqySO1YIu/YMCtPRmJGr6gUGHxSZXGZuj482maYD52+WOxmvP+Ybv0u3c+2xTYJ1EvRAVq+6wHNDajQKUn7Tu+Y4F9EjT/zkDtWTBSY7OK7dLKSnKSNXxytnTnVMX3OXMh2ca6TQAAAHAugg4A353ACE1Ynqr46wr10kORiohJ0pyMbG3elK3lKbM1ytVLA2bkqGNcqlZMiNCZ6rPp4nCNy8zQhPBCpSW4vI9NydDqTblanZGiORNj1d++gkjLapd6PaDt5nKbq055xTrv9iHns01qrYHPrdEL0cFaOyNakXckaHpKujLfz9WGrHQtmJGgyIeXmssFKvDb3Ca11ZCFWZp5j7R28gCFu8zXlZalDZtylJmWrMdjIhUZv1RFfadqzcJodaz02s5nm6Sij/xs06Y8FTWmhjwAAABoVAI8PyftNIy5XT03ATQfnxR9rhs6XmPPnbvtyV00LG2kVu5OUg+7rLLDyox3aZJmKTctuvqlRk+WKf+dJVqctd6sPBd6B660xnBw9dfPR43SkPDWnsX8Mh+7Z+NKLVqerc07ClRSbpa1aquuod3VY1i0RtzjqjR4pfe12jNVuc68vu90m0wl27K0eEmGNmwt0B7PpVpbK6xbF3XpG6WHhkWpR4czEUl9t8lzpZMHlir+tV2a0tNzbzXWVWsiJ0vzclIVYw8o6qtkU4YWZWTp3U0+73WfAYqJTdCIPm29C9XgbLap4rX656rx9QEAAFwoDXXujAsnYHK+eSLbLYCgA2jG+LIGAAAA6odz58avIuig6woAAAAAAHAMgg4AAAAAAOAYBB0AAAAAAMAxCDoAAAAAAIBjEHQAAAAAAADHIOgAAAAAAACOQdABAAAAAAAcg6ADAAAAAAA4BkEHAAAAAABwDIIOAAAAAADgGAQdAAAAAADAMQg6AAAAAACAYxB0AAAAAAAAxyDoAAAAAAAAjkHQAQAAAAAAHIOgAwAAAAAAOAZBBwAAAAAAcAyCDgAAAAAA4BgEHQAAAAAAwDEIOgAAAAAAgGMQdAAAAAAAAMcg6AAAAAAAAI5B0AEAAAAAAByDoAMAAAAAADgGQQcAAAAAAHAMgg4AAAAAAOAYBB0AAAAAAMAxCDoAAAAAAIBjEHQAAAAAAADHIOgAAAAAAACOQdABAAAAAAAcg6ADAAAAAAA4BkEHAAAAAABwDIIOAAAAAADgGAQdAAAAAADAMQg6AAAAAACAYxB0AAAAAAAAxyDoAAAAAAAAjkHQAQAAAAAAHIOgAwAAAAAAOAZBBwAAAAAAcAyCDgAAAAAA4BgEHQAAAAAAwDEIOgAAAAAAgGMQdAAAAAAAAMcg6AAAAAAAAI5B0AEAAAAAAByDoAMAAAAAADgGQQcAAAAAAHAMgg4AAAAAAOAYBB0AAAAAAMAxCDoAAAAAAIBjEHQAAAAAAADHIOgAAAAAAACOQdABAAAAAAAcg6ADAAAAAAA4BkEHAAAAAABwDIIOAAAAAADgGAQdAAAAAADAMQg6AAAAAACAYxB0AAAAAAAAxyDoAAAAAAAAjkHQAQAAAAAAHIOgAwAAAAAAOAZBBwAAAAAAcAyCDgAAAAAA4BgEHQAAAAAAwDEIOgAAAAAAgGMQdAAAAAAAAMcg6AAAAAAAAI5B0AEAAAAAAByDoAMAAAAAADgGQQcAAAAAAHAMgg4AAAAAAOAYBB0AAAAAAMAxCDoAAAAAAIBjEHQAAAAAAADHIOgAAAAAAACOQdABAAAAAAAcg6ADAAAAAAA4BkEHAAAAAABwDIIOAAAAAADgGAQdAAAAAADAMQg6AAAAAACAYxB0AAAAAAAAxyDoAAAAAAAAjkHQAQAAAAAAHIOgAwAAAAAAOAZBBwAAAAAAcAyCDgAAAAAA4BgEHQAAAAAAwDEIOgAAAAAAgGMQdAAAAAAAUMWYMWM8E5oegg4AAAAAAHwQcDRtBB0AAAAAANgqQo4HH3xQr7zyiuc2mhaCDgAAAAAATL4hx49//GPPbTQ9BB0AAAAAgGaPkMM5CDqAZuyiiy7SyVOn7DkAAACgefIXclhlFeXWObN17oymgU8KaMYCL22h48e/tucAAACA5qemkMOXdc5snTujaSDoAJqxy1u1VNmxcnsOAAAAaF5qCzmssorBSK1zZuvcGU0DQQfQjLW+vJVOnTql0v8QdgAAAKB5qSvkqCizzpWtc2br3BlNA0EH0My1vepKHTlaRtgBAACAZqWitUZFoGGpWmadI1vnytY5M5qOAM/PSTsNY25Xz00Azc/XJ77R4S+/8gywZCXVLVteqosZbAkAAADNkDXwqDUmh9VdxWrJYYUcl7a4xL4XjVnA5HxpXrcAgg4Ap1lf5sfKj8v99QnPlzoAAADQ3Fh//LMGHrXG5KC7StNC0AEAAAAAAByjIuigbToAAAAAAHAMgg4AAAAAAOAYBB0AAAAAAMAxCDoAAAAAAIBjEHQAAAAAAADHIOgAAAAAAACOQdABAAAAAAAcg6ADAAAAAAA4BkEHAAAAAABwDIIOAAAAAADgGAQdAAAAAADAMQg6AAAAAACAYxB0AAAAAAAAxyDoAAAAAAAAjkHQAQAAAAAAHIOgAwAAAAAAOAZBBwAAAAAAcAyCDgAAAAAA4BgEHQAAAAAAwDEIOgAAAAAAgGMQdAAAAAAAAMcg6AAAAAAAAI5B0AEAAAAAAByDoAMAAAAAADgGQQcAAAAAAHAMgg4AAAAAAOAYBB0AAAAAAMAxCDoAAAAAAIBjEHQAAAAAAADHCPD8nLTTMOZ29dwEAABoaMu3GEr/0NCuz6Xyr+1CAHVqdanU5Rop7vYAjejlPXU/G5v/vl0f5m7VZwf/ra+/PmGXAqjLpZe20LXtv6/bI29V7x/1sEvR2AVMzpfmdQsg6AAAABfMRwekkUsNHSo7pdL/nn0lDYBX0GWG2rW+SEtHBujmDnZhLYo/O6j0FZkqLSvT8eNuuxTA2WrZMlBBrVsrbniMQq5tb5eisaoIOui6AgAALggr5BjwwintOWQQcgDnyTqGrGPJOqasY6s2Vsjx/O8W61DJYUIO4DxZx5B1LFnHlHVsoWkg6AAAABeE1ZKDbipAw7KOKevYqo3VkoNuKkDDso4p69hC00DQAQAAGpw1JofVXQVAw7OOLesY88cak8PqrgKg4VnHlnWMofEj6AAAAA3OGniU7irAhWEdW9Yx5o818CjdVYALwzq2rGMMjR9BBwAAaHDW1VUAXDg1HWPW1VUAXDgcY00DQQcAAGhwjM0BXFg1HWOMzQFcWBxjTQNBBwAAAAAAcAyCDgAAAAAA4BgEHQAAAAAAwDEIOgAAAAAAgGMQdAAAAAAAAMcg6AAAAAAAAI5B0AEAAAAAAByDoAMAAMAhHh1/kYqmBeiX9rwUoDWzLtLfHwyw5xtAvwAVpVyk/y/aOzvRXOeagd7bAAA0BgQdAAAAjhCgvt+XAkul39sl+pF0U5B0tMSwCxrOV194fx89JkX+34u05i7vPNB03KUnpz+jF5+8155vxH48UsnJv9avYux5ALUi6AAAAHCCflJkkJSz5Uyo8VCPAH2/1NCytXbBBfD79FOa9bHUt3+AHrXLgKahROWnLpFaXymXXeJUrpFPaOHssfqZPU9wAqcj6AAAAHCAZ28L0BUHDE3ItQvaBuihTtK/i6X//ihAP6tp6mYvX8F83BB/y1VMx6SvzMUuCzpTdjDX0KwPpIPm7SE3ep8GaPw+0r/LzF+Xt1aIt6DhXd1Hj057RjMeuVeuBl9JG3W+ua9+9uBIPT15ihbO+bVmPNjZvq+ySwIvU4tLL1ELex5wOm+HzUk7DWNuV89NAACA8xWUeMq+hW9FtwD9c3SA9r15SoM3eIsGxF2klRHe27X6t6GgOT5dW6wxOH4aoCvs2bN19GNDHRc1fFcZVFeaUv1vlo8mPWPfQn3cOjJJv+gi7V63UZ9c0VEh379GV7dprasvb6nSj57XjNeP2EtW6KH4yVG65dRuvTj/de22S2sU0kM/G9RXvTu1UYtTx3Uw7z398fVcFdt3++oc+6jirz2inFWvKvtju7CC1QJjcKjKPzYfe9H/6Ptt2+jq1i3Vwt4FThw7LpmvucUXH5mva2W113XnmCn6aacybU56URlWgf18R7c+o2czPYvgLLyY/Gv7FhqbgMn50rxuAbToAAAAaNICtCgqQNeZt/bbIYd+EKBnu5rzeYYndFr2b28AYd2uNvmGHD6W+VvWMxn6l3n/Pzb4u+8UIQcaMasFxM0aOHSYfjFqtH71VJJiOn/PLP+eOg8YpIE9uyi0jTl75FP9Y9tGrf2750FVbNcX/73EfKo2qtefiYu360+vPK9nMzZp99FL1L7HID09c7R+6qflU9d2wbrMnK7+0jt/dacu5mu9X48+9oSS7wnVZVbZjZG65bo2auU+ok925ir71aWakfSMns074mmtUfz/3qs7fAGaAYIOAACAJuy6nwYo5hp7xvbs0AD94GtDv0+/MKHDwf9KLa1aF9CUDL5fjz44TFG9u3jCAp06osKPilRq3vXfvWv16JRfK+nZF/Xs717VH7Pe0+a9VVtzeOUcNMsvaqOQPuZMSGfdescg/cLqPvJUkpJnP6MX5zyq2CpBxhd5a/Xi3Bf1p+0lKj1aot1VW2zoLt3Q1vxVVqJ8z0C/PfSz2PsV1aeLbjBf6tHD/9EJs/Tg1mfM1zlHv/rNy3rx1be19qNCfaFQRd1kfgl8XaS8Vf5fM9DcEHQAAAA0Vd0CtNKsbP17n1kRsosGxF6k0R2kje8ZetEu82ihymNtWFPV8TlqYo/bcYtnxtChY1L7q85csta6rO2hSpe1BRqhD9cq9ZXn9eikX+vJ6cl6duFipb6+yxPcXdY62F6oJlZrkEhFRQ/Tz9pbKV9LdR76a7342IP6xT2RuuWma3XZqSP64tglkvm/7FYZlR1Rzusv6lcL31K+XXLaT0IVcqlUemCXtnoKtis7w9ta48mZz+vZvx/SN57y6q4ecJduudp87J5tuoDjDgNNCkEHAABAU9Q2QGtiA/SDo4Ym7DjTcuMHV0n7cw0Nfs8usF1xfYD+8GCVyXx8TeHEQykXecaA8EzTAvSqufxo+768I+bztZGnu4z1Oob+j3fQ09OXtQUaoy8KlV+tlcYulZabv1pfqTu9Bf5FP6hHHxykgT/qotDL/6v/WsMQfbFLf7K7jjw5dY5mLNyl8pZW+efaal9+uX5CFRvRUS30HxV9tN0uk4r3Wq016tJDP4s0H/uNuc41Zx4LNHcEHQAAAE3UZSelZW8aWmfPW15cdEo/yqjeZcXvGB1TjBrDiUpjdKyVjtvllhcPmz+u8oYkAwYH6Dbzd+YaxuZAU3RERV+Ze/dlbdSxz12Kvf9BPfnko5ox/Rn7Kiah3sU2vK0Xf/uMpzVI0rOrtNtqQnXpJSr3dB3xunpAF91wmfRF0fazGifj6r4uRbQzb3yWrz95m3PUW++RP1HX1uY6P3pPb9aSirRv3VL6b5kO2vM166xfPDJSd15tzwJNFEEHAABAU3TY0E+mndL4nfZ8Q2nj54orV0ot/+sdhNRjh6H95llk5M8CtOBmaf9HhmZZ4QfQqFUZjPTJJzxjakTdYDXDaKNbh/bVrd1C1T5QOlFS6B2QdLPdAuSLQu0+famUQhV+eVxqbT6fXWIFBD/t2VEtvi7S1rWFdlk9XN1Hsf2sgUaP6B/r3q5HC44zru47Uj/t8j0r5dCfXm+YIUivHtBXt1wfKlf/jnYJ0DQRdAAAADQH/sboiPBeraUSa/gB31DDH/PO/z0s3fZ/zMd/ZWjCq7TmQOPnGj32zGCkocHmIfGNDhbu0taPPtd/zfu/2P68npz6ayXNrXtA0vcPl5k/W+vqvt75qwffpS5tzOf4fxuVXe+0orNi4+5S58utdb+ttF12cT21/55UfqxEm9esrD7mRyWRutpch8r/o394C2rQR7G97bBmfZFdBjRNBB0AAADNgN8xOu6Xhtj3V/jlleaPE6rUxP3Rq8wfx6TV3lmT4Rmnw7LuvcpdZ4DGKuedlUq1u594x9R4UQuXrFRGxueewXxbXdHFu2B9fHJEpWqpqzt6u7Z0vuwSfXNkt9a+Ws+WFVdHKv7p+9W73SX676ebzqlFRv7bSzVj5ovKqDMguVKtLjMP62NHamkx0kZ3jumrzpd/o+LclWcR1gCNE0EHAABAM+B3jI5JVa7MYro5yPxRJv0pMkDTXN6WH0NDzMcfkfZ7F9F1dwUo6Ubp+Anplq5nrr4ic/m/jvbTSgRoDIp3K/909xNfn6v0mHTZVR19uqLUYfvn+uJr6eq23uvIbs58UUlzX9Vmz1ztQvoM068eG6Rbrr5Epfs26Y+L1tbRIuM8Dfgffd+s9X1xqObBSrsOGqa7O7XUf/e+p7Q1/luxAE0JQQcAAABsAbrJumrLZ4Z0Snoo2tvywxps9I0N3u4pVsjxtyEB0seGHvxI+v6NAXq2recuz5nlD7oFaKI9CzQNufrC6olyeev6Bx3a7n3MFdfI5S2oQxt17nuvHn1qip4eerPaB/5Hn/x/K7Xwd/UMOayrvJiuaNPHe6Pe2uhnXTqqxanPtfs9/wFG10Gj9Yu+HXXZsUK9u3LTWY0TAjRWBB0AAAAOcVlF4HCuBgbo5kDpH383b//d0I2nW36c0lM7pQFDLvKGHPsMPbzI0LplhjZ+Iz10v7cVx3XXBuiKY4Y+8jwZ0HQUlx2XLv2e2nsbaNTDEX1iDUh6eRvdUNsVSv6nj37xyBNKnvOEHh3UQ53bXqIv9m3XnxYla+Gaj+ofKmz6RAe/No/xTn0147GRir9/mH5RbRqkO6u8/qsHDFPva6XS/5erP/lZ2RU3PqGH7ZDjzUVL9T4pBxyCoAMAAMAh2nWzb5yTAL3aS2p52NDiqiORtg3Qs4kXaeVd0vFdhqKerxiXw9D49YZ0Y4D+OiFAf/iBef+/VeMla4HGKueg1dqhja6+yTtfH97HtNbVPb3zfn36X13WprV0rES7c9fqxed+rRm/e0s5frvQ1Gaj/rgyV7vNVQZdG6pbetysW6tOEV3V2bpMre3qvg/qyX4d1eJYod5b6r/bymVXWCOo7tKfCDngMAQdAAAA8DLPDDf+f4ZZpaqu/SXmfe8ZuvEVo9KVG/abZQ/nSC1DAnTb5VKmOQ80OQfKVHrqG13S+iwGJP1/R/TFKemyK2u7FOt2pT77ayU9+6JezNqk3ecRJnyR97ZenDtHT056Ro8m+ZkmJSt1k72w2uiGq1qrxX+L9P6flup9u/S0Y8dV/s03+mLn21o4/3XlEHLAYbyjR03aaRhzu3puAgAAnC+ruwOAC6s0pfrfLK0KL4AL68XkX9u30NgETM6X5nULoEUHAAAAAABwDIIOAAAAAADgGAQdAAAAAADAMQg6AAAAAACAYxB0AAAAAAAAxyDoAAAAAAAAjkHQAQAAGlyrS+0bAC6Imo6xSy9tYd8CcCFwjDUNBB0AAKDBdbnGvgHggqjpGLu2/fftWwAuBI6xpoGgAwAANLi42wMUdJlhzwFoSNaxZR1j/tweeatatgy05wA0JOvYso4xNH4EHQAAoMGN6BWgdq05zQAuBOvYso4xf3r/qIeCWre25wA0JOvYso4xNH6cgQAAgAti6cgAxuoAGph1TFnHVm3ihscwjgDQwKxjyjq20DQQdAAAgAvi5g7SuscvUlg7urEA58s6hqxjyTqmrGOrNiHXttcTj4xWu+C2dGMBzpN1DFnHknVMWccWmgZvHDxpp2HM7eq5CQAA0NCWbzGU/qGhXZ9L5V/bhQDqZLXgsAYetcbkqKm7Sm02/327Pszdqs8O/ltff33CLgVQF6sFhzXwqDUmB91Vmo6AyfnSvG4BBB0AAAAAAKDJqwg66LoCAAAAAAAcg6ADAAAAAAA4BkEHAAAAAABwDIIOAAAAAADgGAQdAAAAAADAMQg6AAAAAACAYxB0AAAAAAAAxyDoAAAAAAAAjkHQAQAAAAAAHIOgAwAAAAAAOAZBBwAAAAAAcAyCDgAAAAAA4BgEHQAAAAAAwDEIOgAAAAAAgGMQdAAAAAAAAMcg6AAAAAAAAI5B0AEAAAAAAByDoAMAAAAAADgGQQcAAAAAAHAMgg4AAAAAAOAYBB0AAAAAAMAxCDoAAAAAAIBjEHQAAAAAAADHIOgAAEhOoL4AACfKSURBVAAAAACOQdABAAAAAAAcg6ADAAAAAAA4BkEHAAAAAABwDIIOAAAAAADgGAQdAAAAAADAMQg6AAAAAACAYxB0AAAAAAAAxyDoAAAAAAAAjkHQAQAAAAAAHIOgAwAAAAAAOAZBBwAAAAAAcAyCDgAAAAAA4BgEHQAAAAAAwDEIOgAAAAAAgGMQdAAAAAAAAMcg6AAAAAAAAI5B0AEAAAAAAByDoAMAAAAAADgGQQcAAAAAAHAMgg4AAAAAAOAYBB0AAAAAAMAxCDoAAAAAAIBjEHQAAAAAAADHIOgAAAAAAACOQdABAAAAAAAcg6ADAAAAAAA4BkEHAAAAAABwDIIOAAAAAADgGAQdAAAAAADAMQg6AAAAAACAYxB0AAAAAAAAxyDoAAAAAAAAjkHQAQAAAAAAHIOgAwAAAAAAOAZBBwAAAAAAcAyCDgAAAAAA4BgEHQAAAAAAwDEIOgAAAAAAgGMQdAAAAAAAAMcg6AAAAAAAAI5B0AEAAAAAAByDoAMAAAAAADgGQQcAAAAAAHAMgg4AAAAAAOAYBB0AAAAAAMAxCDoAAAAAAIBjEHQAAAAAAADHIOgAAAAAAACOQdABAAAAAAAcg6ADAAAAAAA4BkEHAAAAAABwDIIOAAAAAADgGAQdAAAAAADAMQg6AAAAAACAYxB0AAAAAAAAxyDoAAAAAAAAjkHQAQAAAAAAHIOgAwAAAAAAOAZBBwAAAAAAcAyCDgAAAAAA4BgEHQAAAAAAwDEIOgAAAAAAgGMQdAAAAAAAAMcg6AAAAAAAAI5B0AEAAAAAAByDoAMAAAAAADgGQQcAAAAAAHAMgg4AAAAAAOAYBB0AAAAAAMAxCDoAAAAAAIBjEHQAAAAAAADHIOgAAAAAAACOQdABAAAAAAAcg6ADAAAAAAA4BkEHAAAAAABwDIIOAAAAAADgGAQdAAAAAADAMQg6AAAAAACAYxB0AAAAAAAAxyDoAAAAAAAAjkHQAQAAAAAAHIOgAwAAAAAAOAZBBwAAAAAAcAyCDgAAAAAA4BgEHQAAAAAAwDEIOgAAAAAAgGMQdAAAAAAAAMcg6AAAAAAAAI5B0AEAAAAAAByDoAMAAAAAADgGQQcAAAAAAHAMgg4AAAAAAOAYBB0AAAAAAMAxCDoAAAAAAIBjEHQAAAAAAADHIOgAAAAAAACOQdABAAAAAAAcg6ADAAAAAAA4BkEHAAAAAABwDIIOAAAAAADgGAQdAAAAAADAMQg6AAAAAACAYxB0AAAAAAAAxyDoAAAAAAAAjkHQAQAAAAAAHIOgAwAAAAAAOAZBBwAAAAAAcAyCDgAAAAAA4BgEHQAAAAAAwDEIOgAAAAAAgGMQdAAAAAAAAMcg6AAAAAAAAI5B0AEAAAAAAByDoAMAAAAAADgGQQcAAAAAAHAMgg4AAAAAAOAYBB0AAAAAAMAxCDoAAAAAAIBjEHQAAAAAAADHIOgAAAAAAACOQdABAAAAAAAcg6ADAAAAAAA4BkEHAAAAAABwDIIOAAAAAADgGAQdAAAAAADAMQg6AAAAAACAYxB0AAAAAAAAxyDoAAAAAAAAjkHQAQAAAAAAHIOgAwAAAAAAOAZBBwAAAAAAcAyCDgAAAAAA4BgEHQAAAAAAwDEIOgAAAAAAgGMQdAAAAAAAAMcg6AAAAAAAAI5B0AEAAAAAAByDoAMAAAAAADgGQQcAAAAAAHAMgg4AAAAAAOAYBB0AAAAAAMAxCDoAAAAAAIBjEHQAAAAAAADHIOgAAAAAAACOQdABAAAAAAAcg6ADAAAAAAA4BkEHAAAAAABwDIIOAAAAAADgGAQdAAAAAADAMQg6AAAAAACAYxB0AAAAAAAAxyDoAAAAAAAAjkHQAQAAAAAAHIOgAwAAAAAAOAZBBwAAAAAAcAyCDgAAAAAA4BgEHQAAAAAAwDEIOgAAAAAAgGMQdAAAAAAAAMcg6AAAAAAAAI5B0AEAAAAAAByDoAMAAAAAADgGQQcAAAAAAHAMgg4AAAAAAOAYBB0AAAAAAMAxCDoAAAAAAIBjEHQAAAAAAADHIOgAAAAAAACOQdABAAAAAAAcg6ADAAAAAAA4BkEHAAAAAABwDIIOAAAAAADgGAQdAAAAAADAMQg6AAAAAACAYxB0AAAAAAAAxyDoAAAAAAAAjkHQAQAAAAAAHIOgAwAAAAAAOAZBBwAAAAAAcAyCDgAAAAAA4BgEHQAAAAAAwDEIOgAAAAAAgGMQdAAAAAAAAMcg6AAAAAAAAI5B0AEAAAAAAByDoAMAAAAAADgGQQcAAAAAAHAMgg4AAAAAAOAYBB0AAAAAAMAxCDoAAAAAAIBjEHQAAAAAAADHIOgAAAAAAACOQdABAAAAAAAcg6ADAAAAAAA4BkEHAAAAAABwDIIOAAAAAADgGAQdAAAAAADAMQg6AAAAAACAYxB0AAAAAAAAxyDoAAAAAAAAjkHQAQAAAAAAHIOgAwAAAAAAOAZBBwAAAAAAcAyCDgAAAAAA4BgEHQAAAAAAwDEIOgAAAAAAgGMQdAAAAAAAAMcg6AAAAAAAAI5B0AEAAAAAAByDoAMAAAAAADgGQQcAAAAAAHAMgg4AAAAAAOAYBB0AAAAAAMAxCDoAAAAAAIBjEHQAAAAAAADHIOgAAAAAAACOQdABAAAAAAAcg6ADAAAAAAA4BkEHAAAAAABwDIIOAAAAAADgGAQdAAAAAADAMQg6AAAAAACAYxB0AAAAAAAAxyDoAAAAAAAAjkHQAQAAAAAAHIOgAwAAAAAAOAZBBwAAAAAAcAyCDgAAAAAA4BgEHQAAAAAAwDEIOgAAAAAAgGMQdAAAAAAAAMcg6AAAAAAAAI5B0AEAAAAAAByDoAMAAAAAADgGQQcAAAAAAHAMgg4AAAAAAOAYBB0AAAAAAMAxCDoAAAAAAIBjEHQAAAAAAADHIOgAAAAAAACOQdABAAAAAAAcg6ADAAAAAAA4BkEHAAAAAABwDIIOAAAAAADgGAQdAAAAAADAMQg6AAAAAACAYxB0AAAAAAAAxyDoAAAAAAAAjkHQAQAAAAAAHIOgAwAAAAAAOAZBBwAAAAAAcAyCDgAAAAAA4BgEHQAAAAAAwDEIOgAAAAAAgGMQdAAAAAAAAMcg6AAAAAAAAI5B0AEAAAAAAByDoAMAAAAAADgGQQcAAAAAAHAMgg4AAAAAAOAYBB0AAAAAAMAxCDoAAAAAAIBjEHQAAAAAAADHIOgAAAAAAACOQdABAAAAAAAcg6ADAAAAAAA4BkEHAAAAAABwDIIOAAAAAADgGAQdAAAAAADAMQg6AAAAAACAYxB0AAAAAAAAxyDoAAAAAAAAjkHQAQAAAAAAHIOgAwAAAAAAOAZBBwAAAAAAcAyCDgAAAAAA4BgEHQAAAAAAwDEIOgAAAAAAgGMQdAAAAAAAAMcg6AAAAAAAAI5B0AEAAAAAAByDoAMAAAAAADgGQQcAAAAAAHAMgg4AAAAAAOAYBB0AAAAAAMAxCDoAAAAAAIBjEHQAAAAAAADHIOgAAAAAAACOQdABAAAAAAAcg6ADAAAAAAA4BkEHAAAAAABwDIIOAAAAAADgGAQdAAAAAADAMQg6AAAAAACAYxB0AAAAAAAAxyDoAAAAAAAAjkHQAQAAAAAAHIOgAwAAAAAAOAZBBwAAAAAAcAyCDgAAAAAA4BgEHQAAAAAAwDEIOgAAAAAAgGMQdAAAAAAAAMcg6AAAAAAAAI5B0AEAAAAAAByDoAMAAAAAADhGgOfnpJ3Gl0938NwEAAAAAABoaq6af0Ca1y3gdNDx2WNXe24CAAAAAAA0Ndf+9ovKQYcxt6vnJgAAAAAAQFMTMDnfE3QwRgcAAAAAAHAMgg4AAAAAAOAYBB0AAAAAAMAxCDoAAAAAAIBjEHQAAAAAAADHIOgAAAAAAACOQdABAAAAAAAcg6ADAAAAAAA4BkEHAAAAAABwDIIOAAAAAADgGAQdAAAAAADAMQg6AAAAAACAYxB0AAAAAAAAxyDoAAAAAAAAjkHQAQAAAAAAHIOgAwAAAAAAOAZBBwAAAAAAcAyCDgAAAAAA4BgEHQAAAAAAwDEIOgAAAAAAgGMQdAAAAAAAAMcg6AAAAAAAAI5B0AEAAAAAAByDoAMAAAAAADgGQQcAAAAAAHAMgg4AAAAAAOAYBB0AAAAAAMAxCDoAAAB8fJWzULEjFmrDl3ZBU7T79aa/DQAAnKMAz89JOw1jblfPzQZ3slwfb1imVz/4XCcuOqETF4dr0MP3q19IC3uBWpwsUd6flitz51FzxnzsVb018uHB6nqF9+66fLUrS88X3KKZ0WF2Sf2U79+iN99arU2FLXRlyxIdUrC6DhqvJ1zB9hLSx6+P1qbw32nkLbVtxx6t+M1nGvSUS1faJVVZJ1OPfHS70sb3Uiu7rLKj2vCbp5T51bW60oqlTn2lA/+WOnTrrajoaN3u5338aue7evXNd7TrP1fqyuMl+qr1dep3/6OK6Wav4cscJS+RflnL6/Iss+5aJd3v/737aneO3n7nPeUVfqUWV1yprw5/pSuvC1efQQ9oULfKH9BXuUuU/PZ+e8509DMd0LXq4LPY9YOe1C8j6/nBAmi2yj/7SH9bt1EbduzRCfO7p8XRr3Ti2nD9yHWPom67Tq0uthesp6/2vKe3st7T33Z+pnKZ3/nX3awB9z+ke6t8j3mcPKr8Ncu0dN02HSiTWl3bU3fcG62Y3teaj/Rhfu/mvfu6Mj/4SPu+PCG1vlZdbrtbD8a4dL3/L/ozPlmjx5/J0qFBU5VRw/evx/GPtPTRhVp3S0KN/34cWDdbE5e30i9TnlS/q+zCJurj10dq+tv2TI1ubrBt9fzbvNj8d7KRvncnSgr0wdt/NY8Dex/zsPbf3oqbOEo/snZfK+iY9ZkjPn8AAOorYHK+NK9bwAUOOk6YJyez9eb3xyvpDjskKC/QiplZCk6cqgHXeov8OlmiDSmLdODupzW8i30K92+z8j1zvwYsHKGIlt4if6wTgHV//qtKLjqhda2H1H6yWMUJ88Rgenawfjn6Ll3f2i48eUKHjp5Qu6vOnEp6TrreM0+q5pgnEGfyjyrqCjpKtG7ucuWZZ8i3jarpRMQKOv4gVbm//JMcvZr6rq4cPVMxYWdOsQ+ZJ2cv7P+JHr//ZrWrKD5xVIfKW6ndFXbB+QQd5ufy9yWL9ObFLsUNdunGYJ/T+7LPlLduiX7/uUszxrrUroYKh3UC+Xs9rCQXwQaAejp5VHlvvKg3j/fWg4PM757v+3z3mN9xB/6Zo/Q39um2RxM0oD5BumVPln4x8z1d/3+GaGCf63SF+X27773VWrG1RBGj55jfUT5f7p5/k6bo9wXXadCIIYowv48P/G+WVnzwmbpWWvaoPlyYqFf236wB0T8xl2uhE1/+Q28uf1cfX3W3Zs68XzfW9O+XtY7nJ+r3/zBv1xV0mLxBxlHF/Po53XuDXVihbJsWPfmi9tw1Vc+Zz1PPd6TRKi8u0Cdf2TOmox+9rkXvtNXwp3+i6+0yq6If/IOwM//2nYdGG3RYfzx6e6Fm/2mPTrQO0+3/J1ydb+iidif2a3fJVzq06yv1GJeg263XfKGCjn9v09LX/67OI+z1AADQiFQEHRe268on7+r3x6P1REXIYWkVruEJt2j9ewWq+BuEP+X/+7o+6DbmTMhh+b5L40d8pTc3ldgF1X28erZe+d8TihjxqEb2rS1J8We/3n65RFG+IYfl4haVQo4KgwbfqLf/mKNDJ+2Cs7V/i9aH3KORfVrogx01b5M/rW5w6ZcJvfXhuo9UbpepfJsy37xRv4z1CTksLa44E3KclxPKWz5dH1w3RjNH3VU55LC0vlYR0VM14+atmvLKtjOvCwDOx8kSffjyi/rfTvZ3j2/IYTG/4zr0GKyp0+9R+YqFeuuT2v518dHyeo35ze80c8zdur1buLp266VBiVM1PtL6rntPH/t8t1v/Jv1+R7Bipk7VcNfN5rI3a8CoqXriLpnLZunvZfaCpiv6TNXLC5+0lwtXhOt+zZwSrXafvas3/9dqoehf+dYspZdcqw72fF06uIZoQMsSZWblyCcD8Nj3QZY+PH6z7h3Q9EMOS6sQ6/M5M3UJsYLyYHX2KevarWFCjsbrhD7+02xN/9N+dR0xU2kvmvtqbLQG9Lb2sbsVE32/xk/7FsKHox9r3dZyfW3PAgDQGF3QoGPfP/+hPn1vrn6SdcPN6rN9q/JrPBctV/4OaWDv6kFFq1tuV/DGj3TAnq/qxiHmP/yDblYHf+1463RCxw4HK9g35KjNTYM18batesH6y4pddDb27disrt3NE7NuP9KV2Vu0zy6vt/8J0482f3zmvTh+TOUdrtCVZ9l0u75O7M7SivKHNX5AlWbaVbRzParxrbL05u5zeVcAoLJDOcv1t5vH6JeR3tD8xL8/0lsp0/XI6JGKHTFaj8xK1Yf/Nu9oFaZ7E4fo2Kur9XF9vn5Ceur279u3T2ulLjffbH6ffqYDpzOJo/rfTdukyCEacJ1d5NFCEXcMUbvjW5S7qyLavUJdI8Oqd6G5IVw/Mn/lfVZDqF22TUvS9mrAL+5XhF1Up5Y3q99g89/Jf6zR277ft1/mKPNPn6lddDRdFhzE+jf4pbc/040jZirJ3BHPtpsWAADNyQUMOkq0L/86XR9iz1Zyra6/ZY8O1dSI4eR+7T7YRdf5CxxaXaPO+kwlF6QOfYWCw/bok8/s2Xpo12eEBny2XJlnW6k/uUeb1t2sPuEtpNY3K7JTjvI+se+rL3e5jtwQfKZvdutgtSvcr33H7fkGdUL5H25Tn3t61jCWiC/z5P/2m/VB7rkFQABw2okC/WXLLRrexw45dr+uKU+9qP9t7dIvpzyn381/Wr/se6X+U9GiomW4fvqTz/Rqztm1kvP19UnvN9elFRXJ8j3a+Q+pS9dO1b//QsI8Acbfi+v4h8N+zhb+UmKry8riVO25Y5RifFsx1sP1d0Tr9pYlenv1ZrtVh/ld/fZy5amnYu6qSGX2aMWIkUrOOaoTxTlaOitRvzDnf5G4UG/tstOcLwv0VsoUxZvlsaMTlfz6R1VaK1rdKM37Xt9j3vRZ9pHZWprzmfe7vny/NiydbQdQj2j6K+/5/HtkP/6JNX5D/fLcVPMxs7XOCqzOkzXO1orTQZi1ndP1/OtbdMDfv43WuCtvp2p64mh72YVasb2k5tYK9vKzn37Es7y1nRPnp+rtivexNvvXaKL5mOnrquwrX25RsvlaJ672GcuqmnL9fd27OtQ2WnF3nW1rVemrnWv0vP2af5Ho85n5Mj+/D19/UVPs9yL2kSl6/q0CfXV6P/DuR7Gz3jVvf6TfJ3rf39jfVG9RBADAd+0CBh1HdeDQlbrS75/+W+jylvtV8h97tqqjJTrQ/kq1sWcru1yXBpXoK59mwg0nWHc8EKb1KUu8fx2sj4uD1e+RaJ144UV9eBYjm58o2Ky8Ab11o+dEupUiftRJb+aaJ5Bn4cTHu/TZrWFnmjm3CNf/vb9Ei55bo48bvN/Ifu3e1FM3/o89W5eQGxXx8Wc6ZM8CwLk4sWurDvW5VR2s78oTe5T58rtqNWKm5oy6SxE3BOvKa8M8XUMG+Axn0erWvrphh1lBs+fPTrn25BdIYbcorGIYoa++klU1DbnKz6hGF7dVhy7mSysrrz3Y/XSP/m7+23fHDyo1CfE4tGm50v99l8bdF15razm/WvdUlG+rjs9ylLnuhDr8bIhur/LHgq+L39GiP+zRtYMSlPTEKA1oW6DMufP11vYtWjT1dR3qdr+eePppjb872KzML9Rzb/kJq8u2asULq6XbRpjLJmj4D8q1bvF0vbL5I701c77+duVPNC7xaSWNvFXlf1uu6b/bYn8OV+i2Pj2lw/5C/XLl/X2LFPkT/Z9qLWzOzqG/vajHpqbqg+Phihn7tH5lbs+YAdeo5L1UTZz+uj72DTs84648pWff+lzBAx72LJt0fxcd+fN0Pff25/ZCPo6b+9907/JXuh7yLP+rJ6wWOB9pxdynlFxXuHbd3frlvdfq4z+t9unqdEJ5q/+gvKuiNW5Q9X3jNHPf351r/jMfGa7rz6olxwkdWLdQU942394Rj5qvOUGD2u73fGYr/uH76R7Vht+Zn+POFupz/5OebRt/VyvlZc03t7diP7hW/axtjjU/R12nQY94399f3RtunpkBANC4XNgxOqxuFPbNqoKvvdm+VYOrrqih5cAV6uC3lUjDaNH5fs15NEw7X0zU7LcKdKjWM1dby5s1/PFrlb20vuN1mCd1OR+pzy1nTmpa9bhdd7y3uZbuPD6swVF3Zmn+W60UV7kdtdq5ntRvoqU3Jk/X73P2q7ym1/OvLCU/M11TapoWZinfXtSj/KgOXWNWKup7gtXqCrX5pMTcUgA4d8eOlqhDeztx2P8PrTt8l356Rx1/0W5xna63Wv7Zs2fjUE6qXsm9VoMecKmdXab/lHhaIbS4zF8Mcal5h/nr8Fc65i2ozqwgr0jN0pHuI/R/rVZ8PqwWKs8tPqwBD0fXPEhpHU636lj3nt5+y6zMt+ylmDuqV5p3fXBCdzw9SgN6hKtrD5eGT3xUA1p+pszn/6DvjZmqX97lHVPk9uin9YRLOvDuVu2r+m9Izh4Fj35a9/a2xsT4/9u7H5gozzwP4N+emYZAXSnL4DpjbjAdNIiHtGIL0nB40xDcWY0NkZCyRpf6b6kuaorsUrKzc0fpUg2cu1arVpY9jmZiw2roTsvNlkhnRVwFHYhIVtgTWpmeQFhcImv2PdN93plR5i8zrMNG2e8neRlmGN55eWfC8zy/9/f8njTod+/GVq2EC0ercVVXjvKNaY59pOgKsfc1DaSrF2BzXQSITH3FUVOktcsrc2GsA+fFIH7N6uQA7X6IxqyoO96JZ/XlOFaajyz575T/Hv0uVFYWIsXejPeap157vK3eUXdFXyJPeXUed1J6DnYbS5Hh8+mR0Hf2OM7eTsSOSuPU8+XzWHoYb62Lhu2kCRemvQijQIK+EPqYi2gwO4MH8nSUuhYl8orWTx/AmBh3XDhIUrnVPAtJLyz2VPzkzfUP69DkOd53CZY2txpfQtSLpThm3AW94711/xx0ubJwIqGW9/GcfAyiL7bM+bwkrXLmAToiIqJZNruBjieUYnEmdhjfwXdj2vGfxRWu5W2nJwdIdmhFJ6olhHkvE90435eJFPfsCIW8PKIVl6/7i3T04nS1KwBRvB3byqpxenA5dpf77xhHL1+P8ur9yBgz4QdltWgd9BNuWJaLA/9uRGWgbX8uPNbhkSQGLYjo7258fOrK+rh9UAwOFYiajVGVvJpFUwVKTo4iY/c+FCwN04vcvogThgpYnsmFschrNaoRK2oOtkC5/RFf70FWx+9MaGiXoF6/Dqv9TP1U6NI9VyyL0CB+mbiN3YCsFe6vrxCPe9cpcVmZiRfd40zzVFgi7wOrfOpqqZ9LFF+7MTTqvC+3c1l6JYY/7/YIoAxftcIWocPaFx4pzIGhjhbHlJ1X9X4KsCrTka0Tr2XuQJ/jgRHYxEBfrrvyqve5n6fBmhz52N1IvWgzjyBOn+tnpTUFkrJyEI9OnO8K0l+I0CJvSw5gNuHcrUGYTzVDsWknNk6TzPGosnO8PncRiUjJELeTd92m6CwQfZBEr7ofDz4HgxiaQcYqERHR42B2Ax1/kgJe4Rqxiw7GdO4FSgO+g6Fbrm9nrB9m78wFsZn9zRiZF4n4zEJUHtqM6NYfB09JFeL1+7D22nE0BKnXMXzpMwyuTfa6eqPA0uczce63/lYrSUTeflcA4vBJfFBVit36xOmzK+YtQNLGUnxQmoqhk1VBjymoBbFQ3xxxm6sbxJ1RDK1UYabXnoiI3EVHLwL+3/V9rDyQFu1K0H9nYgB3dwaBg0nRNhx6E4ZmBfIM5Q+Lnj70TwrfgfND4rX+JG5USp8MxuH2WpSVn8LAsl04WLYe8e5BBjnL41AtRnTyVfNH/0/pzOoQ30ToUOCV6feAbzaAK0NyJkWsF6t8/k5nhmZohbzjV4pB92gT2v7gegB22D7vR5w+E0kzeMv8mRwbFH+/aHf8HocCKk2iY9A+4ohFiL7EdfHooli/WSRPz/M6GFdGhSo2QJ7qQpXj4kDP7eB9BcXyXGzVDaLBWIHTCDJlxYt9fKYTspKh/pbr24fk6cPipssr6+n+JIauWWFuNOFIlegflRah6GSQvhoREdFjahYDHaIhnQg0MJ7E+Fgi1P6LcIiOShQivxrHH113PY1jfEh0ZB7MnZ4RLfTemQti07vN7fYRqUH2zj1Qn2nE5WApDXK9jq3rMHSqET0BC4KOwHbeDkWH6AB7BVwMp/sR1XUZtnDWH4lJRsF+HYaONc98VRcPKixN70RfiEEm6cs+jCzVBJy6REQUimhNAm7ccE03iE9AVkQLLOeDDCbH+mETvxfvujut21bUvFmB1ph8HKwuFe2Bn2FvjNIxiB36Pz9X6+/fwchNcWixbo2SGDD2NBpQUmtHyr5DqCxM87yiLoxfaoLZLvZprnAUBnUWtpS3CpjlJ4jH5ftyAdGQzNdihZxZsUzjGVB53CxJw7e1Eiy/cy0xf7MTn9zU4tvpYUppeObpaYJSskiPgrDP+q0OG1hkkOeHur+o+UpI98QZEJ2ZkPJYYjRYGitnv/TPTu2rkYuo2VOEkqPNuDGhQFzqOhRs3oN9G70yW4iIiJ4QsxjokFdWCTAwvm/HjcHliA90EUteWeXP1+FvxgXGBnEjIQFLQr36FA4KJdTqSdwNZTWTmDTs2wLUHQ1Qr+PmRXyCXJT4CbjI2wH9F/ifS8GvCM1IjArq0bsBMmRCFYmUjGT8+lx3CPu5g7bmXo8aJEREfxNNGjJ6P3UWb4xchY1bVuFGbRkMH1rRY7+DyTE7eqwmtD7MzJPQZ2kWA7UQCntOdOJIeS3smeWo3J4JdaAAgWuQaftfeeqMl1vOIqNJ8VPTNgbMFXi7eQG+V1mOvOX+o/JRiRuchRx9tnzHKi54Kd9x/9XER5vO8fhR4uXsVZCsHZATDQe6RFupTUfKIxYhlUWK9wmjA7D7vVggwT7YC8SqoXScUgWi5MDBrVG/0zLv3vMKMM2PdtRs6f8qQPt8W3wOxY12YfDsHLkux4mzQN6+XVjz+1rUhbRCkAar12nFAZjwiUcR0fDoazmFy5IOB6orsW9rLvJ0zhokGi5PTERET6hZzehISk1GW7tv1XbpWjt6xKA58NU2FVL+dRTnOnyvZA11tIu+bmJoV0DCRk5NjnSmeoZATkvdoWpBXZtvvQ65U6fJTp8qcuclPj0H+LwbQ677YSFNQoqNCt7pD0KxIgffHTPhePv0nbLhc6dgWVyIGWTjEhEFoMTaTUqcOekMHse9vAc/q3gdS0eaUVNajG3yUplXgWjXgEweRP5iTAzUPGpO+DfQYsKFRfnYu8lPTQcPYpD5igpo+QxtHv/+JNjONWFYtQEZz7kemriIMx/ZkfX9PX5qOUxRKLXOQo4+m9bZPsQ6f56gfNT/3I+fyBWrsfqeXJOq21H3YvU0beJMqFdmIgGdOOMq9OlhpB2WFiDhO2muvocGSS+Jc9v+Kc57N9WT3fjNR14FU+U6WtkKDJsb0erTBEroaW3GQCh1Ru714/SpZmCjaCNfSEPea8mw1db72acvdWY+9CoJliMVaLgSYqZPSO5gxC7O2CIVlO79nPt22Ky9rjveejHMuh1ERPQYm9UaHYrEHOjt9Z4Nspwm/JHCc7WQyU6cKDLA7Jb9EZeRD7VFDJjd0jomr5vw3rV05KVOdSQmO2qxrbw5PIGBO90wt/R7rrQijaCnsR5tL63D6pCjKwokbNqJlLZ6WFyPOEi9aLUkI9vt+H0sTMXabzTjss/yeyHot+LsFbvnSisTg2ita8JfCnShpXFPx7GU7k4s/swAQ2M3hryumkkj/bDUVuC9r17BgaADByKi0Ci0udib0Y/3jrVgQDQJkZo0FBRX4oP6OnxYfxQHi/OREgOMX6mH4ddKvFG4KoRg+AgGesXo8pviu95e9Fzzs92aan/UOjEwVXXjhKEKDdZu8fOLMB+tQE2LEvrXc6ZqLn05gMtQ4enJft/9OTavNuYf0fxVyM4Gzn1oEudKN32bOBMLdXhjezKGzRX4fpUJrVec5/yC+X2UldWi5/lCvOEWfUrIfh0pEf2oMxhwokV+T3vFwN6Eih99BsVa7ykbCiRtKoU+RnwGygw4Yr7ofD+vWNFQVYy3P1VAX5IfpM6IhJ5fHYf5LznY6iqYGpeZj61asc9fhrBqW4QWBWX7oV9oh7mmGNuM76PBbIXNcdzNOC3X1viP92e01L3TAmhXaoGboo9V2+LYX8+VFvFZP44bSj9TVxbFY7X4W8xNHzue29rS+Tcu5UxERDR7ZjXQ4RgYF+/G0u6fo6TUgLJyMUA+K+HVsnw/q4VEelbSdzToGyCdrXj4u0e6l2NvsVf1cFlUZHgG1c/ISxK2o8FYjC1FZSgp2o4iowl9y3bBONP0hHkqZG/bjCS3Myz9vgPnM9ODdIQW4MWMf/Zdfi8Ui7WIu9mE6rIibCkuQ9F2eb6tFcjejx3h6khGaLCx7BB2LLHjzFGD8zXKneer6lddeGbtfhhfSw69sB0RUQjiXipE6XoFLAfL8K5JDO7k5asnJjF5exA97c04YizDkS9ScaBYF3gKigdnMUp0mPBuVRXe9re5X+qX2ySDETtelNBWXy1+/l9olRKx8x2jx4op46Py79hhOe5nf46tCdfDWYfpiaRA0ssb8KxdnKswFCF1Jy+xftiwGS+jG/9d4zzntVYJSYVGHPPuP8Sk4cChUhSkKnCpTn5Pf46Gq8C/leyBfrGfg5I/A8aDOKCPhd1yyvl+HmvEjegNeOtwZdCVc6Qu8Vn7dBzZW3OR9OAzKvoKawvWQ90V4hSWBcniGA6jsmg9UiK+wDlTrePz++5JEyyXemH/htozKyNEcVl78FZuMqSOesf+aj7uQ/zWUv+ZUfPTULBbh/j+RvHcapz+UiEvskxERPRYecrx9YfXvv76HY/FRImIiB4/9yWM3+6H7ep1DDvqJkUhbkkilv+LBnFhHDDTLLv5Mfb+2IqsioOzurQqERER/WN56kc9wE9XPDW7GR1EREThNE+BaFUisvS5yMuVtxxkvcAgx5NFQs/5Jgxrc7CGQQ4iIiKaBQx0EBER0d/PRCcsFmBNTniKkBIRERF5Y6CDiIiIZl1fezNscpHLqlOwPb/Zo7A4ERERUTgx0EFERESzz96Id2tMsMXkwljkp7A4ERERUZiwGCkRERERERERPfFYjJSIiIiIiIiI5hwGOoiIiIiIiIhozmCgg4iIiIiIiIjmDAY6iIiIiIiIiGjOYKCDiIiIiIiIiOYMBjqIiIiIiIiIaM5goIOIiIiIiIiI5gwGOoiIiIiIiIhozmCgg4iIiIiIiIjmDAY6iIiIiIiIiGjOYKCDiIiIiIiIiOYMBjqIiIiIiIiIaM5goIOIiIiIiIiI5gwGOoiIiIiIiIhozmCgg4iIiIiIiIjmjKccX3947WvHLRERERERERHRk+qnK5xxDiIiIiIiIiKiJx/wV+8ugSsiB8dqAAAAAElFTkSuQmCC;" vertex="1" parent="1">
          <mxGeometry x="200" y="470" width="1082" height="1154" as="geometry" />
        </mxCell>
        <mxCell id="muEPeiRp9h54YGBEiAfr-2" value="1" style="whiteSpace=wrap;html=1;aspect=fixed;fillColor=#e1d5e7;strokeColor=#9673a6;" vertex="1" parent="1">
          <mxGeometry x="430" y="780" width="20" height="20" as="geometry" />
        </mxCell>
        <mxCell id="muEPeiRp9h54YGBEiAfr-3" value="2" style="whiteSpace=wrap;html=1;aspect=fixed;fillColor=#e1d5e7;strokeColor=#9673a6;" vertex="1" parent="1">
          <mxGeometry x="430" y="840" width="20" height="20" as="geometry" />
        </mxCell>
        <mxCell id="muEPeiRp9h54YGBEiAfr-4" value="3" style="whiteSpace=wrap;html=1;aspect=fixed;fillColor=#e1d5e7;strokeColor=#9673a6;" vertex="1" parent="1">
          <mxGeometry x="430" y="910" width="20" height="20" as="geometry" />
        </mxCell>
        <mxCell id="muEPeiRp9h54YGBEiAfr-5" value="4" style="whiteSpace=wrap;html=1;aspect=fixed;fillColor=#e1d5e7;strokeColor=#9673a6;" vertex="1" parent="1">
          <mxGeometry x="430" y="980" width="20" height="20" as="geometry" />
        </mxCell>
        <mxCell id="muEPeiRp9h54YGBEiAfr-6" value="5&lt;span style=&quot;color: rgba(0, 0, 0, 0); font-family: monospace; font-size: 0px; text-align: start; text-wrap: nowrap;&quot;&gt;%3CmxGraphModel%3E%3Croot%3E%3CmxCell%20id%3D%220%22%2F%3E%3CmxCell%20id%3D%221%22%20parent%3D%220%22%2F%3E%3CmxCell%20id%3D%222%22%20value%3D%221%22%20style%3D%22whiteSpace%3Dwrap%3Bhtml%3D1%3Baspect%3Dfixed%3BfillColor%3D%23e1d5e7%3BstrokeColor%3D%239673a6%3B%22%20vertex%3D%221%22%20parent%3D%221%22%3E%3CmxGeometry%20x%3D%22430%22%20y%3D%22840%22%20width%3D%2220%22%20height%3D%2220%22%20as%3D%22geometry%22%2F%3E%3C%2FmxCell%3E%3C%2Froot%3E%3C%2FmxGraphModel%3E&lt;/span&gt;&lt;span style=&quot;color: rgba(0, 0, 0, 0); font-family: monospace; font-size: 0px; text-align: start; text-wrap: nowrap;&quot;&gt;%3CmxGraphModel%3E%3Croot%3E%3CmxCell%20id%3D%220%22%2F%3E%3CmxCell%20id%3D%221%22%20parent%3D%220%22%2F%3E%3CmxCell%20id%3D%222%22%20value%3D%221%22%20style%3D%22whiteSpace%3Dwrap%3Bhtml%3D1%3Baspect%3Dfixed%3BfillColor%3D%23e1d5e7%3BstrokeColor%3D%239673a6%3B%22%20vertex%3D%221%22%20parent%3D%221%22%3E%3CmxGeometry%20x%3D%22430%22%20y%3D%22840%22%20width%3D%2220%22%20height%3D%2220%22%20as%3D%22geometry%22%2F%3E%3C%2FmxCell%3E%3C%2Froot%3E%3C%2FmxGraphModel%3E&lt;/span&gt;" style="whiteSpace=wrap;html=1;aspect=fixed;fillColor=#e1d5e7;strokeColor=#9673a6;" vertex="1" parent="1">
          <mxGeometry x="731" y="1160" width="20" height="20" as="geometry" />
        </mxCell>
        <mxCell id="muEPeiRp9h54YGBEiAfr-7" value="6" style="whiteSpace=wrap;html=1;aspect=fixed;fillColor=#e1d5e7;strokeColor=#9673a6;" vertex="1" parent="1">
          <mxGeometry x="960" y="1160" width="20" height="20" as="geometry" />
        </mxCell>
      </root>
    </mxGraphModel>
  </diagram>
</mxfile>
